<svg width="220" height="220" viewBox="0 0 220 220" fill="none" xmlns="http://www.w3.org/2000/svg">
<path fill-rule="evenodd" clip-rule="evenodd" d="M178.894 61.7602C152.251 23.7113 99.8091 14.4643 61.7602 41.1064C23.7113 67.7485 14.4643 120.191 41.1064 158.24C67.7485 196.289 120.191 205.536 158.24 178.894C196.289 152.251 205.536 99.8091 178.894 61.7602ZM61.2227 40.3388C99.6955 13.3998 152.722 22.7499 179.661 61.2227C206.6 99.6955 197.25 152.722 158.777 179.661C120.304 206.6 67.2778 197.25 40.3388 158.777C13.3998 120.304 22.7499 67.2777 61.2227 40.3388Z" fill="#242424"/>
<path fill-rule="evenodd" clip-rule="evenodd" d="M174.384 64.9179C149.486 29.3597 100.476 20.718 64.9179 45.6162C29.3597 70.5143 20.718 119.524 45.6162 155.082C70.5143 190.64 119.524 199.282 155.082 174.384C190.64 149.486 199.282 100.476 174.384 64.9179ZM64.3805 44.8485C100.363 19.6536 149.956 28.3983 175.151 64.3804C200.346 100.363 191.602 149.956 155.62 175.151C119.637 200.346 70.0435 191.602 44.8485 155.62C19.6536 119.637 28.3983 70.0435 64.3805 44.8485Z" fill="#242424"/>
<path fill-rule="evenodd" clip-rule="evenodd" d="M173.088 200.099C123.328 234.942 54.7435 222.848 19.901 173.088C-14.9415 123.328 -2.84831 54.7435 46.912 19.901C96.6723 -14.9415 165.256 -2.8483 200.099 46.912C234.942 96.6723 222.848 165.256 173.088 200.099ZM21.82 171.744C55.9205 220.445 123.044 232.28 171.744 198.18C220.445 164.08 232.28 96.9562 198.18 48.2557C164.08 -0.44472 96.9562 -12.2804 48.2557 21.82C-0.444724 55.9205 -12.2804 123.044 21.82 171.744Z" fill="#242424"/>
<path d="M157.127 67.8419L76.2214 124.492L55.0597 94.2703L44.2347 101.85L95.1457 174.558L105.971 166.979L84.7212 136.631L165.626 79.9809L157.127 67.8419Z" fill="#242424"/>
<path d="M22.5713 83.5789L14.066 80.4704L14.6851 78.7763L21.4431 78.964C22.0718 78.9833 22.5409 79.0013 22.8505 79.018C22.5764 78.8082 22.1771 78.4913 21.6525 78.0672L16.4789 73.868L17.0323 72.3538L25.5377 75.4622L25.1412 76.5471L18.0224 73.9454L24.2379 79.0187L23.8669 80.034L15.7272 79.8477L22.9678 82.4939L22.5713 83.5789Z" fill="#242424"/>
<path d="M19.4534 66.7233L20.0154 65.6649L23.4306 67.4785L24.4446 65.569C25.109 64.3178 25.7764 63.6185 26.4469 63.471C27.1193 63.3198 27.7483 63.3997 28.3339 63.7107C28.9522 64.039 29.3821 64.5378 29.6236 65.2069C29.8614 65.874 29.6762 66.7805 29.0678 67.9261L27.4513 70.9704L19.4534 66.7233ZM27.1131 69.434L28.1416 67.4972C28.495 66.8316 28.64 66.2908 28.5765 65.8748C28.5113 65.4532 28.2332 65.112 27.7422 64.8512C27.4076 64.6736 27.0793 64.6158 26.7572 64.6779C26.4351 64.74 26.1669 64.8983 25.9525 65.1528C25.7381 65.4073 25.4522 65.8709 25.0949 66.5438L24.3417 67.9623L27.1131 69.434ZM23.1645 59.7347L23.7265 58.6763L31.7244 62.9234L31.1624 63.9817L23.1645 59.7347Z" fill="#242424"/>
<path d="M35.9702 56.5682L28.812 51.0217L30.9042 48.3215C31.2725 47.8462 31.5765 47.5009 31.8163 47.2856C32.1473 46.9794 32.4878 46.7719 32.838 46.6629C33.1849 46.5513 33.5619 46.5387 33.9691 46.625C34.3788 46.7081 34.7611 46.8871 35.1159 47.162C35.7247 47.6337 36.0905 48.2271 36.2136 48.9424C36.3333 49.6551 36.001 50.5177 35.2166 51.5301L33.794 53.366L36.7042 55.6209L35.9702 56.5682ZM32.9493 52.7115L34.3832 50.8609C34.8574 50.2489 35.0802 49.7261 35.0516 49.2923C35.023 48.8586 34.802 48.4816 34.3885 48.1613C34.0891 47.9292 33.7743 47.8077 33.4441 47.7968C33.1133 47.78 32.8178 47.8689 32.5577 48.0633C32.3918 48.19 32.1424 48.4682 31.8095 48.8979L30.3907 50.729L32.9493 52.7115Z" fill="#242424"/>
<path d="M41.1058 50.0015L36.9499 41.2364L37.8406 40.3019L46.9528 43.8666L46.011 44.8548L43.2969 43.7272L40.6844 46.4683L41.9837 49.0804L41.1058 50.0015ZM40.2166 45.5445L42.3347 43.3222L39.8672 42.2761C39.1168 41.9591 38.516 41.6823 38.0646 41.4456C38.4054 41.9296 38.7105 42.4451 38.98 42.9921L40.2166 45.5445Z" fill="#242424"/>
<path d="M46.2877 41.0432L46.9555 40.0696C47.3098 40.3453 47.773 40.5265 48.3449 40.6131C48.92 40.697 49.4421 40.5349 49.9113 40.1269C50.3899 39.7107 50.6607 39.2597 50.7237 38.7737C50.7868 38.2877 50.6671 37.8707 50.3644 37.5226C50.0374 37.1466 49.632 36.9753 49.148 37.0087C48.6613 37.039 48.1663 37.273 47.6629 37.7108L47.2294 38.0877L46.5444 37.3C46.9608 36.9379 47.259 36.6376 47.4391 36.3991C47.6165 36.1576 47.704 35.8659 47.7015 35.5242C47.6995 35.1767 47.5891 34.8771 47.3702 34.6254C47.1108 34.3271 46.7686 34.169 46.3437 34.151C45.9219 34.1303 45.5136 34.2916 45.119 34.6348C44.7741 34.9347 44.5545 35.2785 44.4604 35.666C44.3666 36.0476 44.3974 36.422 44.5528 36.7889C44.7055 37.1528 44.8426 37.4046 44.9642 37.5444L43.927 38.1026C42.8795 36.465 43.0502 35.0422 44.4392 33.8343C45.1073 33.2533 45.7993 32.979 46.5151 33.0114C47.2282 33.0407 47.801 33.304 48.2333 33.8012C48.7873 34.4382 48.9155 35.1944 48.618 36.0698C49.0498 35.8635 49.512 35.8081 50.0044 35.9038C50.4973 35.9936 50.9234 36.2452 51.2828 36.6585C51.7936 37.2458 51.9935 37.9369 51.8826 38.7319C51.7721 39.5211 51.3408 40.2426 50.5888 40.8966C49.2961 42.0207 47.8624 42.0696 46.2877 41.0432Z" fill="#242424"/>
<path d="M54.2672 37.6137L48.99 30.2547L51.7659 28.264C52.2545 27.9136 52.6445 27.6695 52.9357 27.5316C53.3404 27.3326 53.726 27.2309 54.0927 27.2264C54.457 27.2185 54.822 27.3141 55.1876 27.513C55.5566 27.7095 55.8718 27.9902 56.1334 28.355C56.5822 28.9808 56.7634 29.654 56.6772 30.3746C56.5885 31.0919 56.0238 31.8237 54.983 32.5701L53.0956 33.9235L55.241 36.9153L54.2672 37.6137ZM52.4728 33.0551L54.3753 31.6908C55.0045 31.2397 55.3672 30.8022 55.4636 30.3783C55.56 29.9545 55.4558 29.53 55.151 29.105C54.9303 28.7972 54.6632 28.5908 54.35 28.4861C54.0376 28.3756 53.7291 28.3764 53.4244 28.4886C53.2292 28.5626 52.9107 28.7581 52.469 29.0748L50.5866 30.4247L52.4728 33.0551Z" fill="#242424"/>
<path d="M61.0635 32.786L59.5825 23.1993L60.7029 22.5579L68.4184 28.5754L67.2337 29.2536L64.9544 27.3982L61.6683 29.2795L62.1678 32.1538L61.0635 32.786ZM61.4836 28.2607L64.1479 26.7354L62.0817 25.0285C61.453 24.5105 60.9562 24.0737 60.5912 23.718C60.7796 24.2792 60.9249 24.8603 61.027 25.4614L61.4836 28.2607Z" fill="#242424"/>
<path d="M66.4712 19.4745L71.8422 17.0952L72.2751 18.0723L67.9997 19.9662L69.1306 22.519L71.1073 21.6433C71.8377 21.3198 72.4484 21.1326 72.9394 21.0817C73.4341 21.0292 73.8972 21.1394 74.3288 21.4121C74.7587 21.681 75.0871 22.0716 75.3139 22.5836C75.4991 23.0015 75.5784 23.4348 75.5519 23.8834C75.5276 24.3266 75.3818 24.7448 75.1145 25.1379C74.8473 25.531 74.2694 25.9244 73.3808 26.318L70.139 27.7541L66.4712 19.4745ZM70.8218 26.3369L73.0131 25.3662C73.6043 25.1043 73.9933 24.7878 74.1803 24.4168C74.371 24.044 74.3596 23.6167 74.1461 23.1347C73.9943 22.7921 73.7828 22.5435 73.5116 22.3889C73.2405 22.2342 72.9376 22.186 72.603 22.2441C72.2684 22.3023 71.7378 22.4923 71.0111 22.8142L69.5484 23.4622L70.8218 26.3369Z" fill="#242424"/>
<path d="M77.8555 24.3809L78.3656 14.6939L79.5935 14.295L85.916 21.7627L84.6176 22.1845L82.7657 19.9023L79.1644 21.0721L79.0658 23.9878L77.8555 24.3809ZM79.1919 20.037L82.1117 19.0886L80.4381 16.9953C79.9286 16.3598 79.5315 15.8306 79.247 15.4078C79.3167 15.9956 79.3401 16.5942 79.3172 17.2035L79.1919 20.037Z" fill="#242424"/>
<path d="M89.9625 20.8463L88.2163 13.0526L85.305 13.7049L85.0713 12.6621L92.0755 11.0928L92.3091 12.1356L89.3857 12.7906L91.1319 20.5843L89.9625 20.8463Z" fill="#242424"/>
<path d="M94.3598 10.6822L95.5505 10.5464L95.9888 14.3883L98.1368 14.1432C99.5443 13.9827 100.499 14.137 101 14.6062C101.505 15.0749 101.795 15.6387 101.87 16.2974C101.95 16.993 101.782 17.6297 101.367 18.2075C100.952 18.7813 100.1 19.1417 98.8109 19.2887L95.3863 19.6795L94.3598 10.6822ZM96.4614 18.531L98.6402 18.2824C99.3889 18.197 99.9168 18.0103 100.224 17.7225C100.534 17.4301 100.658 17.0077 100.595 16.4553C100.552 16.0789 100.414 15.7755 100.181 15.5452C99.9471 15.3148 99.6647 15.1833 99.3336 15.1507C99.0024 15.118 98.4584 15.1448 97.7014 15.2312L96.1057 15.4132L96.4614 18.531ZM102.222 9.78526L103.412 9.64942L104.439 18.6467L103.248 18.7825L102.222 9.78526Z" fill="#242424"/>
<path d="M106.942 18.5902L106.936 9.5346L110.334 9.53257C111.025 9.53216 111.579 9.62449 111.995 9.80955C112.416 9.9905 112.743 10.2724 112.978 10.6552C113.217 11.0339 113.337 11.4313 113.337 11.8472C113.337 12.2343 113.232 12.5988 113.023 12.9407C112.813 13.2826 112.496 13.5587 112.072 13.769C112.62 13.9293 113.04 14.2029 113.333 14.5898C113.629 14.9767 113.778 15.4338 113.778 15.9609C113.778 16.385 113.688 16.7804 113.507 17.147C113.33 17.5095 113.11 17.7897 112.847 17.9875C112.583 18.1853 112.252 18.3358 111.852 18.439C111.457 18.5381 110.971 18.5878 110.395 18.5881L106.942 18.5902ZM108.137 13.339L110.095 13.3378C110.626 13.3375 111.007 13.3023 111.238 13.2321C111.542 13.1413 111.771 12.9909 111.923 12.7808C112.079 12.5707 112.158 12.3071 112.157 11.99C112.157 11.6894 112.085 11.4258 111.941 11.1994C111.796 10.9689 111.59 10.8125 111.323 10.7303C111.055 10.644 110.596 10.6011 109.945 10.6014L108.135 10.6025L108.137 13.339ZM108.139 17.5209L110.394 17.5195C110.781 17.5193 111.053 17.5047 111.209 17.4758C111.485 17.4262 111.716 17.3437 111.901 17.2283C112.086 17.1129 112.239 16.946 112.358 16.7277C112.477 16.5052 112.537 16.2499 112.536 15.9616C112.536 15.6239 112.45 15.3316 112.277 15.0846C112.103 14.8335 111.862 14.6586 111.553 14.56C111.249 14.4572 110.808 14.406 110.232 14.4064L108.137 14.4076L108.139 17.5209Z" fill="#242424"/>
<path d="M114.905 18.6114L119.263 9.94495L120.547 10.0729L123.338 19.4512L121.98 19.3159L121.2 16.4821L117.433 16.1069L116.171 18.7375L114.905 18.6114ZM117.873 15.17L120.928 15.4742L120.236 12.885C120.025 12.0983 119.874 11.4543 119.783 10.9527C119.611 11.5191 119.392 12.0767 119.126 12.6255L117.873 15.17Z" fill="#242424"/>
<path d="M125.185 19.7771L126.996 10.9045L133.412 12.2144L133.198 13.2615L127.957 12.1913L127.402 14.9087L132.31 15.911L132.098 16.9519L127.189 15.9497L126.573 18.9698L132.02 20.082L131.806 21.129L125.185 19.7771Z" fill="#242424"/>
<path d="M134.253 21.7251L137.054 13.1134L138.769 13.6712L138.825 20.4316C138.828 21.0606 138.827 21.5301 138.821 21.84C139.021 21.5586 139.323 21.1481 139.728 20.6086L143.739 15.2874L145.272 15.786L142.471 24.3977L141.373 24.0404L143.717 16.8327L138.87 23.2266L137.842 22.8923L137.736 14.7512L135.352 22.0823L134.253 21.7251Z" fill="#242424"/>
<path d="M156.801 27.664L157.726 28.4838C157.05 29.2423 156.303 29.7015 155.482 29.8612C154.668 30.0192 153.842 29.8814 153.005 29.4478C152.138 28.9991 151.523 28.4581 151.16 27.8249C150.802 27.19 150.654 26.4641 150.715 25.6472C150.78 24.8321 151.011 24.0406 151.409 23.2727C151.843 22.4352 152.379 21.788 153.019 21.331C153.665 20.8723 154.366 20.6344 155.121 20.6175C155.882 20.5987 156.617 20.773 157.327 21.1403C158.131 21.5568 158.702 22.1119 159.038 22.8055C159.375 23.4991 159.459 24.2729 159.29 25.127L158.114 24.8314C158.231 24.1497 158.181 23.5835 157.964 23.1329C157.748 22.6823 157.371 22.3179 156.833 22.0395C156.215 21.7196 155.621 21.5998 155.051 21.6801C154.484 21.7624 153.987 22.0105 153.559 22.4244C153.134 22.8347 152.784 23.3049 152.509 23.8352C152.155 24.519 151.944 25.1681 151.877 25.7823C151.814 26.3948 151.928 26.936 152.218 27.4061C152.508 27.8762 152.898 28.238 153.388 28.4918C153.984 28.8004 154.578 28.8898 155.169 28.76C155.76 28.6302 156.304 28.2648 156.801 27.664Z" fill="#242424"/>
<path d="M156.126 30.9027L163.966 25.1905L165.05 25.8921L163.24 35.508L162.094 34.7662L162.698 31.8898L159.519 29.8322L157.194 31.5942L156.126 30.9027ZM160.34 29.2009L162.917 30.8691L163.486 28.2502C163.658 27.4541 163.819 26.8122 163.968 26.3248C163.555 26.7495 163.105 27.1451 162.618 27.5115L160.34 29.2009Z" fill="#242424"/>
<path d="M170.399 29.5783L171.246 30.2591L166.756 35.8506L175.003 33.2761L175.942 34.0304L170.272 41.0908L169.424 40.41L173.903 34.833L165.663 37.3892L164.728 36.6388L170.399 29.5783ZM175.26 30.7173L175.852 31.193C175.481 31.5557 175.086 31.7453 174.666 31.7619C174.249 31.781 173.837 31.6268 173.429 31.2993C173.018 30.9693 172.774 30.599 172.697 30.1885C172.626 29.7774 172.729 29.3503 173.006 28.907L173.598 29.3828C173.468 29.6372 173.424 29.8719 173.468 30.0868C173.518 30.3011 173.655 30.4984 173.88 30.6789C174.14 30.8878 174.377 30.9937 174.591 30.9967C174.811 30.9991 175.034 30.9059 175.26 30.7173Z" fill="#242424"/>
<path d="M173.531 44.1937L179.092 38.4614L176.951 36.3839L177.695 35.6169L182.847 40.6151L182.102 41.3821L179.952 39.2959L174.391 45.0282L173.531 44.1937Z" fill="#242424"/>
<path d="M184.442 42.3008L185.208 43.2222L182.235 45.6946L183.617 47.3569C184.523 48.4461 184.917 49.3289 184.799 50.0053C184.684 50.6848 184.372 51.2365 183.862 51.6604C183.324 52.108 182.699 52.3167 181.988 52.2864C181.281 52.2535 180.512 51.7384 179.683 50.741L177.479 48.0907L184.442 42.3008ZM179.029 48.3605L180.431 50.0466C180.913 50.626 181.359 50.9652 181.768 51.0643C182.182 51.1638 182.604 51.0359 183.031 50.6804C183.322 50.4382 183.5 50.1563 183.565 49.8347C183.63 49.5132 183.585 49.2049 183.431 48.91C183.277 48.6151 182.956 48.1748 182.469 47.589L181.442 46.3541L179.029 48.3605ZM189.501 48.385L190.268 49.3064L183.305 55.0963L182.539 54.1749L189.501 48.385Z" fill="#242424"/>
<path d="M195.431 56.9308L195.974 57.8728L189.76 61.4526L198.379 62.0478L198.98 63.0915L191.133 67.6117L190.591 66.6697L196.789 63.0992L188.183 62.4894L187.584 61.451L195.431 56.9308Z" fill="#242424"/>
<path d="M194.253 74.1697L202.748 71.0314L203.373 72.7234L198.101 76.9561C197.61 77.3484 197.241 77.6385 196.994 77.8262C197.339 77.8086 197.848 77.7916 198.522 77.7751L205.184 77.6253L205.743 79.1376L197.248 82.2759L196.848 81.1924L203.958 78.5658L195.936 78.724L195.561 77.7101L201.885 72.5816L194.654 75.2533L194.253 74.1697Z" fill="#242424"/>
<path d="M202.181 83.4663C203.64 83.1077 204.878 83.2192 205.895 83.8006C206.915 84.3811 207.578 85.2912 207.882 86.5309C208.082 87.3427 208.067 88.1222 207.84 88.8694C207.612 89.6166 207.192 90.2456 206.579 90.7564C205.972 91.2703 205.228 91.6354 204.349 91.8515C203.457 92.0706 202.615 92.0866 201.823 91.8996C201.03 91.7126 200.371 91.3339 199.845 90.7634C199.323 90.192 198.968 89.5243 198.781 88.7605C198.577 87.9327 198.595 87.1437 198.835 86.3936C199.075 85.6435 199.499 85.0155 200.109 84.5096C200.718 84.0037 201.409 83.656 202.181 83.4663ZM202.457 84.6705C201.398 84.9309 200.631 85.4201 200.159 86.1383C199.692 86.8595 199.564 87.65 199.775 88.5099C199.99 89.3857 200.475 90.0299 201.229 90.4425C201.985 90.859 202.928 90.9283 204.06 90.6503C204.776 90.4744 205.37 90.1992 205.842 89.8246C206.319 89.453 206.646 88.9974 206.823 88.4577C207.004 87.9211 207.024 87.3629 206.882 86.783C206.679 85.9592 206.221 85.3191 205.507 84.8627C204.798 84.4094 203.781 84.3453 202.457 84.6705Z" fill="#242424"/>
<path d="M209.054 92.7718L209.862 98.5904L208.804 98.7374L208.161 94.1058L205.395 94.4897L205.692 96.6312C205.802 97.4225 205.814 98.0611 205.728 98.5471C205.642 99.0371 205.408 99.452 205.027 99.7918C204.65 100.131 204.185 100.339 203.63 100.416C203.177 100.479 202.739 100.436 202.315 100.287C201.895 100.141 201.534 99.886 201.229 99.5208C200.925 99.1556 200.706 98.4917 200.572 97.5291L200.085 94.0171L209.054 92.7718ZM201.259 95.0639L201.589 97.4379C201.678 98.0783 201.875 98.5394 202.18 98.8213C202.486 99.1073 202.9 99.2141 203.422 99.1416C203.793 99.0901 204.09 98.9553 204.313 98.7372C204.537 98.5191 204.667 98.2412 204.703 97.9036C204.739 97.5659 204.703 97.0035 204.593 96.2162L204.373 94.6316L201.259 95.0639Z" fill="#242424"/>
<path d="M210.288 103.06L210.326 104.146L203.158 104.397L210.494 108.962L210.536 110.165L201.486 110.482L201.448 109.396L208.597 109.145L201.279 104.574L201.237 103.377L210.288 103.06Z" fill="#242424"/>
<path d="M210.42 113.973L210.027 119.63L200.993 119.001L201.076 117.806L209.044 118.36L209.271 115.094L204.619 114.77C203.674 114.705 202.985 114.611 202.551 114.49C202.118 114.374 201.788 114.165 201.561 113.864C201.338 113.564 201.242 113.196 201.272 112.761C201.291 112.498 201.362 112.185 201.486 111.822L202.532 112.099C202.436 112.29 202.383 112.456 202.374 112.596C202.355 112.867 202.441 113.077 202.633 113.227C202.829 113.377 203.305 113.478 204.061 113.53L210.42 113.973Z" fill="#242424"/>
<path d="M209.51 123.978L209.306 125.158L205.496 124.501L205.128 126.631C204.957 127.626 204.717 128.326 204.408 128.733C204.1 129.139 203.73 129.405 203.299 129.531C202.868 129.658 202.441 129.684 202.019 129.611C201.329 129.492 200.765 129.153 200.327 128.592C199.888 128.032 199.78 127.111 200.001 125.828L200.586 122.438L209.51 123.978ZM201.387 123.792L201.014 125.953C200.863 126.829 200.919 127.426 201.182 127.743C201.448 128.065 201.8 128.264 202.238 128.339C202.595 128.401 202.915 128.356 203.196 128.204C203.48 128.056 203.687 127.829 203.815 127.521C203.943 127.213 204.074 126.675 204.206 125.908L204.479 124.326L201.387 123.792Z" fill="#242424"/>
<path d="M198.973 131.044L207.702 133.452L207.383 134.608L203.799 133.619L202.547 138.156L206.132 139.145L205.813 140.3L197.084 137.892L197.402 136.737L201.517 137.872L202.769 133.335L198.654 132.2L198.973 131.044Z" fill="#242424"/>
<path d="M204.829 143.301L204.381 144.412L200.795 142.964L199.986 144.969C199.455 146.283 198.865 147.048 198.213 147.264C197.56 147.485 196.926 147.471 196.311 147.223C195.662 146.961 195.183 146.509 194.873 145.869C194.567 145.23 194.656 144.31 195.142 143.107L196.432 139.911L204.829 143.301ZM196.929 141.403L196.108 143.437C195.826 144.136 195.738 144.689 195.845 145.096C195.953 145.508 196.265 145.819 196.781 146.027C197.132 146.169 197.465 146.192 197.779 146.096C198.093 146.001 198.343 145.816 198.53 145.54C198.716 145.265 198.952 144.774 199.237 144.067L199.839 142.578L196.929 141.403ZM201.867 150.638L201.419 151.749L193.021 148.359L193.47 147.248L201.867 150.638Z" fill="#242424"/>
<path d="M191.848 150.656L199.799 154.99L196.665 160.739L195.727 160.227L198.287 155.53L195.852 154.203L193.454 158.602L192.521 158.093L194.919 153.694L192.212 152.219L189.552 157.101L188.613 156.589L191.848 150.656Z" fill="#242424"/>
<path d="M191.599 168.501L187.259 174.148L180.079 168.629L180.813 167.674L187.146 172.542L190.022 168.8L183.69 163.932L184.42 162.982L191.599 168.501Z" fill="#242424"/>
<path d="M178.813 170.064L185.401 176.276L183.058 178.761C182.646 179.199 182.31 179.513 182.05 179.704C181.691 179.977 181.332 180.151 180.973 180.225C180.617 180.303 180.24 180.279 179.843 180.154C179.444 180.031 179.081 179.816 178.754 179.508C178.194 178.98 177.887 178.354 177.833 177.63C177.783 176.909 178.197 176.083 179.076 175.151L180.669 173.461L177.991 170.936L178.813 170.064ZM181.447 174.194L179.841 175.898C179.31 176.461 179.037 176.96 179.024 177.394C179.01 177.829 179.194 178.225 179.574 178.584C179.85 178.844 180.152 178.995 180.479 179.038C180.807 179.087 181.11 179.027 181.387 178.859C181.565 178.748 181.84 178.496 182.213 178.1L183.802 176.415L181.447 174.194Z" fill="#242424"/>
<path d="M178.221 183.618L177.398 184.329L172.709 178.902L173.753 187.479L172.841 188.266L166.92 181.414L167.743 180.704L172.42 186.116L171.393 177.549L172.3 176.766L178.221 183.618Z" fill="#242424"/>
<path d="M169.802 190.563L165.148 193.803L159.974 186.371L160.958 185.686L165.521 192.241L168.208 190.371L165.543 186.543C165.002 185.766 164.643 185.17 164.465 184.757C164.285 184.346 164.24 183.958 164.332 183.593C164.427 183.231 164.653 182.925 165.011 182.676C165.228 182.525 165.516 182.385 165.877 182.254L166.317 183.243C166.107 183.288 165.945 183.351 165.83 183.431C165.607 183.586 165.497 183.785 165.501 184.028C165.507 184.275 165.727 184.709 166.16 185.331L169.802 190.563Z" fill="#242424"/>
<path d="M159.531 191.884C160.256 193.2 160.47 194.425 160.173 195.557C159.877 196.693 159.17 197.569 158.052 198.186C157.32 198.589 156.564 198.778 155.783 198.752C155.002 198.726 154.286 198.484 153.633 198.025C152.979 197.572 152.434 196.949 151.996 196.155C151.553 195.351 151.319 194.542 151.294 193.728C151.269 192.915 151.463 192.18 151.877 191.524C152.294 190.871 152.846 190.355 153.535 189.976C154.282 189.564 155.048 189.377 155.835 189.413C156.622 189.45 157.338 189.697 157.985 190.154C158.632 190.611 159.147 191.188 159.531 191.884ZM158.44 192.464C157.913 191.508 157.242 190.895 156.425 190.626C155.608 190.362 154.811 190.443 154.035 190.871C153.246 191.306 152.749 191.941 152.547 192.777C152.341 193.615 152.519 194.544 153.081 195.565C153.437 196.21 153.857 196.712 154.342 197.071C154.824 197.435 155.349 197.632 155.916 197.663C156.482 197.699 157.026 197.573 157.549 197.285C158.292 196.876 158.791 196.267 159.046 195.459C159.3 194.656 159.098 193.658 158.44 192.464Z" fill="#242424"/>
<path d="M147.255 203.072L145.739 199.408C145.195 199.633 144.863 199.886 144.743 200.167C144.621 200.454 144.555 201.032 144.544 201.9C144.539 202.544 144.508 203.009 144.452 203.295C144.395 203.587 144.258 203.866 144.044 204.133C143.83 204.404 143.558 204.608 143.227 204.745C142.866 204.894 142.639 204.983 142.549 205.012L142.152 204.053C142.186 204.039 142.259 204.011 142.371 203.969C142.495 203.922 142.57 203.894 142.596 203.883C142.95 203.736 143.177 203.542 143.278 203.3C143.382 203.056 143.431 202.608 143.424 201.956C143.417 201.25 143.458 200.75 143.545 200.455C143.634 200.164 143.818 199.877 144.097 199.592C143.486 199.666 142.749 199.387 141.886 198.755L139.01 196.683L140.38 196.116L142.718 197.809C143.34 198.256 143.829 198.551 144.186 198.693C144.544 198.835 144.953 198.81 145.413 198.62L143.793 194.704L144.929 194.234L146.549 198.15C146.914 197.999 147.198 197.768 147.399 197.458C147.598 197.152 147.753 196.605 147.863 195.815L147.884 195.673L148.343 192.822L149.718 192.253L149.147 195.752C148.973 196.818 148.646 197.537 148.167 197.909C148.518 197.906 148.83 197.966 149.104 198.089C149.379 198.216 149.784 198.554 150.319 199.104C150.806 199.602 151.167 199.892 151.401 199.974C151.635 200.055 151.922 200.026 152.26 199.885L152.701 199.69L153.097 200.649C153.059 200.674 152.847 200.766 152.463 200.925C152.097 201.076 151.75 201.13 151.421 201.088C151.089 201.052 150.8 200.951 150.553 200.785C150.308 200.624 149.951 200.315 149.482 199.858C148.852 199.241 148.399 198.878 148.122 198.769C147.842 198.663 147.426 198.719 146.875 198.938L148.391 202.602L147.255 203.072Z" fill="#242424"/>
<path d="M138.579 196.643L141.088 205.344L134.797 207.158L134.501 206.131L139.641 204.649L138.872 201.984L134.059 203.372L133.764 202.351L138.578 200.963L137.724 198.002L132.382 199.542L132.086 198.515L138.579 196.643Z" fill="#242424"/>
<path d="M129.567 199.091L131.183 208.001L130.004 208.215L129.34 204.556L124.709 205.395L125.372 209.054L124.193 209.268L122.578 200.358L123.757 200.144L124.518 204.344L129.15 203.504L128.388 199.304L129.567 199.091Z" fill="#242424"/>
<path d="M121.229 209.62L120.145 209.705L119.587 202.555L115.342 210.08L114.141 210.174L113.436 201.145L114.519 201.061L115.076 208.192L119.329 200.685L120.524 200.592L121.229 209.62Z" fill="#242424"/>
<path d="M104.072 201.011L103.866 210.064L107.88 210.155C108.687 210.173 109.303 210.105 109.726 209.95C110.15 209.799 110.492 209.52 110.752 209.114C111.013 208.708 111.149 208.256 111.16 207.758C111.175 207.116 110.979 206.57 110.573 206.12C110.167 205.67 109.531 205.375 108.665 205.236C108.986 205.091 109.23 204.946 109.398 204.802C109.755 204.488 110.096 204.095 110.42 203.62L112.05 201.192L110.544 201.158L109.303 203.014C108.941 203.549 108.643 203.959 108.41 204.242C108.177 204.525 107.971 204.722 107.791 204.833C107.607 204.944 107.422 205.021 107.236 205.062C107.099 205.087 106.877 205.097 106.568 205.09L105.179 205.058L105.27 201.038L104.072 201.011ZM105.155 206.096L107.73 206.154C108.278 206.166 108.705 206.232 109.011 206.35C109.317 206.472 109.548 206.659 109.703 206.909C109.857 207.164 109.932 207.438 109.925 207.73C109.915 208.158 109.753 208.507 109.438 208.775C109.119 209.044 108.624 209.171 107.953 209.156L105.087 209.091L105.155 206.096Z" fill="#242424"/>
<path d="M13.3663 139.932L21.9603 137.078L22.9436 140.038C23.1655 140.707 23.2939 141.23 23.3286 141.609C23.3788 142.139 23.3132 142.628 23.1317 143.074C22.8993 143.655 22.5211 144.156 21.9971 144.577C21.4783 145.001 20.836 145.34 20.07 145.595C19.4173 145.811 18.8136 145.927 18.2588 145.942C17.704 145.957 17.221 145.901 16.8096 145.773C16.4021 145.643 16.0553 145.468 15.769 145.246C15.488 145.027 15.2318 144.732 15.0004 144.362C14.7703 143.996 14.5689 143.553 14.3963 143.033L13.3663 139.932ZM14.7582 140.733L15.3676 142.568C15.5558 143.134 15.7559 143.56 15.9678 143.846C16.1811 144.135 16.4153 144.344 16.6704 144.472C17.0296 144.652 17.4605 144.741 17.9632 144.739C18.4711 144.739 19.0494 144.632 19.6981 144.416C20.597 144.118 21.2375 143.74 21.6196 143.284C22.0068 142.829 22.2124 142.364 22.2364 141.888C22.2524 141.544 22.1481 141.034 21.9236 140.358L21.3239 138.552L14.7582 140.733Z" fill="#242424"/>
<path d="M17.007 150.355L25.2344 146.572L27.97 152.521L26.9991 152.967L24.7642 148.107L22.2443 149.266L24.3373 153.817L23.372 154.261L21.2791 149.71L18.4786 150.997L20.8013 156.048L19.8304 156.495L17.007 150.355Z" fill="#242424"/>
<path d="M22.7226 161.792L28.7065 154.143L29.3704 155.257L24.9233 160.646C24.5674 161.078 24.224 161.468 23.8931 161.813C24.3893 161.681 24.8971 161.568 25.4165 161.474L32.3201 160.208L32.9461 161.259L23.3517 162.848L22.7226 161.792Z" fill="#242424"/>
<path d="M26.9233 168.405L34.32 163.18L35.0113 164.159L27.6147 169.383L26.9233 168.405Z" fill="#242424"/>
<path d="M28.8965 171.34L38.0862 168.234L38.9105 169.227L34.3082 177.862L33.4365 176.811L34.8726 174.247L32.4547 171.333L29.709 172.319L28.8965 171.34ZM33.4267 170.976L35.3871 173.339L36.7136 171.01C37.1158 170.302 37.4608 169.737 37.7485 169.316C37.228 169.599 36.6805 169.841 36.1059 170.045L33.4267 170.976Z" fill="#242424"/>
<path d="M36.1518 179.892L42.4415 173.377L43.3259 174.231L41.8095 182.649L46.7477 177.534L47.5743 178.332L41.2845 184.847L40.4002 183.994L41.9209 175.57L36.9784 180.69L36.1518 179.892Z" fill="#242424"/>
<path d="M46.0271 188.834L50.9339 182.532L48.5797 180.699L49.2362 179.856L54.8998 184.265L54.2433 185.108L51.8794 183.268L46.9727 189.57L46.0271 188.834Z" fill="#242424"/>
<path d="M58.2476 191.846L59.5053 190.993C60.1233 191.956 60.5396 192.697 60.7542 193.217C61.4072 192.168 61.8727 191.46 62.1509 191.092L63.3157 191.999C62.8869 192.516 62.3082 193.132 61.5799 193.847C62.3483 193.998 63.1804 194.233 64.0761 194.552L63.5575 195.98C62.7022 195.676 61.9187 195.306 61.207 194.873C61.3127 195.411 61.3792 196.276 61.4066 197.467L59.911 197.399C59.9298 196.734 60.0112 195.873 60.1552 194.815C59.171 195.262 58.3746 195.566 57.7662 195.729L57.3499 194.308C58.5674 194.026 59.4059 193.866 59.8655 193.828C59.2789 193.156 58.7396 192.496 58.2476 191.846Z" fill="#242424"/>
<path d="M16.1172 130.247L17.3489 129.357C16.6555 128.447 16.1012 127.802 15.6862 127.423C16.8948 127.168 17.7198 126.972 18.161 126.837L17.7072 125.432C17.0741 125.658 16.2972 125.991 15.3766 126.431C15.4976 125.658 15.5614 124.795 15.568 123.845L14.0484 123.843C14.0421 124.751 14.1211 125.614 14.2852 126.431C13.8156 126.147 13.0259 125.789 11.9159 125.356L11.468 126.785C12.0992 126.994 12.9365 127.213 13.9797 127.439C13.2234 128.211 12.6648 128.855 12.3037 129.371L13.4964 130.248C14.178 129.201 14.6151 128.468 14.8079 128.049C15.2385 128.83 15.675 129.562 16.1172 130.247Z" fill="#242424"/>
<path d="M68.5471 198.471L69.5616 197.34C70.3938 198.125 70.9768 198.744 71.3105 199.196C71.691 198.021 71.9718 197.221 72.1528 196.797L73.5021 197.396C73.2109 198.002 72.7981 198.739 72.2638 199.608C73.046 199.569 73.9102 199.597 74.8564 199.69L74.698 201.201C73.7945 201.112 72.945 200.943 72.1497 200.694C72.3822 201.191 72.6555 202.014 72.9696 203.163L71.5019 203.458C71.3596 202.809 71.2307 201.953 71.115 200.892C70.2677 201.563 69.5685 202.051 69.0174 202.356L68.2704 201.077C69.3837 200.51 70.1588 200.152 70.5957 200.004C69.8642 199.494 69.1814 198.983 68.5471 198.471Z" fill="#242424"/>
<path d="M13.4142 118.303L14.8243 117.736C14.3711 116.686 13.989 115.926 13.6778 115.458C14.9123 115.502 15.7599 115.512 16.2208 115.487L16.1196 114.014C15.4507 114.081 14.6164 114.216 13.6168 114.421C13.9209 113.699 14.191 112.878 14.4271 111.957L12.9527 111.589C12.7274 112.469 12.5958 113.325 12.5578 114.157C12.1705 113.769 11.4906 113.23 10.518 112.542L9.73849 113.82C10.3004 114.176 11.0602 114.59 12.0179 115.062C11.0976 115.628 10.3999 116.119 9.92491 116.532L10.8706 117.671C11.7849 116.819 12.3862 116.213 12.6744 115.853C12.9037 116.715 13.1503 117.532 13.4142 118.303Z" fill="#242424"/>
<path d="M79.9237 202.421L80.8559 201.221C81.7414 201.945 82.3665 202.522 82.7313 202.949C83.0281 201.75 83.2518 200.933 83.4025 200.496L84.7906 200.999C84.5428 201.624 84.183 202.389 83.7113 203.293C84.4887 203.199 85.3527 203.165 86.3031 203.192L86.2515 204.711C85.344 204.685 84.4848 204.576 83.6738 204.384C83.9407 204.863 84.2713 205.665 84.6657 206.789L83.2224 207.187C83.0347 206.549 82.8458 205.705 82.6557 204.654C81.8578 205.383 81.1947 205.919 80.6664 206.262L79.8312 205.04C80.9018 204.395 81.6497 203.984 82.0751 203.806C81.3095 203.348 80.5924 202.886 79.9237 202.421Z" fill="#242424"/>
<path d="M13.5939 106.261L15.0405 105.796C14.6624 104.716 14.3347 103.931 14.0573 103.442C15.2855 103.573 16.1304 103.643 16.5919 103.65L16.5947 102.174C15.9227 102.193 15.0809 102.27 14.0694 102.404C14.4236 101.705 14.7509 100.905 15.0512 100.003L13.6064 99.5319C13.3198 100.393 13.1281 101.238 13.0316 102.066C12.6726 101.651 12.0323 101.066 11.1107 100.311L10.243 101.531C10.7785 101.926 11.5073 102.392 12.4293 102.93C11.4714 103.431 10.741 103.87 10.238 104.25L11.1011 105.452C12.0732 104.667 12.7156 104.105 13.0284 103.766C13.1965 104.642 13.385 105.474 13.5939 106.261Z" fill="#242424"/>
</svg>
