<svg width="800" height="800" viewBox="0 0 800 800" fill="none" xmlns="http://www.w3.org/2000/svg">
<g clip-path="url(#clip0_605_60)">
<rect width="800" height="800" fill="#31426E"/>
<path d="M673.553 323.15L674.614 322.089L674.614 322.089L673.553 323.15ZM674.307 793.797L673.244 792.74L675.37 794.856L674.307 793.797ZM202.149 323.15L201.088 322.089L201.088 322.089L202.149 323.15ZM202.149 794.554L201.088 795.615L201.088 795.615L202.149 794.554ZM672.794 795.311L673.852 796.374L671.736 794.247L672.794 795.311ZM-33.5534 794.553L-32.4927 793.493L-33.5534 794.553ZM-33.5534 87.4466L-34.6141 86.3859L-34.6141 86.3859L-33.5534 87.4466ZM673.553 87.4466L672.493 88.5073L672.493 88.5073L673.553 87.4466ZM672.492 324.211C801.83 453.549 802.081 663.092 673.244 792.74L675.371 794.855C805.374 664.034 805.121 452.597 674.614 322.089L672.492 324.211ZM203.209 324.211C332.798 194.622 542.903 194.622 672.492 324.211L674.614 322.089C543.853 191.329 331.848 191.329 201.088 322.089L203.209 324.211ZM203.209 793.494C73.6203 663.905 73.6203 453.8 203.209 324.211L201.088 322.089C70.3274 452.85 70.3274 664.854 201.088 795.615L203.209 793.494ZM671.736 794.247C542.088 923.082 332.547 922.831 203.209 793.494L201.088 795.615C331.595 926.122 543.03 926.375 673.851 796.375L671.736 794.247ZM671.735 794.248C476.999 988.169 161.931 987.917 -32.4927 793.493L-34.6141 795.614C160.98 991.208 477.943 991.462 673.852 796.374L671.735 794.248ZM-32.4927 793.493C-227.169 598.816 -227.169 283.184 -32.4927 88.5073L-34.6141 86.3859C-230.462 282.234 -230.462 599.766 -34.6141 795.614L-32.4927 793.493ZM-32.4927 88.5073C162.184 -106.169 477.816 -106.169 672.493 88.5073L674.614 86.3859C478.766 -109.462 161.234 -109.462 -34.6141 86.3859L-32.4927 88.5073ZM672.493 88.5073C866.918 282.933 867.169 598.003 673.245 792.739L675.37 794.856C870.462 598.948 870.209 281.981 674.614 86.3859L672.493 88.5073Z" fill="#FFB8A8"/>
<path d="M671.125 792.124C605.959 857.29 500.305 857.29 435.139 792.124C369.973 726.958 369.973 621.304 435.139 556.138C500.305 490.972 605.959 490.972 671.125 556.138C736.291 621.304 736.291 726.958 671.125 792.124Z" stroke="#FFB8A8" stroke-width="3"/>
</g>
<defs>
<clipPath id="clip0_605_60">
<rect width="800" height="800" fill="white"/>
</clipPath>
</defs>
</svg>
