<svg width="1600" height="800" viewBox="0 0 1600 800" fill="none" xmlns="http://www.w3.org/2000/svg">
<rect width="1600" height="800" fill="#232121"/>
<g filter="url(#filter0_d_829_242)">
<path d="M370.484 624.944C370.484 623.825 370.919 622.902 371.791 622.175C372.72 621.392 373.853 621 375.19 621C375.887 621 376.584 621.168 377.281 621.503C379.198 624.413 382.336 628.021 386.693 632.329C391.108 636.58 393.81 639.35 394.798 640.636C394.798 639.238 395.291 638.007 396.279 636.944C397.325 635.825 398.545 635.266 399.939 635.266C400.695 635.042 401.653 635.098 402.815 635.434C404.035 635.769 404.878 635.825 405.342 635.601C405.923 633.811 407.202 632.496 409.177 631.657C411.152 630.762 413.186 630.315 415.277 630.315C416.73 631.098 417.746 631.489 418.327 631.489C418.908 631.489 419.257 631.042 419.373 630.147C419.896 628.636 421 627.685 422.685 627.294C424.428 626.902 426.49 626.706 428.872 626.706C431.487 628.161 433.694 630.343 435.495 633.252C437.296 636.105 438.778 638.454 439.94 640.301C439.707 641.196 440.027 642.566 440.898 644.412C441.828 646.259 442.293 647.35 442.293 647.685C446.418 642.65 450.078 638.454 453.273 635.098C456.527 631.685 460.245 629.979 464.428 629.979C465.706 629.979 467.013 630.231 468.35 630.734C469.744 631.238 470.557 632.636 470.79 634.93C470.674 635.601 470.006 636.217 468.785 636.776C467.623 637.28 466.345 637.811 464.951 638.371C463.615 639.769 462.191 642.231 460.681 645.755C459.228 649.224 458.037 651.461 457.108 652.468C455.191 655.769 453.622 659.601 452.402 663.965C449.904 667.21 447.318 670.538 444.646 673.951C441.973 677.363 439.214 680.161 436.367 682.342C436.018 682.958 435.786 683.573 435.67 684.189C435.553 684.804 435.495 685.503 435.495 686.286C435.495 686.902 435.553 687.797 435.67 688.972C435.786 690.091 435.844 690.986 435.844 691.657C435.844 692.328 435.786 692.888 435.67 693.335C434.217 694.846 433.113 695.965 432.358 696.692C431.603 697.363 429.366 699.014 425.648 701.643C425.067 701.867 424.166 702.063 422.946 702.23C421.784 702.398 420.535 702.482 419.199 702.482C416.468 702.482 413.796 702.146 411.181 701.475C408.567 700.748 405.836 699.713 402.989 698.37C402.525 697.084 402.118 695.461 401.769 693.503C401.421 691.489 401.13 689.503 400.898 687.545C397.761 684.077 395.233 679.545 393.316 673.951C390.992 665.615 388.639 657.252 386.257 648.86C381.609 643.937 377.804 639.797 374.841 636.44C371.936 633.028 370.484 629.196 370.484 624.944ZM372.139 623.601C371.907 624.72 371.791 625.587 371.791 626.203C371.791 627.993 372.256 629.671 373.185 631.238C374.115 632.804 375.48 634.371 377.281 635.937C378.153 636.049 379.024 635.769 379.896 635.098C380.767 634.427 381.638 633.755 382.51 633.084C382.219 633.867 381.813 634.454 381.29 634.846C380.767 635.238 379.866 635.853 378.588 636.692C379.053 638.706 380.215 640.301 382.074 641.475C382.365 640.692 383.178 639.573 384.514 638.119C385.909 636.664 386.606 635.489 386.606 634.594C385.967 633.923 385.386 633.336 384.863 632.832C384.34 632.273 383.846 631.993 383.381 631.993C383.033 631.993 382.684 632.301 382.336 632.916L383.033 630.818C382.684 630.482 381.668 628.972 379.983 626.287C378.298 623.601 376.758 622.259 375.364 622.259C374.26 622.259 373.185 622.706 372.139 623.601ZM427.129 627.713C425.212 628.049 423.556 628.441 422.162 628.888C420.826 629.28 420.099 630.203 419.983 631.657L420.68 647.35C421.61 647.685 422.888 647.713 424.515 647.433C426.142 647.098 427.071 646.93 427.303 646.93C425.619 648.217 423.527 648.86 421.029 648.86C421.145 649.531 421.465 650.538 421.988 651.881C422.51 653.168 422.83 654.007 422.946 654.398L425.648 653.475C426.868 653.14 427.884 653.531 428.698 654.65C429.511 655.713 430.179 656.58 430.702 657.252C431.632 654.398 432.155 650.147 432.271 644.496C432.387 638.79 432.561 634.986 432.794 633.084C433.491 633.531 433.898 634.399 434.014 635.685C434.13 636.916 434.275 638.091 434.45 639.21L436.018 636.692C435.205 634.846 434.043 633.196 432.532 631.741C431.022 630.231 429.221 628.888 427.129 627.713ZM414.929 631.322C412.779 631.657 411.094 632.077 409.874 632.58C408.712 633.028 407.666 633.923 406.737 635.266C407.666 642.371 408.625 647.657 409.613 651.126C410.658 654.538 412.808 657.671 416.062 660.524C416.062 660.077 416.352 659.685 416.933 659.349C417.514 659.014 417.921 658.79 418.153 658.678C419.257 658.231 420.157 658.147 420.855 658.426C421.552 658.706 422.568 659.238 423.905 660.021L420.68 653.475C419.576 654.203 418.589 654.734 417.717 655.07C416.846 655.405 415.8 655.573 414.58 655.573C414.348 655.685 414.115 655.601 413.883 655.322C413.65 655.042 413.534 654.846 413.534 654.734C413.999 654.51 415.074 654.231 416.759 653.895C418.502 653.503 419.693 653.028 420.332 652.468C419.576 650.846 419.054 649.168 418.763 647.433C418.473 645.643 418.327 643.545 418.327 641.14C418.327 639.853 418.327 638.594 418.327 637.364C418.327 636.077 418.385 634.818 418.502 633.587C417.921 632.077 416.73 631.322 414.929 631.322ZM468.001 631.657C467.362 631.545 466.462 631.489 465.3 631.489C462.104 631.489 459.257 632.385 456.759 634.175C454.261 635.965 451.995 638.287 449.962 641.14C449.846 641.811 450.397 642.762 451.617 643.993C452.896 645.168 453.273 646.091 452.75 646.762C451.821 646.762 450.92 646.203 450.049 645.084C449.235 643.909 448.654 643.21 448.306 642.986C447.609 643.601 446.853 644.329 446.04 645.168C445.285 646.007 444.036 647.741 442.293 650.37C442.874 652.105 443.513 653.839 444.21 655.573C444.907 657.308 445.924 658.678 447.26 659.685C445.808 659.126 444.646 658.147 443.774 656.748C442.903 655.294 441.973 653.419 440.986 651.126C440.056 651.685 439.591 652.524 439.591 653.643C439.591 654.818 439.591 655.965 439.591 657.084C439.475 656.412 439.185 656.021 438.72 655.909C438.72 656.692 438.836 657.531 439.068 658.426C439.301 659.266 439.591 660.273 439.94 661.447C438.487 659.154 437.761 656.608 437.761 653.811L432.794 656.412C432.678 657.196 432.3 657.951 431.661 658.678C431.022 659.349 430.441 659.909 429.918 660.356C428.291 660.021 426.635 660.608 424.951 662.119C423.266 663.573 421.842 664.356 420.68 664.468C419.112 665.084 417.95 666.147 417.194 667.657C416.439 669.112 415.742 670.986 415.103 673.279C416.091 675.349 416.846 676.916 417.369 677.979C417.892 678.986 418.763 680.217 419.983 681.671C421.958 682.007 424.021 682.175 426.171 682.175C428.901 682.175 431.341 682.007 433.491 681.671C435.989 680.776 438.633 678.706 441.421 675.461C444.268 672.161 447.347 668.496 450.659 664.468C451.821 660.72 452.75 657.923 453.448 656.077C454.203 654.231 455.307 652.217 456.759 650.035L455.103 649.364C455.22 649.028 455.452 648.86 455.801 648.86C456.149 648.86 456.527 648.86 456.933 648.86L455.801 647.853C457.137 647.853 458.037 647.685 458.502 647.35C459.432 644.552 460.826 641.923 462.685 639.461C464.544 637 466.781 635.098 469.395 633.755L469.221 632.916L468.001 631.657ZM388.523 636.357C388.291 635.965 387.942 635.769 387.477 635.769C387.013 635.769 386.722 636.021 386.606 636.524C386.838 637.084 386.664 637.699 386.083 638.371C385.56 639.042 385.182 639.489 384.95 639.713L384.601 639.378C385.066 638.93 385.241 638.594 385.124 638.371C384.892 638.594 384.427 639.238 383.73 640.301L384.95 640.133C383.672 640.916 383.033 641.699 383.033 642.482C383.033 643.21 383.498 643.993 384.427 644.832C385.357 645.671 386.49 646.622 387.826 647.685C388.174 647.461 388.959 646.594 390.179 645.084C391.457 643.573 392.503 642.65 393.316 642.315L388.523 636.357ZM397.848 637.364C396.976 637.811 396.395 638.482 396.105 639.378C395.814 640.217 395.669 641.252 395.669 642.482C397.238 648.133 398.748 652.748 400.201 656.329C401.711 659.853 404.616 662.119 408.915 663.126C408.799 662.119 409.032 661.28 409.613 660.608C410.194 659.881 411.036 659.238 412.14 658.678C411.501 657.168 410.891 656.412 410.31 656.412C410.31 656.86 410.019 657.252 409.438 657.587C408.857 657.867 408.567 658.119 408.567 658.342C407.579 658.678 406.621 658.846 405.691 658.846C404.587 658.846 403.745 658.622 403.164 658.175C404.268 658.175 405.197 658.063 405.952 657.839C406.708 657.559 408.16 656.86 410.31 655.741C409.496 653.783 408.683 651.461 407.87 648.776C407.114 646.091 406.272 642.287 405.342 637.364C404.006 636.692 402.699 636.357 401.421 636.357C400.085 636.357 398.894 636.692 397.848 637.364ZM436.192 638.371L436.018 639.378C436.134 639.154 436.192 638.93 436.192 638.706V638.371ZM437.238 639.713C436.309 640.776 435.379 641.895 434.45 643.07C433.578 644.189 433.375 645.364 433.84 646.594C434.711 646.482 435.611 645.979 436.541 645.084C437.471 644.189 438.139 643.685 438.545 643.573C438.778 644.692 437.906 645.839 435.931 647.014C433.956 648.133 433.259 649.391 433.84 650.79C435.292 651.014 436.309 651.126 436.89 651.126C438.458 651.126 439.591 650.65 440.288 649.699C440.405 648.245 439.94 646.343 438.894 643.993C437.906 641.643 437.354 640.217 437.238 639.713ZM394.798 643.909C393.81 644.357 392.764 644.972 391.66 645.755C390.556 646.538 389.511 647.294 388.523 648.021C388.174 649.252 388.145 650.37 388.436 651.377C388.726 652.329 389.307 653.727 390.179 655.573C390.992 655.685 392.212 655.461 393.839 654.902C395.524 654.287 396.86 654.175 397.848 654.566C396.512 652.608 395.262 650.65 394.1 648.692C395.146 649.979 396.018 650.846 396.715 651.294C396.715 650.343 396.308 649.252 395.495 648.021C394.681 646.734 394.217 645.923 394.1 645.587L395.146 645.923L394.798 643.909ZM435.67 652.468L434.188 651.797L433.665 652.468H435.67ZM423.556 656.245L424.776 659.014C427.274 659.238 428.814 658.706 429.395 657.419C429.395 656.077 428.814 655.405 427.652 655.405C427.013 655.405 426.316 655.517 425.561 655.741C424.805 655.965 424.137 656.133 423.556 656.245ZM394.275 655.573C392.59 656.021 391.486 656.44 390.963 656.832C390.44 657.224 390.353 657.895 390.702 658.846C392.968 665.951 395.233 673.056 397.499 680.161C398.661 682.454 399.765 684.161 400.811 685.279C401.915 686.342 403.367 686.874 405.168 686.874C405.865 686.874 406.388 686.818 406.737 686.706C408.073 686.706 409.671 686.175 411.53 685.112C413.447 683.993 414.812 683.433 415.626 683.433C415.277 683.993 415.016 684.44 414.841 684.776C414.667 685.112 414.696 685.503 414.929 685.951C416.032 684.944 416.584 683.853 416.584 682.678C416.584 681.559 416.207 680.468 415.451 679.405C414.754 678.286 414.115 677.224 413.534 676.217C413.767 674.147 414.057 672.077 414.406 670.007C414.406 669.671 414.783 668.888 415.539 667.657C416.352 666.37 416.759 665.503 416.759 665.056C416.759 664.328 416.265 663.797 415.277 663.461C414.812 664.245 413.912 664.72 412.576 664.888C411.297 665 410.368 665.168 409.787 665.391C404.674 663.657 400.985 660.608 398.719 656.245L394.275 655.573ZM420.506 659.685C420.39 659.909 419.635 660.217 418.24 660.608C416.904 661 416.642 661.783 417.456 662.958C418.618 663.294 419.576 663.294 420.332 662.958C421.145 662.622 422.104 662.119 423.208 661.447C422.685 660.832 422.249 660.328 421.9 659.937C421.552 659.545 421.087 659.461 420.506 659.685ZM412.837 660.692C412.605 660.916 411.995 661.196 411.007 661.531C410.077 661.811 409.845 662.398 410.31 663.294H411.704C412.343 662.958 412.866 662.65 413.273 662.37C413.68 662.091 413.825 661.643 413.709 661.028L412.837 660.692ZM418.85 683.769L418.502 684.44C418.734 685.447 418.937 687.881 419.112 691.741C419.286 695.601 420.041 698.426 421.377 700.216C423.179 700.328 424.805 699.993 426.258 699.209C427.768 698.426 429.046 697.223 430.092 695.601C429.744 695.042 429.511 694.37 429.395 693.587C429.279 692.748 429.221 691.881 429.221 690.986V688.049C429.221 687.601 429.221 687.098 429.221 686.538C428.988 686.035 428.872 685.727 428.872 685.615L424.253 686.538C422.336 686.258 421.261 685.671 421.029 684.776C421.377 684.552 421.813 684.58 422.336 684.86C422.917 685.14 423.324 685.223 423.556 685.112C424.718 685.112 425.735 685.084 426.606 685.028C427.536 684.972 428.291 684.72 428.872 684.272C425.793 684.272 422.452 684.105 418.85 683.769ZM417.107 683.769C416.759 685.112 416.584 686.482 416.584 687.881C416.584 689.503 416.788 691.825 417.194 694.846C417.601 697.867 417.804 699.769 417.804 700.552H419.983C419.112 698.762 418.473 695.825 418.066 691.741C417.659 687.657 417.34 685 417.107 683.769ZM431.051 684.105C431.167 684.328 430.789 684.832 429.918 685.615V689.391C429.918 692.021 430.354 693.811 431.225 694.762C431.574 693.475 431.748 692.272 431.748 691.154C431.632 688.972 431.574 687.237 431.574 685.951V684.272L431.051 684.105ZM413.534 685.615C411.617 686.566 409.99 687.293 408.654 687.797C407.376 688.3 406.04 688.552 404.645 688.552C406.156 688.552 407.231 688.496 407.87 688.384C408.567 688.272 410.455 687.769 413.534 686.874V685.615ZM433.142 685.951V689.559C433.142 690.958 433.259 691.937 433.491 692.496L433.142 685.951ZM415.277 686.874C415.045 688.44 414.929 689.699 414.929 690.65C414.929 693.615 415.422 696.356 416.41 698.874C416.526 698.314 416.584 697.391 416.584 696.105C416.584 694.762 416.526 693.279 416.41 691.657C416.294 690.035 416.178 688.44 416.062 686.874H415.277ZM414.057 687.713C412.488 688.272 410.658 688.832 408.567 689.391C406.533 689.895 404.674 690.202 402.989 690.314L404.645 697.531L415.277 700.216L414.057 687.713Z" fill="#CD4138"/>
</g>
<g filter="url(#filter1_d_829_242)">
<path d="M111.623 603.32C112.755 602.799 113.916 602.914 115.107 603.667C116.298 604.362 117.192 605.926 117.787 608.359C118.442 610.792 118.859 613.803 119.038 617.394C119.216 620.928 119.306 625.764 119.306 631.903C119.306 632.251 119.097 633.496 118.68 635.639C118.264 637.782 118.115 639.317 118.234 640.244C120.199 638.159 122.462 637.116 125.023 637.116C125.857 637.116 126.75 637.29 127.703 637.638C129.073 639.549 130.204 641.605 131.097 643.806C132.05 645.949 132.527 648.092 132.527 650.235C132.527 651.799 132.259 653.218 131.723 654.492C132.616 656.404 133.599 658.402 134.671 660.487C135.802 662.572 137.083 664.31 138.512 665.7C138.512 667.611 137.857 670.797 136.547 675.257C135.296 679.717 134.671 682.96 134.671 684.987C131.157 689.853 127.614 694.689 124.04 699.496C122.611 699.67 121.509 700.336 120.735 701.495C119.663 704.448 118.859 706.389 118.323 707.315C117.787 708.184 117.46 709.777 117.34 712.094C117.221 714.411 116.656 715.975 115.643 716.785C110.641 717.886 105.698 718.957 100.814 720C99.6231 720 98.164 719.768 96.4369 719.305C94.7099 718.842 92.3575 717.712 89.3798 715.917C86.4021 714.121 84.3772 712.992 83.3053 712.528C84.139 710.964 84.7941 708.445 85.2705 704.97C85.747 701.495 86.3723 698.975 87.1465 697.411C85.5385 693.473 83.9306 689.505 82.3226 685.509C80.7742 680.875 80 676.647 80 672.824C80 670.333 80.3573 667.843 81.072 665.352C82.9182 656.606 84.8239 647.774 86.7892 638.854C86.6105 637.811 86.5212 636.971 86.5212 636.334V634.771C87.2954 631.932 87.8909 629.818 88.3078 628.428C88.7247 626.98 89.4393 625.88 90.4518 625.127C90.8091 624.895 91.4642 624.837 92.417 624.953C93.3699 625.069 94.0548 625.127 94.4717 625.127C95.3054 625.127 95.8414 624.634 96.0796 623.65C96.3178 622.665 96.4369 621.449 96.4369 620.001C96.3178 617.858 96.2583 616.265 96.2583 615.222C96.2583 613.427 96.4965 612.008 96.9729 610.965C97.4494 609.865 98.164 609.141 99.1169 608.793C100.129 608.446 100.844 608.272 101.261 608.272C101.737 608.272 102.035 608.272 102.154 608.272C104.179 608.272 105.757 609.025 106.889 610.531C107.365 608.677 107.812 607.114 108.229 605.839C108.646 604.507 109.777 603.667 111.623 603.32ZM109.211 605.579C108.854 606.679 108.616 608.069 108.497 609.749C108.378 611.371 108.318 612.297 108.318 612.529C108.318 613.34 108.378 614.759 108.497 616.786C108.616 618.814 108.675 620.406 108.675 621.565C109.45 621.449 110.819 621.217 112.785 620.87C114.809 620.522 116.388 620.406 117.519 620.522V610.965C117.519 610.328 117.519 609.662 117.519 608.967C117.281 608.156 117.043 607.143 116.804 605.926C116.626 604.652 115.375 604.015 113.053 604.015C111.623 604.015 110.343 604.536 109.211 605.579ZM100.278 609.315C99.0871 610.299 98.2533 611.429 97.7769 612.703C97.36 613.919 97.1516 615.454 97.1516 617.308C97.1516 618.061 97.2111 619.306 97.3303 621.043C97.4494 622.723 97.5089 624.026 97.5089 624.953L102.869 624.084C104.298 624.2 105.132 624.2 105.37 624.084C105.37 622.289 105.43 620.609 105.549 619.045C105.727 617.423 105.876 615.773 105.995 614.093C105.995 612.703 105.936 611.66 105.817 610.965C105.162 609.865 103.315 609.315 100.278 609.315ZM117.519 621.565C116.268 621.333 115.345 621.217 114.75 621.217C112.189 621.217 110.164 621.767 108.675 622.868C107.365 625.706 106.71 628.312 106.71 630.687C106.71 631.266 106.829 632.048 107.067 633.033C108.02 633.033 109.628 632.917 111.891 632.685C114.154 632.396 115.345 632.251 115.464 632.251C116.298 632.251 116.983 632.309 117.519 632.425C117.757 631.614 117.936 630.311 118.055 628.515C118.174 626.662 118.234 625.301 118.234 624.432L117.519 621.565ZM104.834 625.127C103.405 624.895 102.363 624.837 101.707 624.953C101.112 625.069 99.6529 625.503 97.3303 626.256C96.8538 627.067 96.7049 628.052 96.8836 629.21C97.0623 630.311 97.0325 631.556 96.7943 632.946C96.5561 634.278 96.4369 635.118 96.4369 635.466C96.4369 636.161 96.6156 636.885 96.9729 637.638L105.817 636.161L105.37 626.256L104.834 625.127ZM91.7024 625.909C90.3326 626.14 89.5287 626.893 89.2904 628.168L87.3252 637.638C87.6825 638.101 88.2185 638.333 88.9331 638.333C90.5411 638.333 92.1788 638.333 93.8463 638.333C93.0126 638.333 92.3575 638.391 91.8811 638.506C91.4046 638.854 90.6304 639.172 89.5584 639.462C88.546 639.752 87.8611 640.012 87.5038 640.244C87.5038 645.862 86.5212 651.509 84.5559 657.186C86.4021 656.491 88.3078 655.738 90.2731 654.927C92.2979 654.058 93.9357 652.986 95.1863 651.712L95.7223 628.515C95.4841 627.588 95.0076 626.835 94.293 626.256C93.6379 625.619 92.7744 625.503 91.7024 625.909ZM107.246 635.466L107.067 647.194L107.603 647.976C108.08 647.86 108.854 647.774 109.926 647.716C111.057 647.6 112.1 647.484 113.053 647.368C114.541 647.368 115.584 647.31 116.179 647.194C116.179 645.457 116.388 643.198 116.804 640.418C117.281 637.58 117.638 635.466 117.876 634.075C116.626 633.844 115.703 633.728 115.107 633.728C112.308 633.728 109.688 634.307 107.246 635.466ZM105.37 637.638C104.06 637.522 102.392 637.84 100.368 638.593C98.3427 639.346 97.092 639.781 96.6156 639.896C96.7347 643.835 96.9134 647.716 97.1516 651.538L104.655 648.324L106.174 639.723L105.37 637.638ZM126.988 638.506C125.797 638.275 124.814 638.159 124.04 638.159C122.015 638.159 120.497 638.854 119.484 640.244C119.246 641.229 119.127 641.953 119.127 642.416C119.127 643.227 119.276 644.385 119.574 645.891C119.871 647.397 120.02 648.324 120.02 648.671C120.497 649.482 120.735 651.046 120.735 653.363C120.735 655.68 121.241 657.301 122.254 658.228C122.611 657.649 122.849 657.301 122.968 657.186C122.373 656.838 122.254 656.172 122.611 655.187C122.968 654.145 123.087 653.276 122.968 652.581C122.968 650.901 124.308 650.061 126.988 650.061C128.12 649.946 128.834 650.496 129.132 651.712C129.43 652.871 129.817 653.508 130.293 653.624C130.532 652.928 130.77 652.089 131.008 651.104C131.246 650.061 131.365 648.961 131.365 647.803C131.365 646.123 131.008 644.617 130.293 643.285L126.988 638.506ZM107.603 648.671L107.067 649.019C104.387 649.366 101.082 650.641 97.1516 652.842C93.2806 655.043 90.422 656.433 88.5758 657.012C85.6576 657.012 83.8412 658.373 83.1266 661.095C82.7097 664.802 82.3822 667.351 82.1439 668.741C82.3822 668.741 82.7097 668.596 83.1266 668.306C83.603 668.017 83.9604 668.046 84.1986 668.393C82.3524 669.841 81.4293 671.695 81.4293 673.953C81.4293 674.996 81.608 676.212 81.9653 677.602C82.3226 678.935 82.6204 680.006 82.8586 680.817C83.1564 681.57 84.139 684.495 85.8065 689.592C87.5336 694.689 89.2607 697.672 90.9877 698.541C92.7744 699.351 93.9952 699.815 94.6503 699.931C95.365 700.047 96.1392 700.104 96.9729 700.104C98.2236 700.104 100.248 699.786 103.047 699.149C100.725 700.828 98.0449 701.668 95.0076 701.668C93.9952 701.668 93.2508 701.61 92.7744 701.495L94.293 702.016C95.0076 702.132 95.9605 702.19 97.1516 702.19C98.8787 702.19 100.546 701.784 102.154 700.973C103.107 701.552 103.911 701.35 104.566 700.365C105.221 699.323 105.638 698.801 105.817 698.801L106.174 699.149C105.4 703.782 104.715 708.416 104.119 713.05C104.119 713.86 104.239 715.106 104.477 716.785L103.941 717.307C103.107 715.801 102.69 714.208 102.69 712.528C102.69 711.833 102.809 710.53 103.047 708.619C103.286 706.707 103.405 705.636 103.405 705.404C102.571 707.2 101.886 709.459 101.35 712.181C100.874 714.903 100.516 716.728 100.278 717.654C102.601 717.886 104.596 717.799 106.263 717.394C107.99 716.988 109.658 716.496 111.266 715.917C111.028 714.353 111.325 712.036 112.159 708.966C113.053 705.896 113.559 703.811 113.678 702.711H111.981C111.266 702.711 110.492 702.624 109.658 702.45C108.884 702.276 108.437 701.784 108.318 700.973C110.045 701.205 111.832 701.379 113.678 701.495C113.44 700.915 112.755 700.568 111.623 700.452C110.551 700.336 109.509 700.075 108.497 699.67C107.544 699.207 106.74 698.019 106.085 696.108C105.489 694.139 105.013 692.662 104.655 691.677C105.132 692.082 105.608 692.922 106.085 694.197C106.621 695.413 107.067 696.137 107.425 696.369C107.067 694.805 106.74 693.299 106.442 691.851C106.144 690.345 105.995 688.81 105.995 687.246C105.995 686.204 106.055 685.364 106.174 684.727L104.655 691.677L103.941 690.982C103.822 690.519 103.762 689.824 103.762 688.897C103.762 686.754 104.387 684.408 105.638 681.86C106.948 679.311 107.961 677.371 108.675 676.039C111.236 674.649 113.44 673.49 115.286 672.563C117.132 671.579 118.948 670.971 120.735 670.739C121.271 670.276 121.211 669.03 120.556 667.003C119.961 664.976 119.782 663.615 120.02 662.92L117.34 663.962L110.373 665.7C106.68 667.959 103.941 669.841 102.154 671.347C100.427 672.795 99.2062 674.706 98.4916 677.081H96.9729C97.3303 676.618 97.3898 675.865 97.1516 674.822C96.9134 673.722 96.9134 672.882 97.1516 672.303L98.4916 674.301C101.291 670.942 104.507 668.335 108.139 666.482C111.832 664.57 115.911 663.064 120.378 661.964L121.182 660.053C120.288 659.589 119.306 659.358 118.234 659.358C115.911 659.705 114.184 659.879 113.053 659.879C114.065 659.531 115.196 659.213 116.447 658.923C117.757 658.576 118.829 658.402 119.663 658.402C119.663 657.823 119.604 656.722 119.484 655.1C119.365 653.421 119.306 652.089 119.306 651.104C117.46 650.641 116.417 649.946 116.179 649.019L107.603 648.671ZM124.219 652.581C123.862 652.928 123.683 653.508 123.683 654.319C123.683 655.072 123.802 655.68 124.04 656.143L125.202 655.448C125.082 656.259 124.576 657.388 123.683 658.836C122.849 660.226 122.283 661.327 121.986 662.138C121.688 662.891 121.539 663.846 121.539 665.005C121.539 666.8 121.926 668.393 122.7 669.783C123.475 671.115 124.725 672.737 126.452 674.649C125.618 674.417 124.934 674.359 124.398 674.475C124.517 675.17 124.666 675.807 124.844 676.386H123.326C122.968 676.965 122.79 677.516 122.79 678.037C122.79 678.616 122.998 679.427 123.415 680.469C123.832 681.454 124.04 682.12 124.04 682.468C123.087 682.236 122.432 681.512 122.075 680.296C121.718 679.021 121.479 678.095 121.36 677.516C121.36 676.763 121.539 675.72 121.896 674.388C122.254 672.998 122.373 672.013 122.254 671.434C116.298 672.592 111.534 675.083 107.961 678.906C107.246 681.396 106.889 684.234 106.889 687.42C106.889 690.374 107.365 693.154 108.318 695.76C109.45 697.208 110.938 698.135 112.785 698.541C114.69 698.946 116.983 699.149 119.663 699.149C122.105 698.801 124.398 696.948 126.542 693.588C128.686 690.229 130.055 688.289 130.651 687.767C130.293 687.072 130.651 686.464 131.723 685.943C132.854 685.422 133.48 684.9 133.599 684.379L136.189 672.303C135.892 672.303 135.356 672.505 134.581 672.911C133.807 673.316 133.301 673.519 133.063 673.519C132.705 673.519 132.378 673.172 132.08 672.477C135.177 671.666 137.023 669.841 137.619 667.003C137.261 666.134 136.666 665.265 135.832 664.397C135.058 663.528 134.194 662.601 133.241 661.616C132.586 661.848 131.723 662.514 130.651 663.615C129.579 664.657 128.596 665.179 127.703 665.179C126.988 664.947 126.214 664.397 125.38 663.528C124.606 662.601 124.546 661.559 125.202 660.4C125.797 659.473 126.482 658.634 127.256 657.881C128.03 657.07 128.805 656.78 129.579 657.012C127.971 658.054 126.929 658.807 126.452 659.271C125.976 659.676 125.678 660.4 125.559 661.443C125.916 662.891 126.75 663.731 128.06 663.962C128.596 663.731 129.102 663.122 129.579 662.138C131.365 662.138 132.259 661.443 132.259 660.053C132.259 659.821 132.14 659.126 131.901 657.968C131.663 656.751 131.663 655.969 131.901 655.622C131.306 655.1 130.591 654.84 129.757 654.84C129.043 654.84 128.269 655.043 127.435 655.448C126.661 655.796 126.095 656.027 125.738 656.143C125.38 655.39 125.857 654.782 127.167 654.319C128.537 653.855 128.834 653.16 128.06 652.233C127.703 652.002 127.018 651.944 126.006 652.06C125.053 652.176 124.457 652.349 124.219 652.581ZM88.9331 699.496C87.9803 700.713 87.2954 702.798 86.8785 705.752C86.5212 708.706 86.1639 710.559 85.8065 711.312C89.8562 713.281 93.9654 715.28 98.1342 717.307L100.993 703.058C100.397 703.058 99.3551 703.145 97.8662 703.319C96.4369 703.435 95.365 703.493 94.6503 703.493C93.6379 703.493 92.8339 703.435 92.2384 703.319C91.6428 703.145 91.226 702.479 90.9877 701.321C90.7495 700.104 90.0646 699.496 88.9331 699.496ZM114.035 715.048L114.929 714.266C114.929 712.992 115.405 710.617 116.358 707.142C117.37 703.609 117.876 701.784 117.876 701.668C116.983 703.927 116.12 706.215 115.286 708.532C114.452 710.849 114.035 713.021 114.035 715.048ZM100.636 711.312C101.529 708.416 102.392 705.549 103.226 702.711C102.631 703.811 102.095 705.143 101.618 706.707C101.201 708.213 100.874 709.748 100.636 711.312ZM112.159 715.395C113.172 712.441 113.946 709.951 114.482 707.924C115.018 705.896 115.405 704.159 115.643 702.711C113.797 706.534 112.695 709.14 112.338 710.53C111.981 711.862 111.921 713.484 112.159 715.395ZM95.7223 665.352C98.2831 665.121 101.529 664.252 105.459 662.746C109.45 661.182 111.981 660.284 113.053 660.053C112.1 660.284 109.45 661.298 105.102 663.093C100.814 664.831 97.3303 665.7 94.6503 665.7C92.5659 665.7 90.7197 665.874 89.1118 666.221C87.5634 666.511 86.0447 667.061 84.5559 667.872C86.0447 666.945 87.5634 666.25 89.1118 665.787C90.7197 665.265 92.1788 665.005 93.489 665.005C94.025 665.005 94.7694 665.121 95.7223 665.352ZM121.896 646.499C122.73 645.457 124.07 644.935 125.916 644.935C127.226 644.935 128.209 645.283 128.864 645.978L121.896 646.499ZM107.961 650.409C108.318 651.509 108.139 652.928 107.425 654.666C107.306 654.319 107.425 653.652 107.782 652.668C108.139 651.625 108.199 650.872 107.961 650.409ZM88.5758 648.671C88.9331 647.918 89.4989 647.397 90.2731 647.108C91.1068 646.818 92.2384 646.615 93.6677 646.499C92.8339 646.615 91.9108 646.992 90.8984 647.629C89.9455 648.208 89.1713 648.556 88.5758 648.671ZM129.936 656.838C130.77 656.375 131.306 656.143 131.544 656.143C130.71 656.722 130.174 656.954 129.936 656.838Z" fill="#CD4138"/>
</g>
<g filter="url(#filter2_d_829_242)">
<path d="M295.693 623.493L310.472 628.658C309.973 633.645 309.598 637.89 309.349 641.393C309.1 644.895 307.884 647.805 305.701 650.12L299.995 658.936H298.592C295.412 656.502 292.731 654.483 290.548 652.88C288.365 651.278 285.996 650.12 283.439 649.407L281.194 657.778C280.446 658.55 277.079 661.667 271.092 667.129C265.168 672.591 261.832 677.993 261.084 683.336C260.148 684.523 259.275 686.839 258.465 690.282C257.654 693.666 256.875 695.922 256.126 697.05C254.941 697.762 253.663 698.119 252.291 698.119C250.483 698.119 248.737 697.555 247.053 696.427C245.182 694.527 244.247 691.796 244.247 688.234C244.247 687.047 244.341 685.77 244.528 684.405C244.715 682.98 245.058 681.525 245.557 680.041C243.125 680.279 240.693 680.457 238.261 680.575C237.886 680.694 237.512 680.486 237.138 679.952C236.764 679.418 236.39 679.21 236.016 679.329C235.08 680.516 233.708 684.316 231.9 690.727C230.154 697.08 227.286 700.998 223.295 702.482C221.299 702.482 219.709 701.888 218.524 700.701C221.58 685.978 224.729 671.255 227.971 656.532C228.221 655.285 228.034 653.712 227.41 651.812C226.849 649.853 226.568 648.576 226.568 647.983C226.568 647.33 226.755 646.528 227.13 645.578C231.37 641.957 237.263 638.246 244.808 634.447C252.354 630.588 258.028 627.679 261.832 625.72C269.627 624.117 277.484 622.544 285.403 621C289.207 621 292.637 621.831 295.693 623.493ZM277.733 623.315C277.11 623.434 275.488 623.761 272.869 624.295C270.25 624.77 267.288 625.304 263.983 625.898C260.741 626.492 258.184 627.887 256.313 630.083C255.129 630.677 254.1 631.271 253.227 631.864C252.354 632.399 251.449 632.666 250.514 632.666C248.331 633.616 245.588 635.1 242.283 637.118C238.978 639.137 236.421 640.621 234.613 641.571C235.361 641.571 236.452 641.244 237.886 640.591C239.321 639.879 240.287 639.523 240.786 639.523C239.975 640.413 238.229 641.393 235.548 642.461C232.867 643.471 231.276 644.806 230.778 646.469C230.778 649.675 230.185 653.504 229 657.956C227.878 662.35 226.631 667.218 225.259 672.561C225.633 672.68 226.101 672.769 226.662 672.828C227.223 672.887 227.504 673.095 227.504 673.451C227.005 673.986 226.506 674.253 226.007 674.253L227.13 675.321C227.005 675.796 226.568 675.974 225.82 675.856C225.072 675.737 224.386 677.162 223.762 680.13C223.201 683.099 222.484 687.254 221.611 692.597C221.611 694.082 221.798 695.566 222.172 697.05C221.424 698.237 220.738 699.365 220.114 700.434C220.613 700.968 221.361 701.235 222.359 701.235C222.733 701.235 223.108 701.235 223.482 701.235C224.043 700.998 224.573 700.76 225.072 700.523C225.571 700.226 226.07 699.781 226.568 699.187C227.067 698.594 227.66 697.673 228.346 696.427C228.969 694.646 229.593 692.835 230.216 690.994C230.216 690.163 229.78 689.481 228.907 688.946C230.154 688.115 231.152 686.809 231.9 685.028C232.711 683.188 233.428 681.407 234.051 679.685C234.051 679.329 233.833 679.121 233.397 679.062C232.96 679.002 232.555 678.913 232.181 678.794L231.994 677.281L234.987 676.746C236.172 673.125 237.325 669.414 238.448 665.615C238.448 664.19 238.136 662.914 237.512 661.786C237.886 661.429 238.385 661.578 239.009 662.231C239.695 662.825 240.287 662.914 240.786 662.498L239.757 664.19C242.439 664.784 244.621 663.923 246.305 661.607C244.808 660.776 243.779 660.005 243.218 659.292C242.096 659.292 241.534 658.847 241.534 657.956C241.784 657.125 241.971 656.443 242.096 655.908C242.22 655.374 242.22 654.899 242.096 654.483C242.47 654.483 242.844 654.81 243.218 655.463C242.969 657.244 244.091 658.698 246.585 659.826C249.08 660.895 250.514 661.934 250.888 662.943C250.763 661.934 250.171 660.806 249.111 659.559C248.113 658.253 247.552 657.422 247.427 657.066L251.636 660.539C251.636 659.945 251.387 659.114 250.888 658.045C250.389 656.917 250.14 656.057 250.14 655.463C251.013 656.65 251.792 657.57 252.478 658.224C253.227 658.817 253.601 659.53 253.601 660.361C253.601 660.954 253.476 661.667 253.227 662.498C252.977 663.27 252.697 664.279 252.385 665.526C252.073 666.713 250.857 669.889 248.737 675.054C246.617 680.219 245.557 684.197 245.557 686.987C245.557 689.303 245.993 691.499 246.866 693.577C247.49 691.737 248.051 690.223 248.55 689.035C249.111 687.789 250.14 687.165 251.636 687.165C254.193 687.165 255.752 687.967 256.313 689.57C257.311 686.601 258.309 683.663 259.307 680.754C258.683 680.872 258.028 680.932 257.342 680.932C256.656 680.932 256.189 680.932 255.939 680.932C254.131 680.932 252.697 680.575 251.636 679.863C251.948 679.744 252.26 679.685 252.572 679.685C252.884 679.685 253.227 679.685 253.601 679.685L252.104 678.438C252.603 677.904 253.289 677.637 254.162 677.637C254.786 677.637 255.752 677.934 257.062 678.527C258.433 679.062 259.525 679.21 260.335 678.973C260.71 677.013 262.019 674.579 264.264 671.67C266.571 668.761 267.881 667.069 268.193 666.594L266.415 665.081L263.516 662.498C264.451 662.795 265.667 663.329 267.164 664.101C268.723 664.873 269.752 665.259 270.25 665.259C271.248 665.259 272.215 664.606 273.15 663.299C276.455 661.578 278.981 657.867 280.727 652.168C282.535 646.409 284.53 642.699 286.713 641.037C290.454 640.68 293.759 641.393 296.628 643.174C299.496 644.895 302.147 646.439 304.579 647.805C305.951 646.202 306.855 644.391 307.291 642.372C307.79 640.354 308.04 637.949 308.04 635.159V630.618C308.04 629.668 307.011 629.015 304.953 628.658C302.895 628.243 299.559 627.056 294.944 625.096C290.392 623.078 286.775 622.069 284.094 622.069C281.787 622.069 279.667 622.484 277.733 623.315ZM289.8 643.174V643.975L301.492 652.702C301.492 652.584 301.741 652.287 302.24 651.812C302.739 651.278 302.864 650.832 302.614 650.476C301.242 648.695 299.559 647.33 297.563 646.38C295.568 645.37 292.98 644.302 289.8 643.174ZM288.864 645.044C290.112 646.231 291.546 647.448 293.167 648.695C294.851 649.882 296.347 650.803 297.657 651.456C296.909 650.446 295.848 649.407 294.477 648.339C293.167 647.211 291.296 646.113 288.864 645.044ZM228.907 645.578C228.408 646.053 228.159 646.587 228.159 647.181C228.159 647.834 228.346 648.339 228.72 648.695L228.907 645.578ZM289.8 649.051L286.9 647.626L290.735 650.12L289.8 649.051ZM294.57 651.278L299.528 655.641C299.715 655.522 299.808 655.404 299.808 655.285C299.808 655.166 299.871 654.84 299.995 654.305C298.686 653.83 297.563 653.296 296.628 652.702C295.755 652.109 295.069 651.634 294.57 651.278ZM247.427 662.943V663.656C248.363 663.656 248.83 663.537 248.83 663.299C248.144 663.062 247.677 662.943 247.427 662.943ZM240.599 666.594L236.951 677.281L237.886 678.794C238.884 679.032 239.664 679.151 240.225 679.151C241.223 679.151 242.314 678.913 243.499 678.438C244.746 677.904 245.681 677.518 246.305 677.281C247.49 673.303 248.706 669.296 249.953 665.259C248.83 665.259 247.988 665.259 247.427 665.259C247.178 667.336 246.804 668.939 246.305 670.067C245.806 671.136 244.777 672.086 243.218 672.917C243.904 671.848 244.559 670.75 245.182 669.622C245.806 668.435 246.118 667.218 246.118 665.971C246.118 665.377 246.055 664.902 245.931 664.546C245.307 664.784 244.403 665.14 243.218 665.615C242.096 666.09 241.223 666.416 240.599 666.594ZM254.162 688.768C253.289 688.412 252.634 688.204 252.198 688.145C251.824 688.085 251.449 688.293 251.075 688.768C252.011 689.54 253.164 689.659 254.536 689.124L254.162 688.768ZM249.017 690.638C248.643 692.063 248.456 692.924 248.456 693.221C248.456 693.814 248.768 694.289 249.392 694.646C250.888 694.883 252.042 695.002 252.852 695.002C253.601 695.002 254.224 694.764 254.723 694.289C255.347 692.568 255.347 691.351 254.723 690.638C254.349 690.876 253.725 690.846 252.852 690.549C252.042 690.252 251.2 689.926 250.327 689.57C249.828 689.57 249.392 689.926 249.017 690.638ZM248.082 694.646C249.703 696.486 251.418 697.08 253.227 696.427C251.792 696.189 250.732 695.981 250.046 695.803C249.36 695.625 248.706 695.239 248.082 694.646ZM221.05 697.584V695.714L220.301 697.941L221.05 697.584ZM253.601 676.39C255.908 676.39 257.81 677.132 259.307 678.616L253.601 676.39ZM285.778 623.137C286.651 622.9 287.617 623.019 288.677 623.493C289.924 624.384 290.797 625.007 291.296 625.364L285.778 623.137ZM262.954 663.656L266.041 664.724C265.542 664.843 265.012 664.784 264.451 664.546C263.952 664.309 263.453 664.012 262.954 663.656ZM276.611 650.832C277.359 647.805 278.419 645.044 279.791 642.55C281.225 640.057 283.159 638.098 285.591 636.673C283.533 638.335 281.818 640.888 280.446 644.332C280.321 644.213 280.259 644.035 280.259 643.797C279.448 644.51 278.762 645.578 278.201 647.003C277.64 648.369 277.11 649.645 276.611 650.832ZM241.347 672.383C241.597 672.501 241.815 672.858 242.002 673.451C242.189 673.986 242.532 674.104 243.031 673.808C242.033 674.579 241.41 674.461 241.16 673.451L241.347 672.383Z" fill="#CD4138"/>
</g>
<g filter="url(#filter3_d_829_242)">
<path d="M580.152 603.548C581.152 603.183 582.058 603 582.871 603C585.059 603 586.653 603.943 587.653 605.829C588.153 607.411 588.528 609.48 588.779 612.035C589.029 614.59 589.154 616.811 589.154 618.697V622.987C591.717 627.246 594.248 633.725 596.749 642.426C599.249 651.126 601 656.724 602 659.218C602 664.998 601.031 670.718 599.093 676.376C597.218 682.034 595.655 686.719 594.405 690.431C593.217 692.317 592.404 694.568 591.967 697.184C591.529 699.8 591.31 702.721 591.31 705.945V711.239C589.747 713.368 587.747 715.163 585.309 716.623C582.871 718.023 579.183 719.148 574.244 720L561.304 716.441C561.304 714.98 560.992 712.608 560.366 709.322C559.741 705.976 559.429 703.664 559.429 702.386C556.741 699.77 554.928 697.062 553.99 694.264C553.115 691.465 552.052 686.537 550.802 679.479C550.802 674.733 551.146 670.231 551.833 665.972C552.521 661.713 553.646 657.241 555.209 652.556C557.272 651.522 559.304 650.457 561.304 649.362C561.054 647.841 560.929 646.654 560.929 645.803C560.929 644.525 561.273 643.399 561.961 642.426C562.711 641.452 563.648 640.753 564.774 640.327C565.961 639.84 567.43 639.597 569.181 639.597H571.15C571.9 640.388 572.588 641.3 573.213 642.335C573.9 643.369 574.557 644.525 575.182 645.803C575.682 644.525 575.995 642.669 576.12 640.236C576.245 637.741 576.307 636.281 576.307 635.855L577.245 626.911C576.12 623.443 575.026 619.884 573.963 616.233C573.963 614.165 574.869 612.552 576.682 611.396C576.932 609.267 577.214 607.594 577.526 606.377C577.839 605.099 578.714 604.156 580.152 603.548ZM580.714 604.278C578.901 605.92 578.214 608.05 578.651 610.666C580.402 610.666 582.058 611.609 583.621 613.495C584.746 615.199 585.965 616.872 587.278 618.515V613.86C587.278 611.001 587.091 608.871 586.716 607.472C586.341 606.012 585.528 605.099 584.278 604.734C583.09 604.308 581.902 604.156 580.714 604.278ZM577.808 611.944C576.057 613.222 575.182 614.651 575.182 616.233C575.182 617.268 575.745 619.002 576.87 621.435C578.058 623.869 578.651 625.39 578.651 625.998C579.152 627.215 579.902 627.824 580.902 627.824C583.34 627.094 585.778 626.363 588.216 625.633L585.122 618.515C584.121 617.115 583.059 615.686 581.933 614.225C580.871 612.704 579.495 611.944 577.808 611.944ZM588.966 626.911C587.466 626.546 586.028 626.698 584.653 627.367C583.34 628.037 582.09 628.706 580.902 629.375C580.527 630.105 580.339 630.714 580.339 631.2C580.339 632.356 580.652 633.452 581.277 634.486C581.965 635.52 582.621 636.555 583.246 637.589L590.748 635.125L591.31 635.49L587.653 637.041L592.811 636.037C592.436 634.577 592.185 633.482 592.06 632.752L588.966 626.911ZM578.276 630.105L578.651 632.113C578.901 631.87 578.964 631.505 578.839 631.018C578.714 630.531 578.526 630.227 578.276 630.105ZM577.995 633.847C577.745 634.456 577.557 635.49 577.432 636.95C577.307 638.349 577.245 639.353 577.245 639.962V644.89L582.871 644.707C582.621 642.821 582.308 641.392 581.933 640.418C581.621 639.384 580.777 637.193 579.402 633.847H577.995ZM593.186 637.589C592.811 637.467 592.248 637.406 591.498 637.406C590.06 637.406 588.747 637.589 587.56 637.954C586.434 638.319 585.059 638.927 583.434 639.779C583.934 642.395 584.34 644.19 584.653 645.164C584.965 646.076 585.653 646.959 586.716 647.81C587.216 647.689 587.966 647.628 588.966 647.628C589.904 647.628 591.123 647.841 592.623 648.267C594.186 648.632 595.53 648.936 596.655 649.179L595.905 645.803L593.186 637.589ZM565.149 641.331C563.273 642.669 562.461 644.282 562.711 646.168C564.461 644.038 566.743 642.973 569.556 642.973C570.744 642.973 571.587 643.217 572.088 643.704C571.587 641.757 570.243 640.783 568.056 640.783C567.18 640.783 566.211 640.966 565.149 641.331ZM568.431 644.89C567.555 645.133 566.774 645.559 566.086 646.168C565.461 646.776 564.836 647.658 564.211 648.814C563.711 649.666 563.836 650.214 564.586 650.457C565.336 650.7 566.555 651.005 568.243 651.37C567.993 650.64 568.212 649.91 568.899 649.179C569.587 648.449 570.337 647.689 571.15 646.898C570.212 646.289 569.306 645.62 568.431 644.89ZM579.777 645.62C579.027 645.863 578.401 646.046 577.901 646.168C577.464 646.289 577.182 646.533 577.057 646.898C577.682 647.263 578.464 647.324 579.402 647.08C580.402 646.837 581.433 646.533 582.496 646.168C580.808 645.803 579.902 645.62 579.777 645.62ZM573.775 647.81C573.025 649.21 572.4 650.214 571.9 650.822C571.4 651.431 570.681 652.069 569.743 652.739C568.743 653.347 567.493 653.225 565.993 652.374C564.555 651.461 563.586 651.126 563.086 651.37V652.556C565.774 656.024 568.306 658.367 570.681 659.583C573.057 660.739 575.244 661.135 577.245 660.77C577.245 661.257 576.87 661.622 576.12 661.865C575.745 662.839 575.995 663.721 576.87 664.512C577.808 665.242 578.651 665.911 579.402 666.52C579.152 666.763 578.933 666.915 578.745 666.976C578.558 667.037 578.401 667.067 578.276 667.067C578.401 668.223 578.933 669.379 579.87 670.535C580.808 671.63 581.527 672.482 582.027 673.09L581.652 673.456C580.277 672.969 579.089 672.056 578.089 670.718C577.151 669.318 576.495 668.254 576.12 667.523C571.994 672.756 569.931 678.779 569.931 685.594C569.931 689.609 570.65 693.047 572.088 695.906C572.963 696.028 574.494 696.332 576.682 696.819C578.87 697.306 580.464 697.549 581.465 697.549C582.652 697.549 583.809 697.367 584.934 697.002C588.935 694.75 591.31 691.86 592.06 688.332C592.811 684.742 593.186 679.783 593.186 673.456C593.061 673.699 592.842 673.881 592.529 674.003C592.217 674.125 591.873 674.246 591.498 674.368C592.123 673.516 592.654 672.604 593.092 671.63C593.529 670.596 593.748 669.653 593.748 668.801C593.748 668.314 593.686 667.888 593.561 667.523L583.434 654.929L580.714 658.123C579.214 658.732 578.245 658.793 577.808 658.306L582.308 652.556C581.621 651.765 580.214 650.883 578.089 649.91C576.026 648.936 574.588 648.236 573.775 647.81ZM579.777 648.267C579.777 648.754 580.246 649.119 581.183 649.362C582.183 649.605 582.558 649.24 582.308 648.267H579.777ZM569.743 650.64C571.181 649.91 571.713 649.179 571.337 648.449C570.962 648.571 570.525 648.906 570.025 649.453C569.587 650.001 569.493 650.396 569.743 650.64ZM590.748 648.997L588.216 648.449L587.841 648.814L590.748 648.997ZM583.621 648.814C583.371 649.058 583.184 649.423 583.059 649.91C582.934 650.396 583.059 650.761 583.434 651.005C583.934 651.005 584.746 650.457 585.872 649.362C585.372 648.875 584.621 648.693 583.621 648.814ZM597.405 651.735C597.03 651.613 595.811 651.278 593.748 650.731C591.748 650.183 590.216 649.91 589.154 649.91C587.653 649.91 586.434 650.396 585.497 651.37C585.247 652.404 585.528 653.499 586.341 654.655C587.216 655.75 587.903 656.724 588.403 657.576C588.904 658.427 589.872 658.853 591.31 658.853C592.185 658.853 593.498 658.549 595.249 657.941C597.061 657.332 598.437 657.028 599.374 657.028L598.812 653.834L597.405 651.735ZM560.179 651.37C558.741 652.039 557.491 652.708 556.428 653.378C555.365 654.047 554.834 655.203 554.834 656.846C554.459 657.454 554.271 658.123 554.271 658.853C554.271 659.766 554.522 660.587 555.022 661.317C555.522 662.048 556.209 662.413 557.085 662.413C555.959 661.196 555.303 660.374 555.115 659.949C554.928 659.462 554.959 658.914 555.209 658.306L555.959 658.488C555.959 658.245 555.959 657.758 555.959 657.028C555.959 656.298 556.209 655.842 556.709 655.659C557.46 659.553 558.554 662.808 559.991 665.424C561.429 668.041 562.554 670.048 563.367 671.448C564.18 672.786 565.18 673.577 566.368 673.821C565.805 673.456 565.524 672.725 565.524 671.63V669.531C565.774 667.888 566.743 667.341 568.431 667.888C568.181 666.002 568.024 664.481 567.962 663.325C567.899 662.108 567.618 660.861 567.118 659.583C566.18 658.975 565.242 658.123 564.305 657.028C563.367 655.872 561.992 653.986 560.179 651.37ZM581.089 656.48L582.308 654.381L580.527 656.663L581.089 656.48ZM599.374 658.488C596.686 658.488 593.873 659.127 590.935 660.405L593.186 663.325C594.498 663.325 595.842 662.93 597.218 662.139C598.656 661.348 599.687 660.831 600.312 660.587L599.374 658.488ZM570.212 666.885C570.462 664.268 570.962 662.595 571.713 661.865C570.962 661.5 570.337 661.378 569.837 661.5C569.4 661.622 569.181 661.926 569.181 662.413C569.431 663.934 569.775 665.424 570.212 666.885ZM598.249 662.96H598.999C599.249 663.629 598.718 664.207 597.405 664.694C596.155 665.181 595.467 665.729 595.342 666.337C595.842 667.493 596.092 669.044 596.092 670.991C595.967 674.277 595.842 677.471 595.717 680.574C596.843 676.437 597.78 672.908 598.53 669.988C599.343 667.067 599.937 664.542 600.312 662.413C599.687 662.291 599.218 662.321 598.906 662.504C598.593 662.686 598.374 662.839 598.249 662.96ZM557.46 664.512C557.21 664.39 556.709 664.025 555.959 663.417C555.209 662.747 554.553 662.717 553.99 663.325C553.865 664.116 553.521 665.972 552.959 668.892C552.396 671.813 552.115 674.094 552.115 675.737V677.745C553.365 683.221 554.459 687.906 555.397 691.8C556.397 695.633 558.304 698.796 561.117 701.291H563.461C565.399 701.291 567.087 701.078 568.524 700.652C570.025 700.226 571.275 699.374 572.275 698.097C569.712 693.412 568.431 688.514 568.431 683.403C568.431 680.787 568.743 678.597 569.368 676.832C568.868 677.806 568.399 678.84 567.962 679.935C567.524 680.97 567.368 681.913 567.493 682.764C567.618 683.799 567.68 684.559 567.68 685.046C567.68 685.654 567.493 686.08 567.118 686.324C566.18 685.35 565.711 684.164 565.711 682.764C565.711 681.548 565.93 680.331 566.368 679.114C566.868 677.836 567.368 676.589 567.868 675.372L566.368 675.737C565.43 674.824 564.586 674.368 563.836 674.368C562.961 674.368 562.023 675.068 561.023 676.467C560.085 677.806 559.429 678.597 559.054 678.84L558.679 678.293L562.148 673.273C561.21 672.056 560.366 670.657 559.616 669.075C558.866 667.493 558.147 665.972 557.46 664.512ZM572.275 664.877C571.65 665.485 571.713 666.854 572.463 668.984C572.963 668.862 573.4 668.588 573.775 668.162C574.213 667.736 574.744 666.824 575.37 665.424C575.119 664.938 574.619 664.725 573.869 664.785C573.182 664.846 572.65 664.877 572.275 664.877ZM567.68 669.714C566.93 669.957 566.618 670.444 566.743 671.174C566.993 671.843 567.305 672.482 567.68 673.09C568.681 672.725 569.243 672.087 569.368 671.174C569.243 670.809 569.087 670.383 568.899 669.896C568.712 669.41 568.306 669.349 567.68 669.714ZM586.153 698.736H587.653C587.653 698.431 587.653 698.097 587.653 697.732C586.778 697.488 586.278 697.823 586.153 698.736ZM586.716 711.969C587.091 709.839 587.278 707.953 587.278 706.31C587.153 703.573 587.091 701.413 587.091 699.831C586.466 702.082 586.153 704.394 586.153 706.767C586.153 708.714 586.341 710.448 586.716 711.969ZM576.87 701.291C576.745 700.804 576.526 700.622 576.213 700.743C575.901 700.865 575.62 700.987 575.37 701.108V717.353C575.62 717.353 576.12 717.293 576.87 717.171V701.291ZM577.995 701.291C577.995 702.569 577.964 703.877 577.901 705.215C577.839 706.493 577.808 707.801 577.808 709.14C577.808 712.121 578.089 714.676 578.651 716.806L581.089 716.441C582.777 716.076 583.965 715.406 584.653 714.433C585.34 713.399 585.684 712.151 585.684 710.691C585.684 709.657 585.497 707.953 585.122 705.58C584.746 703.207 584.684 701.534 584.934 700.561L577.995 701.291ZM573.588 701.108C573.588 702.995 573.525 704.85 573.4 706.676C573.275 708.44 573.15 710.204 573.025 711.969C573.025 713.855 573.213 715.711 573.588 717.536C574.401 713.946 574.807 710.539 574.807 707.314L574.432 701.108H573.588ZM567.493 704.12C566.743 704.485 565.711 704.668 564.399 704.668C563.273 704.668 562.523 704.242 562.148 703.39C562.148 705.094 562.273 707.132 562.523 709.505C562.773 711.878 563.023 713.946 563.273 715.711L571.713 717.353C571.838 716.623 571.963 715.041 572.088 712.608C572.213 710.174 572.275 708.896 572.275 708.775V701.839L567.493 704.12ZM567.493 686.963L570.212 694.355C569.65 693.99 569.149 693.199 568.712 691.982C568.274 690.704 567.868 689.518 567.493 688.423V686.963ZM576.307 658.488C576.682 657.393 577.37 656.298 578.37 655.203C579.433 654.047 580.589 653.165 581.84 652.556C580.714 653.286 579.652 654.29 578.651 655.568C577.714 656.785 576.932 657.758 576.307 658.488ZM580.527 659.218C580.777 658.245 581.683 657.393 583.246 656.663C582.996 657.393 582.09 658.245 580.527 659.218Z" fill="#CD4138"/>
</g>
<defs>
<filter id="filter0_d_829_242" x="362.127" y="612.643" width="117.02" height="98.1967" filterUnits="userSpaceOnUse" color-interpolation-filters="sRGB">
<feFlood flood-opacity="0" result="BackgroundImageFix"/>
<feColorMatrix in="SourceAlpha" type="matrix" values="0 0 0 0 0 0 0 0 0 0 0 0 0 0 0 0 0 0 127 0" result="hardAlpha"/>
<feOffset/>
<feGaussianBlur stdDeviation="4.17857"/>
<feColorMatrix type="matrix" values="0 0 0 0 0.803922 0 0 0 0 0.254902 0 0 0 0 0.219608 0 0 0 0.9 0"/>
<feBlend mode="normal" in2="BackgroundImageFix" result="effect1_dropShadow_829_242"/>
<feBlend mode="normal" in="SourceGraphic" in2="effect1_dropShadow_829_242" result="shape"/>
</filter>
<filter id="filter1_d_829_242" x="71.6429" y="594.643" width="75.2262" height="133.714" filterUnits="userSpaceOnUse" color-interpolation-filters="sRGB">
<feFlood flood-opacity="0" result="BackgroundImageFix"/>
<feColorMatrix in="SourceAlpha" type="matrix" values="0 0 0 0 0 0 0 0 0 0 0 0 0 0 0 0 0 0 127 0" result="hardAlpha"/>
<feOffset/>
<feGaussianBlur stdDeviation="4.17857"/>
<feColorMatrix type="matrix" values="0 0 0 0 0.803922 0 0 0 0 0.254902 0 0 0 0 0.219608 0 0 0 0.9 0"/>
<feBlend mode="normal" in2="BackgroundImageFix" result="effect1_dropShadow_829_242"/>
<feBlend mode="normal" in="SourceGraphic" in2="effect1_dropShadow_829_242" result="shape"/>
</filter>
<filter id="filter2_d_829_242" x="210.167" y="612.643" width="108.662" height="98.1967" filterUnits="userSpaceOnUse" color-interpolation-filters="sRGB">
<feFlood flood-opacity="0" result="BackgroundImageFix"/>
<feColorMatrix in="SourceAlpha" type="matrix" values="0 0 0 0 0 0 0 0 0 0 0 0 0 0 0 0 0 0 127 0" result="hardAlpha"/>
<feOffset/>
<feGaussianBlur stdDeviation="4.17857"/>
<feColorMatrix type="matrix" values="0 0 0 0 0.803922 0 0 0 0 0.254902 0 0 0 0 0.219608 0 0 0 0.9 0"/>
<feBlend mode="normal" in2="BackgroundImageFix" result="effect1_dropShadow_829_242"/>
<feBlend mode="normal" in="SourceGraphic" in2="effect1_dropShadow_829_242" result="shape"/>
</filter>
<filter id="filter3_d_829_242" x="542.445" y="594.643" width="67.9122" height="133.714" filterUnits="userSpaceOnUse" color-interpolation-filters="sRGB">
<feFlood flood-opacity="0" result="BackgroundImageFix"/>
<feColorMatrix in="SourceAlpha" type="matrix" values="0 0 0 0 0 0 0 0 0 0 0 0 0 0 0 0 0 0 127 0" result="hardAlpha"/>
<feOffset/>
<feGaussianBlur stdDeviation="4.17857"/>
<feColorMatrix type="matrix" values="0 0 0 0 0.803922 0 0 0 0 0.254902 0 0 0 0 0.219608 0 0 0 0.9 0"/>
<feBlend mode="normal" in2="BackgroundImageFix" result="effect1_dropShadow_829_242"/>
<feBlend mode="normal" in="SourceGraphic" in2="effect1_dropShadow_829_242" result="shape"/>
</filter>
</defs>
</svg>
