<svg width="600" height="600" viewBox="0 0 600 600" fill="none" xmlns="http://www.w3.org/2000/svg">
<rect width="600" height="600" fill="#232121"/>
<g filter="url(#filter0_d_601_39)">
<path d="M329.286 279.871C329.286 279.259 329.524 278.754 330.001 278.357C330.509 277.928 331.129 277.714 331.86 277.714C332.241 277.714 332.622 277.806 333.004 277.989C334.052 279.581 335.768 281.554 338.151 283.911C340.566 286.236 342.043 287.751 342.583 288.455C342.583 287.69 342.853 287.017 343.394 286.435C343.966 285.823 344.633 285.517 345.395 285.517C345.808 285.395 346.333 285.426 346.968 285.609C347.635 285.793 348.096 285.823 348.35 285.701C348.668 284.722 349.367 284.003 350.447 283.543C351.528 283.054 352.64 282.809 353.784 282.809C354.578 283.237 355.134 283.452 355.452 283.452C355.769 283.452 355.96 283.207 356.024 282.717C356.31 281.891 356.913 281.371 357.835 281.157C358.788 280.942 359.916 280.835 361.219 280.835C362.648 281.631 363.856 282.824 364.841 284.416C365.826 285.976 366.636 287.262 367.271 288.271C367.144 288.761 367.319 289.511 367.796 290.521C368.304 291.531 368.558 292.127 368.558 292.311C370.814 289.557 372.816 287.262 374.564 285.426C376.343 283.559 378.376 282.625 380.664 282.625C381.363 282.625 382.078 282.763 382.809 283.039C383.571 283.314 384.016 284.079 384.143 285.334C384.08 285.701 383.714 286.038 383.047 286.344C382.412 286.619 381.713 286.91 380.95 287.216C380.219 287.981 379.441 289.327 378.615 291.255C377.82 293.152 377.169 294.377 376.661 294.927C375.612 296.733 374.754 298.829 374.087 301.216C372.721 302.991 371.307 304.812 369.845 306.678C368.384 308.545 366.874 310.075 365.317 311.269C365.127 311.605 365 311.942 364.936 312.279C364.873 312.615 364.841 312.998 364.841 313.426C364.841 313.763 364.873 314.252 364.936 314.895C365 315.507 365.031 315.997 365.031 316.364C365.031 316.731 365 317.037 364.936 317.282C364.142 318.108 363.538 318.72 363.125 319.118C362.712 319.485 361.489 320.388 359.455 321.826C359.137 321.949 358.645 322.056 357.978 322.148C357.342 322.239 356.659 322.285 355.928 322.285C354.435 322.285 352.973 322.102 351.544 321.734C350.114 321.337 348.62 320.771 347.063 320.036C346.809 319.332 346.587 318.445 346.396 317.374C346.206 316.272 346.047 315.186 345.92 314.115C344.204 312.217 342.822 309.739 341.773 306.678C340.502 302.119 339.215 297.544 337.913 292.954C335.371 290.261 333.29 287.996 331.669 286.16C330.08 284.293 329.286 282.197 329.286 279.871ZM330.192 279.137C330.065 279.749 330.001 280.223 330.001 280.56C330.001 281.539 330.255 282.457 330.764 283.314C331.272 284.171 332.019 285.028 333.004 285.885C333.48 285.946 333.957 285.793 334.433 285.426C334.91 285.058 335.387 284.691 335.863 284.324C335.704 284.752 335.482 285.074 335.196 285.288C334.91 285.502 334.418 285.839 333.719 286.298C333.973 287.399 334.608 288.271 335.625 288.914C335.784 288.486 336.229 287.874 336.959 287.078C337.722 286.282 338.103 285.64 338.103 285.15C337.754 284.783 337.436 284.462 337.15 284.186C336.864 283.88 336.594 283.727 336.34 283.727C336.149 283.727 335.959 283.895 335.768 284.232L336.149 283.084C335.959 282.901 335.403 282.075 334.481 280.606C333.56 279.137 332.718 278.402 331.955 278.402C331.351 278.402 330.764 278.647 330.192 279.137ZM360.265 281.386C359.217 281.57 358.311 281.784 357.549 282.029C356.818 282.243 356.421 282.748 356.357 283.543L356.739 292.127C357.247 292.311 357.946 292.326 358.836 292.173C359.725 291.99 360.234 291.898 360.361 291.898C359.439 292.602 358.295 292.954 356.929 292.954C356.993 293.321 357.167 293.872 357.453 294.606C357.739 295.31 357.914 295.769 357.978 295.983L359.455 295.478C360.122 295.295 360.678 295.509 361.123 296.121C361.568 296.702 361.934 297.177 362.219 297.544C362.728 295.983 363.014 293.657 363.077 290.567C363.141 287.445 363.236 285.364 363.363 284.324C363.745 284.569 363.967 285.043 364.031 285.747C364.094 286.42 364.174 287.063 364.269 287.675L365.127 286.298C364.682 285.288 364.046 284.385 363.22 283.589C362.394 282.763 361.409 282.029 360.265 281.386ZM353.593 283.36C352.417 283.543 351.496 283.773 350.829 284.048C350.193 284.293 349.621 284.783 349.113 285.517C349.621 289.404 350.146 292.296 350.686 294.193C351.258 296.06 352.433 297.773 354.213 299.334C354.213 299.089 354.371 298.875 354.689 298.691C355.007 298.508 355.229 298.385 355.356 298.324C355.96 298.079 356.453 298.033 356.834 298.186C357.215 298.339 357.771 298.63 358.502 299.059L356.739 295.478C356.135 295.876 355.595 296.167 355.118 296.35C354.641 296.534 354.07 296.626 353.402 296.626C353.275 296.687 353.148 296.641 353.021 296.488C352.894 296.335 352.83 296.228 352.83 296.167C353.085 296.044 353.672 295.891 354.594 295.708C355.547 295.493 356.198 295.233 356.548 294.927C356.135 294.04 355.849 293.122 355.69 292.173C355.531 291.194 355.452 290.046 355.452 288.73C355.452 288.027 355.452 287.338 355.452 286.665C355.452 285.961 355.483 285.272 355.547 284.599C355.229 283.773 354.578 283.36 353.593 283.36ZM382.618 283.543C382.269 283.482 381.776 283.452 381.141 283.452C379.393 283.452 377.836 283.941 376.47 284.921C375.104 285.9 373.865 287.17 372.752 288.73C372.689 289.098 372.991 289.618 373.658 290.291C374.357 290.934 374.564 291.439 374.278 291.806C373.769 291.806 373.277 291.5 372.8 290.888C372.355 290.245 372.038 289.863 371.847 289.74C371.466 290.077 371.053 290.475 370.608 290.934C370.195 291.393 369.512 292.341 368.558 293.78C368.876 294.728 369.226 295.677 369.607 296.626C369.988 297.574 370.544 298.324 371.275 298.875C370.481 298.569 369.845 298.033 369.369 297.268C368.892 296.473 368.384 295.448 367.843 294.193C367.335 294.499 367.081 294.958 367.081 295.57C367.081 296.213 367.081 296.84 367.081 297.452C367.017 297.085 366.858 296.871 366.604 296.809C366.604 297.238 366.668 297.697 366.795 298.186C366.922 298.645 367.081 299.196 367.271 299.839C366.477 298.584 366.08 297.192 366.08 295.662L363.363 297.085C363.3 297.513 363.093 297.926 362.744 298.324C362.394 298.691 362.077 298.997 361.791 299.242C360.901 299.059 359.995 299.38 359.074 300.206C358.152 301.002 357.374 301.43 356.739 301.491C355.881 301.828 355.245 302.409 354.832 303.236C354.419 304.031 354.038 305.057 353.688 306.311C354.228 307.443 354.641 308.3 354.927 308.882C355.213 309.433 355.69 310.106 356.357 310.901C357.438 311.085 358.566 311.177 359.741 311.177C361.235 311.177 362.569 311.085 363.745 310.901C365.111 310.412 366.557 309.28 368.082 307.505C369.639 305.699 371.323 303.695 373.134 301.491C373.769 299.441 374.278 297.911 374.659 296.901C375.072 295.891 375.676 294.79 376.47 293.596L375.564 293.229C375.628 293.045 375.755 292.954 375.946 292.954C376.136 292.954 376.343 292.954 376.565 292.954L375.946 292.403C376.676 292.403 377.169 292.311 377.423 292.127C377.932 290.597 378.694 289.159 379.711 287.812C380.728 286.466 381.951 285.426 383.381 284.691L383.285 284.232L382.618 283.543ZM339.152 286.114C339.025 285.9 338.834 285.793 338.58 285.793C338.326 285.793 338.167 285.93 338.103 286.206C338.23 286.512 338.135 286.848 337.817 287.216C337.531 287.583 337.325 287.828 337.198 287.95L337.007 287.767C337.261 287.522 337.357 287.338 337.293 287.216C337.166 287.338 336.912 287.69 336.531 288.271L337.198 288.18C336.499 288.608 336.149 289.037 336.149 289.465C336.149 289.863 336.403 290.291 336.912 290.75C337.42 291.209 338.04 291.729 338.771 292.311C338.961 292.188 339.39 291.714 340.057 290.888C340.756 290.062 341.328 289.557 341.773 289.373L339.152 286.114ZM344.252 286.665C343.775 286.91 343.457 287.277 343.298 287.767C343.139 288.226 343.06 288.792 343.06 289.465C343.918 292.556 344.744 295.08 345.538 297.039C346.364 298.967 347.953 300.206 350.304 300.757C350.241 300.206 350.368 299.747 350.686 299.38C351.003 298.982 351.464 298.63 352.068 298.324C351.718 297.498 351.385 297.085 351.067 297.085C351.067 297.33 350.908 297.544 350.59 297.727C350.273 297.88 350.114 298.018 350.114 298.141C349.574 298.324 349.049 298.416 348.541 298.416C347.937 298.416 347.477 298.294 347.159 298.049C347.762 298.049 348.271 297.988 348.684 297.865C349.097 297.712 349.891 297.33 351.067 296.718C350.622 295.646 350.177 294.377 349.732 292.908C349.319 291.439 348.859 289.358 348.35 286.665C347.62 286.298 346.905 286.114 346.206 286.114C345.475 286.114 344.823 286.298 344.252 286.665ZM365.222 287.216L365.127 287.767C365.19 287.644 365.222 287.522 365.222 287.399V287.216ZM365.794 287.95C365.286 288.532 364.777 289.144 364.269 289.786C363.792 290.398 363.681 291.041 363.935 291.714C364.412 291.653 364.904 291.378 365.413 290.888C365.921 290.398 366.287 290.123 366.509 290.062C366.636 290.674 366.159 291.301 365.079 291.944C363.999 292.556 363.618 293.244 363.935 294.009C364.73 294.132 365.286 294.193 365.603 294.193C366.461 294.193 367.081 293.933 367.462 293.413C367.526 292.617 367.271 291.576 366.7 290.291C366.159 289.006 365.858 288.226 365.794 287.95ZM342.583 290.245C342.043 290.49 341.471 290.827 340.868 291.255C340.264 291.684 339.692 292.097 339.152 292.495C338.961 293.168 338.945 293.78 339.104 294.331C339.263 294.851 339.581 295.616 340.057 296.626C340.502 296.687 341.169 296.565 342.059 296.259C342.981 295.922 343.711 295.861 344.252 296.075C343.521 295.004 342.838 293.933 342.202 292.862C342.774 293.566 343.251 294.04 343.632 294.285C343.632 293.764 343.41 293.168 342.965 292.495C342.52 291.791 342.266 291.347 342.202 291.163L342.774 291.347L342.583 290.245ZM364.936 294.927L364.126 294.56L363.84 294.927H364.936ZM358.311 296.993L358.979 298.508C360.345 298.63 361.187 298.339 361.505 297.636C361.505 296.901 361.187 296.534 360.551 296.534C360.202 296.534 359.821 296.595 359.408 296.718C358.994 296.84 358.629 296.932 358.311 296.993ZM342.297 296.626C341.376 296.871 340.772 297.1 340.486 297.314C340.2 297.528 340.153 297.896 340.343 298.416C341.583 302.302 342.822 306.189 344.061 310.075C344.696 311.33 345.3 312.263 345.872 312.875C346.476 313.457 347.27 313.747 348.255 313.747C348.636 313.747 348.922 313.717 349.113 313.656C349.844 313.656 350.717 313.365 351.734 312.783C352.783 312.171 353.529 311.865 353.974 311.865C353.784 312.171 353.641 312.416 353.545 312.6C353.45 312.783 353.466 312.998 353.593 313.242C354.197 312.692 354.498 312.095 354.498 311.452C354.498 310.84 354.292 310.244 353.879 309.662C353.498 309.05 353.148 308.469 352.83 307.918C352.957 306.786 353.116 305.653 353.307 304.521C353.307 304.337 353.514 303.909 353.927 303.236C354.371 302.532 354.594 302.058 354.594 301.813C354.594 301.415 354.324 301.124 353.784 300.941C353.529 301.369 353.037 301.629 352.306 301.721C351.607 301.782 351.099 301.874 350.781 301.996C347.985 301.048 345.967 299.38 344.728 296.993L342.297 296.626ZM356.643 298.875C356.58 298.997 356.167 299.166 355.404 299.38C354.673 299.594 354.53 300.023 354.975 300.665C355.611 300.849 356.135 300.849 356.548 300.665C356.993 300.482 357.517 300.206 358.121 299.839C357.835 299.502 357.596 299.227 357.406 299.013C357.215 298.798 356.961 298.753 356.643 298.875ZM352.449 299.426C352.322 299.548 351.988 299.701 351.448 299.885C350.94 300.038 350.813 300.359 351.067 300.849H351.83C352.179 300.665 352.465 300.497 352.687 300.344C352.91 300.191 352.989 299.946 352.926 299.609L352.449 299.426ZM355.738 312.049L355.547 312.416C355.674 312.967 355.785 314.298 355.881 316.41C355.976 318.521 356.389 320.067 357.12 321.046C358.105 321.107 358.994 320.924 359.789 320.495C360.615 320.067 361.314 319.409 361.886 318.521C361.695 318.215 361.568 317.848 361.505 317.42C361.441 316.961 361.409 316.486 361.409 315.997V314.39C361.409 314.145 361.409 313.87 361.409 313.564C361.282 313.288 361.219 313.12 361.219 313.059L358.693 313.564C357.644 313.411 357.056 313.089 356.929 312.6C357.12 312.477 357.358 312.493 357.644 312.646C357.962 312.799 358.184 312.845 358.311 312.783C358.947 312.783 359.503 312.768 359.979 312.738C360.488 312.707 360.901 312.569 361.219 312.324C359.535 312.324 357.708 312.233 355.738 312.049ZM354.784 312.049C354.594 312.783 354.498 313.533 354.498 314.298C354.498 315.186 354.61 316.456 354.832 318.108C355.055 319.761 355.166 320.801 355.166 321.23H356.357C355.881 320.25 355.531 318.644 355.309 316.41C355.086 314.176 354.912 312.722 354.784 312.049ZM362.41 312.233C362.474 312.355 362.267 312.63 361.791 313.059V315.124C361.791 316.563 362.029 317.542 362.505 318.062C362.696 317.358 362.791 316.7 362.791 316.088C362.728 314.895 362.696 313.946 362.696 313.242V312.324L362.41 312.233ZM352.83 313.059C351.782 313.579 350.892 313.977 350.161 314.252C349.462 314.528 348.732 314.665 347.969 314.665C348.795 314.665 349.383 314.635 349.732 314.574C350.114 314.512 351.146 314.237 352.83 313.747V313.059ZM363.554 313.242V315.216C363.554 315.981 363.618 316.517 363.745 316.823L363.554 313.242ZM353.784 313.747C353.656 314.604 353.593 315.293 353.593 315.813C353.593 317.435 353.863 318.934 354.403 320.311C354.467 320.005 354.498 319.501 354.498 318.797C354.498 318.062 354.467 317.251 354.403 316.364C354.34 315.476 354.276 314.604 354.213 313.747H353.784ZM353.116 314.206C352.258 314.512 351.258 314.818 350.114 315.124C349.002 315.4 347.985 315.568 347.063 315.629L347.969 319.577L353.784 321.046L353.116 314.206Z" fill="#CD4138"/>
</g>
<g filter="url(#filter1_d_601_39)">
<path d="M124.295 268.175C124.913 267.89 125.549 267.953 126.2 268.365C126.851 268.745 127.34 269.601 127.666 270.931C128.024 272.262 128.252 273.91 128.35 275.874C128.447 277.807 128.496 280.452 128.496 283.81C128.496 284.001 128.382 284.682 128.154 285.854C127.926 287.026 127.845 287.866 127.91 288.373C128.985 287.232 130.222 286.662 131.623 286.662C132.079 286.662 132.567 286.757 133.089 286.947C133.838 287.993 134.456 289.117 134.945 290.321C135.466 291.494 135.727 292.666 135.727 293.838C135.727 294.693 135.58 295.47 135.287 296.167C135.776 297.212 136.313 298.305 136.899 299.446C137.518 300.586 138.218 301.537 139 302.297C139 303.343 138.642 305.085 137.925 307.525C137.241 309.965 136.899 311.739 136.899 312.848C134.978 315.509 133.04 318.155 131.085 320.784C130.304 320.879 129.701 321.244 129.278 321.877C128.692 323.493 128.252 324.555 127.959 325.061C127.666 325.537 127.487 326.408 127.421 327.675C127.356 328.943 127.047 329.798 126.493 330.242C123.757 330.844 121.054 331.43 118.383 332C117.732 332 116.934 331.873 115.989 331.62C115.045 331.366 113.758 330.749 112.13 329.766C110.501 328.784 109.394 328.166 108.808 327.913C109.264 327.057 109.622 325.679 109.882 323.778C110.143 321.877 110.485 320.499 110.908 319.644C110.029 317.489 109.15 315.319 108.27 313.133C107.423 310.598 107 308.285 107 306.194C107 304.832 107.195 303.47 107.586 302.107C108.596 297.323 109.638 292.492 110.713 287.612C110.615 287.042 110.566 286.583 110.566 286.234V285.379C110.99 283.826 111.316 282.67 111.544 281.909C111.772 281.117 112.162 280.515 112.716 280.104C112.911 279.977 113.27 279.945 113.791 280.009C114.312 280.072 114.687 280.104 114.915 280.104C115.37 280.104 115.664 279.834 115.794 279.296C115.924 278.757 115.989 278.092 115.989 277.3C115.924 276.127 115.892 275.256 115.892 274.686C115.892 273.704 116.022 272.927 116.282 272.357C116.543 271.755 116.934 271.359 117.455 271.169C118.009 270.979 118.399 270.884 118.627 270.884C118.888 270.884 119.051 270.884 119.116 270.884C120.223 270.884 121.087 271.296 121.705 272.119C121.966 271.106 122.21 270.25 122.438 269.553C122.666 268.824 123.285 268.365 124.295 268.175ZM122.976 269.411C122.78 270.013 122.65 270.773 122.585 271.692C122.52 272.579 122.487 273.086 122.487 273.213C122.487 273.656 122.52 274.432 122.585 275.541C122.65 276.65 122.682 277.521 122.682 278.155C123.106 278.092 123.855 277.965 124.93 277.775C126.037 277.585 126.9 277.521 127.519 277.585V272.357C127.519 272.009 127.519 271.644 127.519 271.264C127.389 270.82 127.259 270.266 127.128 269.601C127.031 268.904 126.347 268.555 125.076 268.555C124.295 268.555 123.594 268.84 122.976 269.411ZM118.09 271.454C117.439 271.993 116.983 272.611 116.722 273.308C116.494 273.973 116.38 274.813 116.38 275.826C116.38 276.238 116.413 276.919 116.478 277.87C116.543 278.789 116.576 279.502 116.576 280.009L119.507 279.533C120.289 279.597 120.745 279.597 120.875 279.533C120.875 278.551 120.907 277.632 120.973 276.777C121.07 275.89 121.152 274.987 121.217 274.068C121.217 273.308 121.184 272.737 121.119 272.357C120.761 271.755 119.751 271.454 118.09 271.454ZM127.519 278.155C126.835 278.028 126.33 277.965 126.005 277.965C124.604 277.965 123.497 278.266 122.682 278.868C121.966 280.42 121.608 281.846 121.608 283.145C121.608 283.462 121.673 283.89 121.803 284.428C122.324 284.428 123.204 284.365 124.441 284.238C125.679 284.08 126.33 284.001 126.395 284.001C126.851 284.001 127.226 284.032 127.519 284.096C127.649 283.652 127.747 282.939 127.812 281.957C127.877 280.943 127.91 280.199 127.91 279.723L127.519 278.155ZM120.582 280.104C119.8 279.977 119.23 279.945 118.872 280.009C118.546 280.072 117.748 280.309 116.478 280.721C116.217 281.165 116.136 281.704 116.234 282.337C116.331 282.939 116.315 283.62 116.185 284.381C116.054 285.109 115.989 285.569 115.989 285.759C115.989 286.139 116.087 286.535 116.282 286.947L121.119 286.139L120.875 280.721L120.582 280.104ZM113.4 280.531C112.651 280.658 112.211 281.07 112.081 281.767L111.006 286.947C111.202 287.201 111.495 287.327 111.885 287.327C112.765 287.327 113.661 287.327 114.573 287.327C114.117 287.327 113.758 287.359 113.498 287.422C113.237 287.612 112.814 287.787 112.227 287.945C111.674 288.103 111.299 288.246 111.104 288.373C111.104 291.446 110.566 294.535 109.492 297.64C110.501 297.26 111.544 296.848 112.618 296.404C113.726 295.929 114.621 295.343 115.305 294.646L115.598 281.957C115.468 281.45 115.208 281.038 114.817 280.721C114.459 280.373 113.986 280.309 113.4 280.531ZM121.901 285.759L121.803 292.175L122.096 292.602C122.357 292.539 122.78 292.492 123.366 292.46C123.985 292.396 124.555 292.333 125.076 292.27C125.891 292.27 126.461 292.238 126.786 292.175C126.786 291.224 126.9 289.989 127.128 288.468C127.389 286.915 127.584 285.759 127.715 284.999C127.031 284.872 126.526 284.808 126.2 284.808C124.669 284.808 123.236 285.125 121.901 285.759ZM120.875 286.947C120.158 286.884 119.246 287.058 118.139 287.47C117.032 287.882 116.348 288.119 116.087 288.183C116.152 290.337 116.25 292.46 116.38 294.551L120.484 292.793L121.315 288.088L120.875 286.947ZM132.698 287.422C132.046 287.296 131.509 287.232 131.085 287.232C129.978 287.232 129.148 287.612 128.594 288.373C128.464 288.911 128.398 289.307 128.398 289.561C128.398 290.004 128.48 290.638 128.643 291.462C128.806 292.286 128.887 292.793 128.887 292.983C129.148 293.426 129.278 294.282 129.278 295.549C129.278 296.816 129.555 297.703 130.108 298.21C130.304 297.893 130.434 297.703 130.499 297.64C130.174 297.45 130.108 297.086 130.304 296.547C130.499 295.977 130.564 295.501 130.499 295.121C130.499 294.202 131.232 293.743 132.698 293.743C133.317 293.68 133.707 293.981 133.87 294.646C134.033 295.28 134.245 295.628 134.505 295.691C134.636 295.311 134.766 294.852 134.896 294.313C135.026 293.743 135.092 293.141 135.092 292.507C135.092 291.589 134.896 290.765 134.505 290.036L132.698 287.422ZM122.096 292.983L121.803 293.173C120.337 293.363 118.53 294.06 116.38 295.264C114.263 296.468 112.7 297.228 111.69 297.545C110.094 297.545 109.101 298.289 108.71 299.779C108.482 301.806 108.303 303.2 108.173 303.961C108.303 303.961 108.482 303.882 108.71 303.723C108.97 303.565 109.166 303.581 109.296 303.771C108.287 304.563 107.782 305.577 107.782 306.812C107.782 307.382 107.879 308.048 108.075 308.808C108.27 309.537 108.433 310.123 108.563 310.567C108.726 310.978 109.264 312.578 110.176 315.367C111.12 318.155 112.065 319.786 113.009 320.262C113.986 320.705 114.654 320.959 115.012 321.022C115.403 321.085 115.826 321.117 116.282 321.117C116.966 321.117 118.074 320.943 119.605 320.594C118.334 321.513 116.869 321.972 115.208 321.972C114.654 321.972 114.247 321.941 113.986 321.877L114.817 322.162C115.208 322.226 115.729 322.258 116.38 322.258C117.325 322.258 118.237 322.036 119.116 321.592C119.637 321.909 120.077 321.798 120.435 321.26C120.793 320.689 121.021 320.404 121.119 320.404L121.315 320.594C120.891 323.129 120.517 325.663 120.191 328.198C120.191 328.642 120.256 329.323 120.386 330.242L120.093 330.527C119.637 329.703 119.409 328.832 119.409 327.913C119.409 327.533 119.474 326.82 119.605 325.774C119.735 324.729 119.8 324.143 119.8 324.016C119.344 324.998 118.969 326.234 118.676 327.723C118.416 329.212 118.22 330.21 118.09 330.717C119.36 330.844 120.451 330.796 121.363 330.574C122.308 330.352 123.22 330.083 124.099 329.766C123.969 328.911 124.132 327.644 124.588 325.964C125.076 324.285 125.353 323.145 125.418 322.543H124.49C124.099 322.543 123.676 322.495 123.22 322.4C122.796 322.305 122.552 322.036 122.487 321.592C123.432 321.719 124.409 321.814 125.418 321.877C125.288 321.561 124.913 321.37 124.295 321.307C123.708 321.244 123.138 321.101 122.585 320.879C122.064 320.626 121.624 319.976 121.266 318.931C120.94 317.854 120.679 317.046 120.484 316.507C120.745 316.729 121.005 317.188 121.266 317.885C121.559 318.551 121.803 318.947 121.998 319.073C121.803 318.218 121.624 317.394 121.461 316.602C121.298 315.778 121.217 314.939 121.217 314.083C121.217 313.513 121.249 313.054 121.315 312.705L120.484 316.507L120.093 316.127C120.028 315.873 119.995 315.493 119.995 314.986C119.995 313.814 120.337 312.531 121.021 311.137C121.738 309.743 122.292 308.681 122.682 307.953C124.083 307.192 125.288 306.559 126.298 306.052C127.307 305.513 128.301 305.181 129.278 305.054C129.571 304.8 129.538 304.119 129.18 303.01C128.854 301.901 128.757 301.157 128.887 300.777L127.421 301.347L123.611 302.297C121.591 303.533 120.093 304.563 119.116 305.386C118.172 306.179 117.504 307.224 117.113 308.523H116.282C116.478 308.27 116.51 307.858 116.38 307.287C116.25 306.685 116.25 306.226 116.38 305.909L117.113 307.002C118.644 305.165 120.403 303.739 122.389 302.725C124.409 301.68 126.64 300.856 129.082 300.254L129.522 299.208C129.034 298.955 128.496 298.828 127.91 298.828C126.64 299.018 125.695 299.113 125.076 299.113C125.63 298.923 126.249 298.749 126.933 298.59C127.649 298.4 128.236 298.305 128.692 298.305C128.692 297.989 128.659 297.387 128.594 296.499C128.529 295.581 128.496 294.852 128.496 294.313C127.487 294.06 126.917 293.68 126.786 293.173L122.096 292.983ZM131.183 295.121C130.988 295.311 130.89 295.628 130.89 296.072C130.89 296.484 130.955 296.816 131.085 297.07L131.721 296.69C131.655 297.133 131.379 297.751 130.89 298.543C130.434 299.303 130.125 299.905 129.962 300.349C129.799 300.761 129.718 301.284 129.718 301.917C129.718 302.899 129.929 303.771 130.353 304.531C130.776 305.26 131.46 306.147 132.405 307.192C131.949 307.066 131.574 307.034 131.281 307.097C131.346 307.478 131.427 307.826 131.525 308.143H130.695C130.499 308.46 130.402 308.761 130.402 309.046C130.402 309.363 130.516 309.806 130.744 310.376C130.972 310.915 131.085 311.279 131.085 311.47C130.564 311.343 130.206 310.947 130.011 310.281C129.815 309.584 129.685 309.077 129.62 308.761C129.62 308.349 129.718 307.778 129.913 307.05C130.108 306.289 130.174 305.751 130.108 305.434C126.851 306.068 124.246 307.43 122.292 309.521C121.901 310.883 121.705 312.436 121.705 314.178C121.705 315.794 121.966 317.315 122.487 318.741C123.106 319.533 123.92 320.04 124.93 320.262C125.972 320.483 127.226 320.594 128.692 320.594C130.027 320.404 131.281 319.39 132.453 317.553C133.626 315.715 134.375 314.654 134.701 314.369C134.505 313.988 134.701 313.656 135.287 313.371C135.906 313.085 136.248 312.8 136.313 312.515L137.73 305.909C137.567 305.909 137.274 306.02 136.85 306.242C136.427 306.464 136.15 306.575 136.02 306.575C135.824 306.575 135.645 306.384 135.482 306.004C137.176 305.561 138.186 304.563 138.511 303.01C138.316 302.535 137.99 302.06 137.534 301.585C137.111 301.109 136.639 300.602 136.118 300.064C135.759 300.19 135.287 300.555 134.701 301.157C134.115 301.727 133.577 302.012 133.089 302.012C132.698 301.885 132.274 301.585 131.818 301.109C131.395 300.602 131.362 300.032 131.721 299.398C132.046 298.891 132.421 298.432 132.844 298.02C133.268 297.577 133.691 297.418 134.115 297.545C133.235 298.115 132.665 298.527 132.405 298.781C132.144 299.002 131.981 299.398 131.916 299.969C132.111 300.761 132.567 301.22 133.284 301.347C133.577 301.22 133.854 300.887 134.115 300.349C135.092 300.349 135.58 299.969 135.58 299.208C135.58 299.082 135.515 298.701 135.385 298.068C135.254 297.402 135.254 296.975 135.385 296.785C135.059 296.499 134.668 296.357 134.212 296.357C133.821 296.357 133.398 296.468 132.942 296.69C132.519 296.88 132.209 297.006 132.014 297.07C131.818 296.658 132.079 296.325 132.795 296.072C133.545 295.818 133.707 295.438 133.284 294.931C133.089 294.804 132.714 294.773 132.16 294.836C131.639 294.899 131.313 294.994 131.183 295.121ZM111.885 320.784C111.364 321.45 110.99 322.59 110.762 324.206C110.566 325.822 110.371 326.836 110.176 327.248C112.39 328.325 114.638 329.418 116.918 330.527L118.481 322.733C118.155 322.733 117.585 322.78 116.771 322.875C115.989 322.939 115.403 322.97 115.012 322.97C114.459 322.97 114.019 322.939 113.693 322.875C113.367 322.78 113.139 322.416 113.009 321.782C112.879 321.117 112.504 320.784 111.885 320.784ZM125.614 329.291L126.102 328.863C126.102 328.166 126.363 326.867 126.884 324.966C127.438 323.034 127.715 322.036 127.715 321.972C127.226 323.208 126.754 324.459 126.298 325.727C125.842 326.994 125.614 328.182 125.614 329.291ZM118.285 327.248C118.774 325.663 119.246 324.095 119.702 322.543C119.377 323.145 119.083 323.873 118.823 324.729C118.595 325.553 118.416 326.392 118.285 327.248ZM124.588 329.481C125.141 327.865 125.565 326.503 125.858 325.394C126.151 324.285 126.363 323.335 126.493 322.543C125.483 324.634 124.881 326.059 124.685 326.82C124.49 327.549 124.458 328.436 124.588 329.481ZM115.598 302.107C116.999 301.981 118.774 301.505 120.924 300.682C123.106 299.826 124.49 299.335 125.076 299.208C124.555 299.335 123.106 299.889 120.728 300.872C118.383 301.822 116.478 302.297 115.012 302.297C113.872 302.297 112.863 302.392 111.983 302.583C111.136 302.741 110.306 303.042 109.492 303.485C110.306 302.979 111.136 302.598 111.983 302.345C112.863 302.06 113.661 301.917 114.377 301.917C114.67 301.917 115.077 301.981 115.598 302.107ZM129.913 291.795C130.369 291.224 131.102 290.939 132.111 290.939C132.828 290.939 133.365 291.129 133.724 291.509L129.913 291.795ZM122.292 293.933C122.487 294.535 122.389 295.311 121.998 296.262C121.933 296.072 121.998 295.707 122.194 295.169C122.389 294.598 122.422 294.187 122.292 293.933ZM111.69 292.983C111.885 292.571 112.195 292.286 112.618 292.127C113.074 291.969 113.693 291.858 114.475 291.795C114.019 291.858 113.514 292.064 112.96 292.412C112.439 292.729 112.016 292.919 111.69 292.983ZM134.31 297.45C134.766 297.196 135.059 297.07 135.189 297.07C134.733 297.387 134.44 297.513 134.31 297.45Z" fill="#CD4138"/>
</g>
<g filter="url(#filter2_d_601_39)">
<path d="M261.203 279.078L269.286 281.903C269.013 284.631 268.808 286.953 268.672 288.869C268.535 290.785 267.87 292.376 266.677 293.643L263.556 298.465H262.789C261.05 297.134 259.583 296.03 258.39 295.153C257.196 294.276 255.9 293.643 254.502 293.253L253.274 297.832C252.865 298.254 251.023 299.959 247.749 302.947C244.509 305.934 242.685 308.89 242.276 311.812C241.764 312.462 241.287 313.728 240.843 315.612C240.4 317.463 239.974 318.697 239.564 319.314C238.916 319.704 238.217 319.898 237.467 319.898C236.478 319.898 235.523 319.59 234.602 318.973C233.579 317.934 233.068 316.44 233.068 314.491C233.068 313.842 233.119 313.144 233.221 312.397C233.323 311.617 233.511 310.822 233.784 310.01C232.454 310.14 231.124 310.237 229.794 310.302C229.589 310.367 229.385 310.253 229.18 309.961C228.975 309.669 228.771 309.555 228.566 309.62C228.054 310.27 227.304 312.348 226.315 315.855C225.36 319.33 223.792 321.473 221.609 322.285C220.518 322.285 219.648 321.961 219 321.311C220.671 313.257 222.393 305.204 224.167 297.15C224.303 296.468 224.201 295.607 223.86 294.568C223.553 293.497 223.399 292.798 223.399 292.474C223.399 292.116 223.502 291.678 223.706 291.158C226.025 289.177 229.248 287.148 233.375 285.069C237.501 282.959 240.605 281.367 242.685 280.296C246.948 279.419 251.245 278.558 255.576 277.714C257.656 277.714 259.532 278.169 261.203 279.078ZM251.381 278.98C251.04 279.045 250.154 279.224 248.721 279.516C247.289 279.776 245.669 280.068 243.862 280.393C242.088 280.718 240.69 281.481 239.667 282.682C239.019 283.007 238.456 283.332 237.979 283.657C237.501 283.949 237.007 284.095 236.495 284.095C235.302 284.615 233.801 285.427 231.993 286.531C230.186 287.635 228.788 288.447 227.799 288.966C228.208 288.966 228.805 288.788 229.589 288.43C230.374 288.041 230.902 287.846 231.175 287.846C230.732 288.333 229.777 288.869 228.31 289.453C226.844 290.006 225.974 290.736 225.701 291.645C225.701 293.399 225.377 295.494 224.729 297.929C224.116 300.332 223.433 302.995 222.683 305.918C222.888 305.983 223.144 306.032 223.451 306.064C223.757 306.097 223.911 306.21 223.911 306.405C223.638 306.697 223.365 306.844 223.092 306.844L223.706 307.428C223.638 307.688 223.399 307.785 222.99 307.72C222.581 307.655 222.206 308.435 221.865 310.059C221.558 311.682 221.166 313.956 220.688 316.878C220.688 317.69 220.79 318.502 220.995 319.314C220.586 319.963 220.211 320.58 219.87 321.165C220.142 321.457 220.552 321.603 221.097 321.603C221.302 321.603 221.507 321.603 221.711 321.603C222.018 321.473 222.308 321.344 222.581 321.214C222.854 321.051 223.127 320.808 223.399 320.483C223.672 320.158 223.996 319.655 224.371 318.973C224.712 317.999 225.053 317.008 225.394 316.001C225.394 315.547 225.156 315.173 224.678 314.881C225.36 314.426 225.906 313.712 226.315 312.738C226.759 311.731 227.151 310.757 227.492 309.815C227.492 309.62 227.372 309.507 227.134 309.474C226.895 309.442 226.673 309.393 226.469 309.328L226.366 308.5L228.003 308.208C228.651 306.227 229.282 304.197 229.896 302.119C229.896 301.339 229.726 300.641 229.385 300.024C229.589 299.829 229.862 299.91 230.203 300.267C230.578 300.592 230.902 300.641 231.175 300.414L230.612 301.339C232.079 301.664 233.272 301.193 234.193 299.927C233.375 299.472 232.812 299.05 232.505 298.66C231.891 298.66 231.584 298.416 231.584 297.929C231.721 297.475 231.823 297.101 231.891 296.809C231.959 296.517 231.959 296.257 231.891 296.03C232.096 296.03 232.3 296.208 232.505 296.565C232.369 297.54 232.982 298.335 234.347 298.952C235.711 299.537 236.495 300.105 236.7 300.657C236.632 300.105 236.308 299.488 235.728 298.806C235.182 298.092 234.875 297.637 234.807 297.442L237.109 299.342C237.109 299.017 236.973 298.563 236.7 297.978C236.427 297.361 236.291 296.89 236.291 296.565C236.768 297.215 237.194 297.718 237.569 298.075C237.979 298.4 238.183 298.79 238.183 299.245C238.183 299.569 238.115 299.959 237.979 300.414C237.842 300.836 237.689 301.388 237.518 302.07C237.348 302.719 236.683 304.457 235.523 307.282C234.364 310.107 233.784 312.283 233.784 313.809C233.784 315.076 234.023 316.277 234.5 317.414C234.841 316.407 235.148 315.579 235.421 314.93C235.728 314.248 236.291 313.907 237.109 313.907C238.507 313.907 239.36 314.345 239.667 315.222C240.212 313.598 240.758 311.991 241.304 310.4C240.963 310.465 240.605 310.497 240.229 310.497C239.854 310.497 239.599 310.497 239.462 310.497C238.473 310.497 237.689 310.302 237.109 309.912C237.28 309.848 237.45 309.815 237.621 309.815C237.791 309.815 237.979 309.815 238.183 309.815L237.365 309.133C237.638 308.841 238.013 308.695 238.49 308.695C238.831 308.695 239.36 308.857 240.076 309.182C240.826 309.474 241.423 309.555 241.866 309.425C242.071 308.354 242.787 307.022 244.015 305.431C245.277 303.84 245.993 302.914 246.163 302.654L245.192 301.826L243.606 300.414C244.117 300.576 244.782 300.868 245.601 301.29C246.453 301.713 247.016 301.924 247.289 301.924C247.835 301.924 248.363 301.566 248.875 300.852C250.682 299.91 252.063 297.881 253.018 294.763C254.007 291.613 255.099 289.583 256.292 288.674C258.338 288.479 260.146 288.869 261.715 289.843C263.283 290.785 264.733 291.629 266.063 292.376C266.813 291.499 267.308 290.509 267.546 289.405C267.819 288.301 267.956 286.985 267.956 285.459V282.975C267.956 282.455 267.393 282.098 266.268 281.903C265.142 281.676 263.318 281.026 260.794 279.955C258.304 278.85 256.326 278.298 254.86 278.298C253.598 278.298 252.439 278.526 251.381 278.98ZM257.98 289.843V290.282L264.375 295.055C264.375 294.99 264.511 294.828 264.784 294.568C265.057 294.276 265.125 294.032 264.989 293.838C264.238 292.863 263.318 292.116 262.226 291.597C261.135 291.045 259.72 290.46 257.98 289.843ZM257.469 290.866C258.151 291.516 258.935 292.181 259.822 292.863C260.743 293.513 261.561 294.016 262.277 294.373C261.868 293.821 261.288 293.253 260.538 292.668C259.822 292.051 258.799 291.451 257.469 290.866ZM224.678 291.158C224.405 291.418 224.269 291.71 224.269 292.035C224.269 292.392 224.371 292.668 224.576 292.863L224.678 291.158ZM257.98 293.058L256.395 292.279L258.492 293.643L257.98 293.058ZM260.589 294.276L263.301 296.663C263.403 296.598 263.454 296.533 263.454 296.468C263.454 296.403 263.488 296.224 263.556 295.932C262.84 295.672 262.226 295.38 261.715 295.055C261.237 294.731 260.862 294.471 260.589 294.276ZM234.807 300.657V301.047C235.319 301.047 235.574 300.982 235.574 300.852C235.199 300.722 234.943 300.657 234.807 300.657ZM231.073 302.654L229.078 308.5L229.589 309.328C230.135 309.458 230.561 309.523 230.868 309.523C231.414 309.523 232.011 309.393 232.658 309.133C233.341 308.841 233.852 308.63 234.193 308.5C234.841 306.324 235.506 304.132 236.188 301.924C235.574 301.924 235.114 301.924 234.807 301.924C234.671 303.06 234.466 303.937 234.193 304.554C233.92 305.139 233.358 305.658 232.505 306.113C232.88 305.528 233.238 304.928 233.579 304.311C233.92 303.661 234.091 302.995 234.091 302.313C234.091 301.989 234.057 301.729 233.989 301.534C233.647 301.664 233.153 301.859 232.505 302.119C231.891 302.378 231.414 302.557 231.073 302.654ZM238.49 314.784C238.013 314.589 237.655 314.475 237.416 314.443C237.211 314.41 237.007 314.524 236.802 314.784C237.314 315.206 237.945 315.271 238.695 314.979L238.49 314.784ZM235.677 315.807C235.472 316.586 235.37 317.057 235.37 317.219C235.37 317.544 235.54 317.804 235.881 317.999C236.7 318.129 237.331 318.193 237.774 318.193C238.183 318.193 238.524 318.064 238.797 317.804C239.138 316.862 239.138 316.196 238.797 315.807C238.593 315.937 238.251 315.92 237.774 315.758C237.331 315.596 236.87 315.417 236.393 315.222C236.12 315.222 235.881 315.417 235.677 315.807ZM235.165 317.999C236.052 319.005 236.99 319.33 237.979 318.973C237.194 318.843 236.614 318.729 236.239 318.632C235.864 318.534 235.506 318.323 235.165 317.999ZM220.381 319.606V318.583L219.972 319.801L220.381 319.606ZM238.183 308.013C239.445 308.013 240.485 308.419 241.304 309.23L238.183 308.013ZM255.781 278.883C256.258 278.753 256.787 278.818 257.367 279.078C258.049 279.565 258.526 279.906 258.799 280.101L255.781 278.883ZM243.299 301.047L244.987 301.631C244.714 301.696 244.424 301.664 244.117 301.534C243.844 301.404 243.572 301.242 243.299 301.047ZM250.767 294.032C251.177 292.376 251.756 290.866 252.507 289.502C253.291 288.138 254.348 287.067 255.678 286.287C254.553 287.196 253.615 288.593 252.865 290.476C252.797 290.411 252.763 290.314 252.763 290.184C252.319 290.574 251.944 291.158 251.637 291.938C251.33 292.685 251.04 293.383 250.767 294.032ZM231.482 305.821C231.618 305.886 231.738 306.08 231.84 306.405C231.942 306.697 232.13 306.762 232.403 306.6C231.857 307.022 231.516 306.957 231.38 306.405L231.482 305.821Z" fill="#CD4138"/>
</g>
<g filter="url(#filter3_d_601_39)">
<path d="M480.194 268.3C480.741 268.1 481.237 268 481.681 268C482.878 268 483.749 268.516 484.296 269.548C484.57 270.413 484.775 271.544 484.912 272.942C485.049 274.34 485.117 275.555 485.117 276.587V278.933C486.519 281.263 487.903 284.807 489.271 289.566C490.638 294.326 491.596 297.387 492.143 298.752C492.143 301.914 491.613 305.042 490.553 308.137C489.527 311.232 488.672 313.795 487.989 315.825C487.339 316.857 486.895 318.088 486.655 319.519C486.416 320.951 486.296 322.548 486.296 324.312V327.207C485.442 328.372 484.348 329.354 483.014 330.153C481.681 330.918 479.664 331.534 476.963 332L469.886 330.053C469.886 329.254 469.715 327.956 469.373 326.159C469.031 324.329 468.861 323.064 468.861 322.365C467.39 320.934 466.399 319.453 465.886 317.922C465.408 316.391 464.826 313.695 464.143 309.835C464.143 307.239 464.331 304.776 464.707 302.446C465.083 300.116 465.698 297.67 466.553 295.108C467.681 294.542 468.792 293.959 469.886 293.36C469.749 292.528 469.681 291.879 469.681 291.413C469.681 290.715 469.869 290.099 470.245 289.566C470.655 289.034 471.168 288.651 471.784 288.418C472.433 288.152 473.237 288.019 474.194 288.019H475.271C475.681 288.451 476.057 288.951 476.399 289.516C476.775 290.082 477.134 290.715 477.476 291.413C477.749 290.715 477.92 289.699 477.989 288.368C478.057 287.004 478.091 286.205 478.091 285.972L478.604 281.08C477.989 279.183 477.39 277.236 476.809 275.239C476.809 274.107 477.305 273.225 478.296 272.593C478.433 271.428 478.587 270.513 478.758 269.847C478.929 269.148 479.408 268.632 480.194 268.3ZM480.502 268.699C479.51 269.598 479.134 270.762 479.373 272.193C480.331 272.193 481.237 272.709 482.091 273.741C482.707 274.673 483.373 275.588 484.091 276.487V273.941C484.091 272.376 483.989 271.212 483.784 270.446C483.578 269.647 483.134 269.148 482.45 268.949C481.801 268.716 481.151 268.632 480.502 268.699ZM478.912 272.892C477.955 273.591 477.476 274.373 477.476 275.239C477.476 275.804 477.784 276.753 478.399 278.084C479.049 279.415 479.373 280.248 479.373 280.58C479.647 281.246 480.057 281.579 480.604 281.579C481.937 281.179 483.271 280.78 484.604 280.381L482.912 276.487C482.365 275.721 481.784 274.939 481.168 274.14C480.587 273.308 479.835 272.892 478.912 272.892ZM485.014 281.08C484.194 280.88 483.408 280.963 482.655 281.329C481.937 281.695 481.254 282.061 480.604 282.427C480.399 282.827 480.296 283.16 480.296 283.426C480.296 284.058 480.467 284.657 480.809 285.223C481.185 285.789 481.544 286.355 481.886 286.92L485.989 285.573L486.296 285.772L484.296 286.621L487.117 286.072C486.912 285.273 486.775 284.674 486.707 284.275L485.014 281.08ZM479.168 282.827L479.373 283.925C479.51 283.792 479.544 283.592 479.476 283.326C479.408 283.06 479.305 282.893 479.168 282.827ZM479.014 284.874C478.878 285.206 478.775 285.772 478.707 286.571C478.638 287.336 478.604 287.886 478.604 288.218V290.914L481.681 290.814C481.544 289.783 481.373 289.001 481.168 288.468C480.997 287.902 480.536 286.704 479.784 284.874H479.014ZM487.322 286.92C487.117 286.854 486.809 286.821 486.399 286.821C485.613 286.821 484.895 286.92 484.245 287.12C483.63 287.32 482.878 287.653 481.989 288.119C482.262 289.55 482.484 290.531 482.655 291.064C482.826 291.563 483.202 292.046 483.784 292.512C484.057 292.445 484.467 292.412 485.014 292.412C485.527 292.412 486.194 292.528 487.014 292.761C487.869 292.961 488.604 293.127 489.22 293.261L488.809 291.413L487.322 286.92ZM471.989 288.967C470.963 289.699 470.519 290.581 470.655 291.613C471.613 290.448 472.861 289.866 474.399 289.866C475.049 289.866 475.51 289.999 475.784 290.265C475.51 289.2 474.775 288.668 473.578 288.668C473.1 288.668 472.57 288.768 471.989 288.967ZM473.784 290.914C473.305 291.047 472.878 291.28 472.502 291.613C472.16 291.946 471.818 292.428 471.476 293.061C471.202 293.527 471.271 293.826 471.681 293.959C472.091 294.093 472.758 294.259 473.681 294.459C473.544 294.059 473.664 293.66 474.04 293.261C474.416 292.861 474.826 292.445 475.271 292.012C474.758 291.68 474.262 291.314 473.784 290.914ZM479.989 291.314C479.578 291.447 479.237 291.547 478.963 291.613C478.724 291.68 478.57 291.813 478.502 292.012C478.843 292.212 479.271 292.245 479.784 292.112C480.331 291.979 480.895 291.813 481.476 291.613C480.553 291.413 480.057 291.314 479.989 291.314ZM476.707 292.512C476.296 293.277 475.955 293.826 475.681 294.159C475.408 294.492 475.014 294.841 474.502 295.207C473.955 295.54 473.271 295.474 472.45 295.008C471.664 294.509 471.134 294.326 470.861 294.459V295.108C472.331 297.005 473.715 298.286 475.014 298.952C476.314 299.584 477.51 299.8 478.604 299.601C478.604 299.867 478.399 300.067 477.989 300.2C477.784 300.732 477.92 301.215 478.399 301.647C478.912 302.047 479.373 302.413 479.784 302.746C479.647 302.879 479.527 302.962 479.425 302.995C479.322 303.029 479.237 303.045 479.168 303.045C479.237 303.678 479.527 304.31 480.04 304.942C480.553 305.541 480.946 306.007 481.22 306.34L481.014 306.54C480.262 306.274 479.613 305.774 479.066 305.042C478.553 304.277 478.194 303.694 477.989 303.295C475.732 306.157 474.604 309.452 474.604 313.179C474.604 315.376 474.997 317.256 475.784 318.821C476.262 318.887 477.1 319.054 478.296 319.32C479.493 319.586 480.365 319.719 480.912 319.719C481.561 319.719 482.194 319.619 482.809 319.42C484.997 318.188 486.296 316.607 486.707 314.677C487.117 312.713 487.322 310.001 487.322 306.54C487.254 306.673 487.134 306.773 486.963 306.839C486.792 306.906 486.604 306.972 486.399 307.039C486.741 306.573 487.031 306.074 487.271 305.541C487.51 304.976 487.63 304.46 487.63 303.994C487.63 303.728 487.596 303.495 487.527 303.295L481.989 296.406L480.502 298.153C479.681 298.486 479.151 298.519 478.912 298.253L481.373 295.108C480.997 294.675 480.228 294.192 479.066 293.66C477.937 293.127 477.151 292.745 476.707 292.512ZM479.989 292.761C479.989 293.028 480.245 293.227 480.758 293.36C481.305 293.493 481.51 293.294 481.373 292.761H479.989ZM474.502 294.059C475.288 293.66 475.578 293.261 475.373 292.861C475.168 292.928 474.929 293.111 474.655 293.41C474.416 293.71 474.365 293.926 474.502 294.059ZM485.989 293.161L484.604 292.861L484.399 293.061L485.989 293.161ZM482.091 293.061C481.955 293.194 481.852 293.394 481.784 293.66C481.715 293.926 481.784 294.126 481.989 294.259C482.262 294.259 482.707 293.959 483.322 293.36C483.049 293.094 482.638 292.994 482.091 293.061ZM489.63 294.658C489.425 294.592 488.758 294.409 487.63 294.109C486.536 293.81 485.698 293.66 485.117 293.66C484.296 293.66 483.63 293.926 483.117 294.459C482.98 295.024 483.134 295.624 483.578 296.256C484.057 296.855 484.433 297.387 484.707 297.853C484.98 298.319 485.51 298.552 486.296 298.552C486.775 298.552 487.493 298.386 488.45 298.053C489.442 297.72 490.194 297.554 490.707 297.554L490.399 295.807L489.63 294.658ZM469.271 294.459C468.484 294.825 467.801 295.191 467.22 295.557C466.638 295.923 466.348 296.555 466.348 297.454C466.143 297.787 466.04 298.153 466.04 298.552C466.04 299.051 466.177 299.501 466.45 299.9C466.724 300.3 467.1 300.499 467.578 300.499C466.963 299.834 466.604 299.384 466.502 299.151C466.399 298.885 466.416 298.586 466.553 298.253L466.963 298.353C466.963 298.219 466.963 297.953 466.963 297.554C466.963 297.154 467.1 296.905 467.373 296.805C467.784 298.935 468.382 300.716 469.168 302.147C469.955 303.578 470.57 304.676 471.014 305.441C471.459 306.174 472.006 306.606 472.655 306.739C472.348 306.54 472.194 306.14 472.194 305.541V304.393C472.331 303.495 472.861 303.195 473.784 303.495C473.647 302.463 473.561 301.631 473.527 300.998C473.493 300.333 473.339 299.651 473.066 298.952C472.553 298.619 472.04 298.153 471.527 297.554C471.014 296.921 470.262 295.89 469.271 294.459ZM480.707 297.254L481.373 296.106L480.399 297.354L480.707 297.254ZM490.707 298.353C489.237 298.353 487.698 298.702 486.091 299.401L487.322 300.998C488.04 300.998 488.775 300.782 489.527 300.349C490.314 299.917 490.878 299.634 491.22 299.501L490.707 298.353ZM474.758 302.945C474.895 301.514 475.168 300.599 475.578 300.2C475.168 300 474.826 299.933 474.553 300C474.314 300.067 474.194 300.233 474.194 300.499C474.331 301.331 474.519 302.147 474.758 302.945ZM490.091 300.799H490.502C490.638 301.165 490.348 301.481 489.63 301.747C488.946 302.014 488.57 302.313 488.502 302.646C488.775 303.278 488.912 304.127 488.912 305.192C488.843 306.989 488.775 308.736 488.707 310.434C489.322 308.171 489.835 306.24 490.245 304.643C490.69 303.045 491.014 301.664 491.22 300.499C490.878 300.433 490.621 300.449 490.45 300.549C490.279 300.649 490.16 300.732 490.091 300.799ZM467.784 301.647C467.647 301.581 467.373 301.381 466.963 301.048C466.553 300.682 466.194 300.666 465.886 300.998C465.818 301.431 465.63 302.446 465.322 304.044C465.014 305.641 464.861 306.889 464.861 307.788V308.886C465.544 311.881 466.143 314.444 466.655 316.574C467.202 318.671 468.245 320.401 469.784 321.766H471.066C472.125 321.766 473.049 321.65 473.835 321.417C474.655 321.184 475.339 320.718 475.886 320.019C474.484 317.456 473.784 314.777 473.784 311.981C473.784 310.55 473.955 309.352 474.296 308.387C474.023 308.919 473.767 309.485 473.527 310.084C473.288 310.65 473.202 311.166 473.271 311.632C473.339 312.198 473.373 312.614 473.373 312.88C473.373 313.213 473.271 313.446 473.066 313.579C472.553 313.046 472.296 312.397 472.296 311.632C472.296 310.966 472.416 310.301 472.655 309.635C472.929 308.936 473.202 308.254 473.476 307.588L472.655 307.788C472.143 307.289 471.681 307.039 471.271 307.039C470.792 307.039 470.279 307.422 469.732 308.187C469.22 308.919 468.861 309.352 468.655 309.485L468.45 309.186L470.348 306.44C469.835 305.774 469.373 305.009 468.963 304.144C468.553 303.278 468.16 302.446 467.784 301.647ZM475.886 301.847C475.544 302.18 475.578 302.929 475.989 304.094C476.262 304.027 476.502 303.877 476.707 303.644C476.946 303.411 477.237 302.912 477.578 302.147C477.442 301.88 477.168 301.764 476.758 301.797C476.382 301.83 476.091 301.847 475.886 301.847ZM473.373 304.493C472.963 304.626 472.792 304.892 472.861 305.292C472.997 305.658 473.168 306.007 473.373 306.34C473.92 306.14 474.228 305.791 474.296 305.292C474.228 305.092 474.143 304.859 474.04 304.593C473.937 304.327 473.715 304.293 473.373 304.493ZM483.476 320.368H484.296C484.296 320.202 484.296 320.019 484.296 319.819C483.818 319.686 483.544 319.869 483.476 320.368ZM483.784 327.607C483.989 326.442 484.091 325.41 484.091 324.512C484.023 323.014 483.989 321.833 483.989 320.967C483.647 322.199 483.476 323.463 483.476 324.761C483.476 325.826 483.578 326.775 483.784 327.607ZM478.399 321.766C478.331 321.5 478.211 321.4 478.04 321.466C477.869 321.533 477.715 321.6 477.578 321.666V330.552C477.715 330.552 477.989 330.519 478.399 330.452V321.766ZM479.014 321.766C479.014 322.465 478.997 323.18 478.963 323.913C478.929 324.612 478.912 325.327 478.912 326.059C478.912 327.69 479.066 329.088 479.373 330.253L480.707 330.053C481.63 329.853 482.279 329.487 482.655 328.955C483.031 328.389 483.22 327.707 483.22 326.908C483.22 326.342 483.117 325.41 482.912 324.112C482.707 322.814 482.672 321.899 482.809 321.367L479.014 321.766ZM476.604 321.666C476.604 322.698 476.57 323.713 476.502 324.711C476.433 325.677 476.365 326.642 476.296 327.607C476.296 328.639 476.399 329.654 476.604 330.652C477.049 328.689 477.271 326.825 477.271 325.061L477.066 321.666H476.604ZM473.271 323.314C472.861 323.513 472.296 323.613 471.578 323.613C470.963 323.613 470.553 323.38 470.348 322.914C470.348 323.846 470.416 324.961 470.553 326.259C470.69 327.557 470.826 328.689 470.963 329.654L475.578 330.552C475.647 330.153 475.715 329.288 475.784 327.956C475.852 326.625 475.886 325.926 475.886 325.86V322.066L473.271 323.314ZM473.271 313.928L474.758 317.972C474.45 317.772 474.177 317.34 473.937 316.674C473.698 315.975 473.476 315.326 473.271 314.727V313.928ZM478.091 298.353C478.296 297.754 478.672 297.154 479.22 296.555C479.801 295.923 480.433 295.44 481.117 295.108C480.502 295.507 479.92 296.056 479.373 296.755C478.861 297.421 478.433 297.953 478.091 298.353ZM480.399 298.752C480.536 298.219 481.031 297.754 481.886 297.354C481.749 297.754 481.254 298.219 480.399 298.752Z" fill="#CD4138"/>
</g>
<defs>
<filter id="filter0_d_601_39" x="324.715" y="273.142" width="64.0003" height="53.7141" filterUnits="userSpaceOnUse" color-interpolation-filters="sRGB">
<feFlood flood-opacity="0" result="BackgroundImageFix"/>
<feColorMatrix in="SourceAlpha" type="matrix" values="0 0 0 0 0 0 0 0 0 0 0 0 0 0 0 0 0 0 127 0" result="hardAlpha"/>
<feOffset/>
<feGaussianBlur stdDeviation="2.28571"/>
<feColorMatrix type="matrix" values="0 0 0 0 0.803922 0 0 0 0 0.254902 0 0 0 0 0.219608 0 0 0 0.9 0"/>
<feBlend mode="normal" in2="BackgroundImageFix" result="effect1_dropShadow_601_39"/>
<feBlend mode="normal" in="SourceGraphic" in2="effect1_dropShadow_601_39" result="shape"/>
</filter>
<filter id="filter1_d_601_39" x="102.429" y="263.429" width="41.1429" height="73.1429" filterUnits="userSpaceOnUse" color-interpolation-filters="sRGB">
<feFlood flood-opacity="0" result="BackgroundImageFix"/>
<feColorMatrix in="SourceAlpha" type="matrix" values="0 0 0 0 0 0 0 0 0 0 0 0 0 0 0 0 0 0 127 0" result="hardAlpha"/>
<feOffset/>
<feGaussianBlur stdDeviation="2.28571"/>
<feColorMatrix type="matrix" values="0 0 0 0 0.803922 0 0 0 0 0.254902 0 0 0 0 0.219608 0 0 0 0.9 0"/>
<feBlend mode="normal" in2="BackgroundImageFix" result="effect1_dropShadow_601_39"/>
<feBlend mode="normal" in="SourceGraphic" in2="effect1_dropShadow_601_39" result="shape"/>
</filter>
<filter id="filter2_d_601_39" x="214.429" y="273.142" width="59.429" height="53.7141" filterUnits="userSpaceOnUse" color-interpolation-filters="sRGB">
<feFlood flood-opacity="0" result="BackgroundImageFix"/>
<feColorMatrix in="SourceAlpha" type="matrix" values="0 0 0 0 0 0 0 0 0 0 0 0 0 0 0 0 0 0 127 0" result="hardAlpha"/>
<feOffset/>
<feGaussianBlur stdDeviation="2.28571"/>
<feColorMatrix type="matrix" values="0 0 0 0 0.803922 0 0 0 0 0.254902 0 0 0 0 0.219608 0 0 0 0.9 0"/>
<feBlend mode="normal" in2="BackgroundImageFix" result="effect1_dropShadow_601_39"/>
<feBlend mode="normal" in="SourceGraphic" in2="effect1_dropShadow_601_39" result="shape"/>
</filter>
<filter id="filter3_d_601_39" x="459.571" y="263.429" width="37.1429" height="73.1429" filterUnits="userSpaceOnUse" color-interpolation-filters="sRGB">
<feFlood flood-opacity="0" result="BackgroundImageFix"/>
<feColorMatrix in="SourceAlpha" type="matrix" values="0 0 0 0 0 0 0 0 0 0 0 0 0 0 0 0 0 0 127 0" result="hardAlpha"/>
<feOffset/>
<feGaussianBlur stdDeviation="2.28571"/>
<feColorMatrix type="matrix" values="0 0 0 0 0.803922 0 0 0 0 0.254902 0 0 0 0 0.219608 0 0 0 0.9 0"/>
<feBlend mode="normal" in2="BackgroundImageFix" result="effect1_dropShadow_601_39"/>
<feBlend mode="normal" in="SourceGraphic" in2="effect1_dropShadow_601_39" result="shape"/>
</filter>
</defs>
</svg>
