<svg width="320" height="320" viewBox="0 0 320 320" fill="none" xmlns="http://www.w3.org/2000/svg">
<rect width="320" height="320" fill="#232121"/>
<g filter="url(#filter0_d_623_117)">
<path d="M176.719 254.379C176.719 253.748 176.966 253.227 177.46 252.817C177.987 252.375 178.63 252.154 179.387 252.154C179.783 252.154 180.178 252.249 180.573 252.438C181.66 254.079 183.439 256.115 185.91 258.545C188.414 260.943 189.946 262.505 190.506 263.231C190.506 262.442 190.786 261.748 191.346 261.148C191.939 260.517 192.631 260.202 193.422 260.202C193.85 260.075 194.393 260.107 195.052 260.296C195.744 260.486 196.222 260.517 196.485 260.391C196.815 259.381 197.54 258.639 198.66 258.166C199.78 257.661 200.933 257.409 202.119 257.409C202.943 257.851 203.519 258.071 203.848 258.071C204.178 258.071 204.376 257.819 204.441 257.314C204.738 256.462 205.364 255.925 206.319 255.705C207.308 255.484 208.477 255.373 209.828 255.373C211.31 256.194 212.562 257.424 213.584 259.066C214.605 260.675 215.445 262 216.104 263.042C215.972 263.547 216.153 264.32 216.647 265.361C217.174 266.403 217.438 267.018 217.438 267.207C219.777 264.367 221.853 262 223.665 260.107C225.509 258.182 227.618 257.219 229.99 257.219C230.715 257.219 231.456 257.361 232.214 257.645C233.004 257.929 233.466 258.718 233.597 260.012C233.531 260.391 233.153 260.738 232.461 261.054C231.802 261.338 231.077 261.637 230.286 261.953C229.529 262.742 228.722 264.131 227.865 266.119C227.041 268.075 226.366 269.338 225.839 269.906C224.752 271.768 223.862 273.929 223.17 276.391C221.754 278.221 220.288 280.099 218.772 282.024C217.257 283.949 215.692 285.527 214.078 286.758C213.88 287.105 213.748 287.452 213.682 287.799C213.616 288.146 213.584 288.541 213.584 288.983C213.584 289.33 213.616 289.835 213.682 290.497C213.748 291.128 213.781 291.633 213.781 292.012C213.781 292.391 213.748 292.706 213.682 292.959C212.859 293.811 212.233 294.442 211.805 294.852C211.376 295.231 210.108 296.162 207.999 297.645C207.67 297.771 207.159 297.882 206.468 297.977C205.809 298.071 205.1 298.119 204.343 298.119C202.794 298.119 201.279 297.929 199.796 297.551C198.314 297.14 196.765 296.556 195.151 295.799C194.888 295.073 194.657 294.158 194.459 293.053C194.262 291.917 194.097 290.797 193.965 289.693C192.186 287.736 190.753 285.18 189.666 282.024C188.348 277.322 187.014 272.604 185.663 267.87C183.028 265.093 180.87 262.758 179.19 260.864C177.542 258.939 176.719 256.778 176.719 254.379ZM177.658 253.622C177.526 254.253 177.46 254.742 177.46 255.089C177.46 256.099 177.724 257.046 178.251 257.929C178.778 258.813 179.552 259.697 180.573 260.58C181.067 260.643 181.562 260.486 182.056 260.107C182.55 259.728 183.044 259.35 183.538 258.971C183.374 259.413 183.143 259.744 182.846 259.965C182.55 260.186 182.039 260.533 181.314 261.006C181.578 262.142 182.237 263.042 183.291 263.705C183.456 263.263 183.917 262.632 184.675 261.811C185.465 260.991 185.861 260.328 185.861 259.823C185.498 259.444 185.169 259.113 184.872 258.829C184.576 258.513 184.296 258.355 184.032 258.355C183.835 258.355 183.637 258.529 183.439 258.876L183.835 257.693C183.637 257.503 183.061 256.651 182.105 255.137C181.15 253.622 180.277 252.864 179.486 252.864C178.86 252.864 178.251 253.117 177.658 253.622ZM208.84 255.941C207.752 256.131 206.813 256.352 206.023 256.604C205.265 256.825 204.853 257.346 204.787 258.166L205.183 267.018C205.71 267.207 206.435 267.223 207.357 267.065C208.279 266.876 208.807 266.781 208.938 266.781C207.983 267.507 206.797 267.87 205.38 267.87C205.446 268.249 205.627 268.817 205.924 269.574C206.22 270.3 206.402 270.774 206.468 270.994L207.999 270.474C208.691 270.284 209.268 270.505 209.729 271.136C210.19 271.736 210.569 272.225 210.866 272.604C211.393 270.994 211.689 268.596 211.755 265.409C211.821 262.19 211.92 260.044 212.052 258.971C212.447 259.223 212.678 259.712 212.743 260.438C212.809 261.133 212.892 261.795 212.991 262.426L213.88 261.006C213.419 259.965 212.76 259.034 211.903 258.213C211.047 257.361 210.026 256.604 208.84 255.941ZM201.921 257.977C200.702 258.166 199.747 258.403 199.055 258.687C198.396 258.939 197.803 259.444 197.276 260.202C197.803 264.209 198.347 267.192 198.907 269.148C199.5 271.073 200.719 272.841 202.564 274.45C202.564 274.198 202.728 273.977 203.058 273.787C203.387 273.598 203.618 273.472 203.75 273.409C204.376 273.156 204.886 273.109 205.282 273.267C205.677 273.424 206.253 273.724 207.011 274.166L205.183 270.474C204.557 270.884 203.997 271.184 203.503 271.373C203.008 271.562 202.415 271.657 201.724 271.657C201.592 271.72 201.46 271.673 201.328 271.515C201.196 271.357 201.131 271.247 201.131 271.184C201.394 271.058 202.004 270.9 202.959 270.71C203.947 270.49 204.623 270.221 204.985 269.906C204.557 268.991 204.26 268.044 204.096 267.065C203.931 266.056 203.848 264.872 203.848 263.515C203.848 262.789 203.848 262.079 203.848 261.385C203.848 260.659 203.881 259.949 203.947 259.255C203.618 258.403 202.943 257.977 201.921 257.977ZM232.016 258.166C231.654 258.103 231.143 258.071 230.484 258.071C228.672 258.071 227.058 258.576 225.641 259.586C224.225 260.596 222.94 261.906 221.787 263.515C221.721 263.894 222.034 264.43 222.726 265.125C223.45 265.787 223.665 266.308 223.368 266.687C222.841 266.687 222.33 266.371 221.836 265.74C221.375 265.077 221.045 264.683 220.848 264.557C220.452 264.904 220.024 265.314 219.563 265.787C219.135 266.261 218.426 267.239 217.438 268.722C217.767 269.701 218.13 270.679 218.525 271.657C218.921 272.635 219.497 273.409 220.255 273.977C219.431 273.661 218.772 273.109 218.278 272.32C217.784 271.499 217.257 270.442 216.697 269.148C216.17 269.464 215.906 269.937 215.906 270.568C215.906 271.231 215.906 271.878 215.906 272.509C215.84 272.131 215.676 271.91 215.412 271.847C215.412 272.288 215.478 272.762 215.61 273.267C215.741 273.74 215.906 274.308 216.104 274.971C215.28 273.677 214.868 272.241 214.868 270.663L212.052 272.131C211.986 272.572 211.772 272.998 211.409 273.409C211.047 273.787 210.717 274.103 210.421 274.355C209.498 274.166 208.56 274.497 207.604 275.349C206.649 276.17 205.842 276.612 205.183 276.675C204.293 277.022 203.634 277.622 203.206 278.474C202.778 279.294 202.382 280.351 202.02 281.645C202.58 282.813 203.008 283.697 203.305 284.296C203.601 284.864 204.096 285.558 204.787 286.379C205.907 286.568 207.077 286.663 208.296 286.663C209.844 286.663 211.228 286.568 212.447 286.379C213.864 285.874 215.363 284.706 216.944 282.876C218.558 281.014 220.304 278.947 222.182 276.675C222.841 274.56 223.368 272.983 223.763 271.941C224.192 270.9 224.818 269.764 225.641 268.533L224.702 268.154C224.768 267.965 224.9 267.87 225.098 267.87C225.295 267.87 225.509 267.87 225.74 267.87L225.098 267.302C225.855 267.302 226.366 267.207 226.63 267.018C227.157 265.44 227.947 263.957 229.002 262.568C230.056 261.18 231.324 260.107 232.807 259.35L232.708 258.876L232.016 258.166ZM186.948 260.817C186.816 260.596 186.619 260.486 186.355 260.486C186.091 260.486 185.927 260.628 185.861 260.912C185.993 261.227 185.894 261.574 185.564 261.953C185.268 262.332 185.054 262.584 184.922 262.71L184.724 262.521C184.988 262.269 185.087 262.079 185.021 261.953C184.889 262.079 184.625 262.442 184.23 263.042L184.922 262.947C184.197 263.389 183.835 263.831 183.835 264.273C183.835 264.683 184.098 265.125 184.625 265.598C185.153 266.071 185.795 266.608 186.553 267.207C186.75 267.081 187.195 266.592 187.887 265.74C188.612 264.888 189.205 264.367 189.666 264.178L186.948 260.817ZM192.236 261.385C191.741 261.637 191.412 262.016 191.247 262.521C191.083 262.994 191 263.578 191 264.273C191.89 267.46 192.746 270.063 193.57 272.083C194.426 274.071 196.074 275.349 198.511 275.917C198.446 275.349 198.577 274.876 198.907 274.497C199.236 274.087 199.714 273.724 200.34 273.409C199.978 272.557 199.632 272.131 199.302 272.131C199.302 272.383 199.137 272.604 198.808 272.793C198.479 272.951 198.314 273.093 198.314 273.219C197.754 273.409 197.21 273.503 196.683 273.503C196.057 273.503 195.579 273.377 195.25 273.125C195.876 273.125 196.403 273.061 196.831 272.935C197.26 272.777 198.083 272.383 199.302 271.752C198.841 270.647 198.38 269.338 197.918 267.823C197.49 266.308 197.013 264.162 196.485 261.385C195.728 261.006 194.986 260.817 194.262 260.817C193.504 260.817 192.829 261.006 192.236 261.385ZM213.979 261.953L213.88 262.521C213.946 262.395 213.979 262.269 213.979 262.142V261.953ZM214.572 262.71C214.045 263.31 213.518 263.941 212.991 264.604C212.496 265.235 212.381 265.898 212.645 266.592C213.139 266.529 213.649 266.245 214.177 265.74C214.704 265.235 215.083 264.951 215.313 264.888C215.445 265.519 214.951 266.166 213.831 266.829C212.711 267.46 212.315 268.17 212.645 268.959C213.468 269.085 214.045 269.148 214.374 269.148C215.264 269.148 215.906 268.88 216.301 268.344C216.367 267.523 216.104 266.45 215.511 265.125C214.951 263.799 214.638 262.994 214.572 262.71ZM190.506 265.077C189.946 265.33 189.353 265.677 188.727 266.119C188.101 266.561 187.508 266.987 186.948 267.397C186.75 268.091 186.734 268.722 186.899 269.29C187.063 269.827 187.393 270.616 187.887 271.657C188.348 271.72 189.04 271.594 189.962 271.278C190.918 270.931 191.676 270.868 192.236 271.089C191.478 269.985 190.77 268.88 190.111 267.776C190.704 268.501 191.198 268.991 191.593 269.243C191.593 268.706 191.363 268.091 190.901 267.397C190.44 266.671 190.177 266.213 190.111 266.024L190.704 266.213L190.506 265.077ZM213.682 269.906L212.842 269.527L212.546 269.906H213.682ZM206.813 272.036L207.505 273.598C208.922 273.724 209.795 273.424 210.124 272.699C210.124 271.941 209.795 271.562 209.136 271.562C208.774 271.562 208.378 271.626 207.95 271.752C207.522 271.878 207.143 271.973 206.813 272.036ZM190.209 271.657C189.254 271.91 188.628 272.146 188.332 272.367C188.035 272.588 187.986 272.967 188.183 273.503C189.468 277.511 190.753 281.519 192.038 285.527C192.697 286.821 193.323 287.783 193.916 288.414C194.542 289.014 195.365 289.314 196.387 289.314C196.782 289.314 197.078 289.282 197.276 289.219C198.034 289.219 198.94 288.919 199.994 288.32C201.081 287.689 201.855 287.373 202.317 287.373C202.119 287.689 201.971 287.941 201.872 288.13C201.773 288.32 201.789 288.541 201.921 288.793C202.547 288.225 202.86 287.61 202.86 286.947C202.86 286.316 202.646 285.7 202.218 285.101C201.822 284.47 201.46 283.87 201.131 283.302C201.262 282.134 201.427 280.967 201.625 279.799C201.625 279.61 201.839 279.168 202.267 278.474C202.728 277.748 202.959 277.259 202.959 277.006C202.959 276.596 202.679 276.296 202.119 276.107C201.855 276.549 201.345 276.817 200.587 276.912C199.862 276.975 199.335 277.069 199.006 277.196C196.107 276.217 194.015 274.497 192.73 272.036L190.209 271.657ZM205.084 273.977C205.018 274.103 204.59 274.276 203.799 274.497C203.041 274.718 202.893 275.16 203.354 275.823C204.013 276.012 204.557 276.012 204.985 275.823C205.446 275.633 205.99 275.349 206.616 274.971C206.319 274.624 206.072 274.34 205.875 274.119C205.677 273.898 205.413 273.85 205.084 273.977ZM200.735 274.545C200.603 274.671 200.258 274.829 199.697 275.018C199.17 275.176 199.039 275.507 199.302 276.012H200.093C200.455 275.823 200.752 275.649 200.982 275.491C201.213 275.334 201.295 275.081 201.229 274.734L200.735 274.545ZM204.145 287.562L203.947 287.941C204.079 288.509 204.194 289.882 204.293 292.059C204.392 294.237 204.82 295.831 205.578 296.84C206.599 296.904 207.522 296.714 208.345 296.272C209.202 295.831 209.927 295.152 210.52 294.237C210.322 293.921 210.19 293.543 210.124 293.101C210.058 292.627 210.026 292.138 210.026 291.633V289.977C210.026 289.724 210.026 289.44 210.026 289.125C209.894 288.841 209.828 288.667 209.828 288.604L207.209 289.125C206.122 288.967 205.512 288.635 205.38 288.13C205.578 288.004 205.825 288.02 206.122 288.178C206.451 288.336 206.682 288.383 206.813 288.32C207.472 288.32 208.049 288.304 208.543 288.272C209.07 288.241 209.498 288.099 209.828 287.846C208.082 287.846 206.188 287.752 204.145 287.562ZM203.157 287.562C202.959 288.32 202.86 289.093 202.86 289.882C202.86 290.797 202.975 292.107 203.206 293.811C203.437 295.515 203.552 296.588 203.552 297.03H204.787C204.293 296.02 203.931 294.363 203.7 292.059C203.47 289.756 203.288 288.257 203.157 287.562ZM211.063 287.752C211.129 287.878 210.915 288.162 210.421 288.604V290.734C210.421 292.217 210.668 293.227 211.162 293.764C211.36 293.038 211.459 292.359 211.459 291.728C211.393 290.497 211.36 289.519 211.36 288.793V287.846L211.063 287.752ZM201.131 288.604C200.043 289.14 199.121 289.551 198.363 289.835C197.638 290.119 196.881 290.261 196.09 290.261C196.947 290.261 197.556 290.229 197.918 290.166C198.314 290.103 199.385 289.819 201.131 289.314V288.604ZM212.249 288.793V290.829C212.249 291.618 212.315 292.17 212.447 292.485L212.249 288.793ZM202.119 289.314C201.987 290.197 201.921 290.908 201.921 291.444C201.921 293.117 202.201 294.663 202.761 296.083C202.827 295.767 202.86 295.247 202.86 294.521C202.86 293.764 202.827 292.927 202.761 292.012C202.695 291.097 202.63 290.197 202.564 289.314H202.119ZM201.427 289.787C200.538 290.103 199.5 290.418 198.314 290.734C197.161 291.018 196.107 291.192 195.151 291.255L196.09 295.326L202.119 296.84L201.427 289.787Z" fill="#CD4138"/>
</g>
<g filter="url(#filter1_d_623_117)">
<path d="M29.9319 242.18C30.5736 241.886 31.2321 241.952 31.9075 242.376C32.5829 242.769 33.0894 243.651 33.4271 245.023C33.7986 246.395 34.035 248.094 34.1363 250.12C34.2376 252.113 34.2883 254.841 34.2883 258.305C34.2883 258.501 34.1701 259.203 33.9337 260.412C33.6973 261.621 33.6129 262.487 33.6804 263.009C34.7948 261.833 36.0781 261.245 37.5302 261.245C38.003 261.245 38.5095 261.343 39.0499 261.539C39.8266 262.617 40.4682 263.777 40.9748 265.019C41.5151 266.228 41.7852 267.437 41.7852 268.645C41.7852 269.528 41.6333 270.328 41.3293 271.047C41.8359 272.125 42.3931 273.252 43.001 274.429C43.6426 275.605 44.3687 276.585 45.1791 277.369C45.1791 278.447 44.8077 280.244 44.0647 282.76C43.3556 285.276 43.001 287.106 43.001 288.249C41.0085 290.994 38.9992 293.722 36.973 296.434C36.1625 296.532 35.5378 296.908 35.0988 297.561C34.4909 299.227 34.035 300.322 33.7311 300.845C33.4271 301.335 33.2414 302.233 33.1739 303.54C33.1063 304.847 32.7855 305.729 32.2114 306.187C29.3747 306.807 26.5718 307.412 23.8027 308C23.1273 308 22.2999 307.869 21.3206 307.608C20.3412 307.347 19.0073 306.709 17.3188 305.697C15.6303 304.684 14.4821 304.047 13.8742 303.785C14.347 302.903 14.7185 301.482 14.9887 299.521C15.2588 297.561 15.6134 296.14 16.0524 295.258C15.1406 293.036 14.2288 290.798 13.317 288.543C12.439 285.929 12 283.544 12 281.388C12 279.983 12.2026 278.578 12.6079 277.173C13.6547 272.239 14.7354 267.257 15.8498 262.225C15.7485 261.637 15.6978 261.163 15.6978 260.804V259.922C16.1368 258.321 16.4745 257.128 16.7109 256.344C16.9473 255.527 17.3526 254.907 17.9267 254.482C18.1293 254.351 18.5007 254.318 19.0411 254.384C19.5814 254.449 19.9697 254.482 20.2061 254.482C20.6789 254.482 20.9829 254.204 21.1179 253.649C21.253 253.093 21.3206 252.407 21.3206 251.59C21.253 250.381 21.2192 249.483 21.2192 248.895C21.2192 247.882 21.3543 247.081 21.6245 246.493C21.8946 245.872 22.2999 245.464 22.8402 245.268C23.4143 245.072 23.8195 244.974 24.0559 244.974C24.3261 244.974 24.4949 244.974 24.5625 244.974C25.7107 244.974 26.6056 245.399 27.2472 246.248C27.5174 245.203 27.7706 244.321 28.007 243.602C28.2434 242.85 28.8851 242.376 29.9319 242.18ZM28.5642 243.455C28.3616 244.075 28.2265 244.86 28.159 245.807C28.0915 246.722 28.0577 247.245 28.0577 247.375C28.0577 247.833 28.0915 248.633 28.159 249.777C28.2265 250.92 28.2603 251.819 28.2603 252.472C28.6993 252.407 29.476 252.276 30.5905 252.08C31.7386 251.884 32.6335 251.819 33.2752 251.884V246.493C33.2752 246.134 33.2752 245.758 33.2752 245.366C33.1401 244.909 33.005 244.337 32.8699 243.651C32.7686 242.932 32.0595 242.573 30.7424 242.573C29.9319 242.573 29.2059 242.867 28.5642 243.455ZM23.4987 245.562C22.8233 246.118 22.3505 246.755 22.0804 247.473C21.844 248.16 21.7258 249.025 21.7258 250.071C21.7258 250.496 21.7596 251.198 21.8271 252.178C21.8946 253.126 21.9284 253.861 21.9284 254.384L24.9677 253.894C25.7782 253.959 26.251 253.959 26.3861 253.894C26.3861 252.881 26.4198 251.933 26.4874 251.051C26.5887 250.136 26.6731 249.205 26.7407 248.258C26.7407 247.473 26.7069 246.885 26.6393 246.493C26.2679 245.872 25.221 245.562 23.4987 245.562ZM33.2752 252.472C32.566 252.342 32.0426 252.276 31.7049 252.276C30.2527 252.276 29.1046 252.587 28.2603 253.208C27.5174 254.809 27.1459 256.279 27.1459 257.618C27.1459 257.945 27.2134 258.386 27.3485 258.942C27.8888 258.942 28.8006 258.876 30.0839 258.746C31.3672 258.582 32.0426 258.501 32.1101 258.501C32.5829 258.501 32.9712 258.533 33.2752 258.599C33.4103 258.141 33.5116 257.406 33.5791 256.393C33.6466 255.348 33.6804 254.58 33.6804 254.09L33.2752 252.472ZM26.0821 254.482C25.2717 254.351 24.6807 254.318 24.3092 254.384C23.9715 254.449 23.1441 254.694 21.8271 255.119C21.5569 255.576 21.4725 256.132 21.5738 256.785C21.6751 257.406 21.6583 258.108 21.5232 258.893C21.3881 259.644 21.3206 260.118 21.3206 260.314C21.3206 260.706 21.4219 261.114 21.6245 261.539L26.6393 260.706L26.3861 255.119L26.0821 254.482ZM18.6358 254.923C17.8591 255.054 17.4032 255.478 17.2681 256.197L16.1537 261.539C16.3563 261.801 16.6603 261.931 17.0655 261.931C17.9773 261.931 18.906 261.931 19.8516 261.931C19.3788 261.931 19.0073 261.964 18.7371 262.029C18.467 262.225 18.028 262.405 17.4201 262.568C16.846 262.732 16.4577 262.879 16.255 263.009C16.255 266.179 15.6978 269.364 14.5834 272.566C15.6303 272.174 16.7109 271.749 17.8253 271.292C18.9735 270.802 19.9022 270.197 20.6114 269.479L20.9153 256.393C20.7802 255.87 20.5101 255.446 20.1048 255.119C19.7334 254.76 19.2437 254.694 18.6358 254.923ZM27.4498 260.314L27.3485 266.93L27.6525 267.371C27.9226 267.306 28.3616 267.257 28.9695 267.224C29.6111 267.159 30.2021 267.094 30.7424 267.028C31.5867 267.028 32.1776 266.996 32.5153 266.93C32.5153 265.95 32.6335 264.676 32.8699 263.107C33.1401 261.506 33.3427 260.314 33.4778 259.53C32.7686 259.399 32.2452 259.334 31.9075 259.334C30.3203 259.334 28.8344 259.66 27.4498 260.314ZM26.3861 261.539C25.6431 261.474 24.6976 261.653 23.5494 262.078C22.4012 262.503 21.692 262.748 21.4219 262.813C21.4894 265.035 21.5907 267.224 21.7258 269.381L25.9808 267.567L26.842 262.715L26.3861 261.539ZM38.6446 262.029C37.9692 261.899 37.412 261.833 36.973 261.833C35.8248 261.833 34.9637 262.225 34.3896 263.009C34.2545 263.565 34.187 263.973 34.187 264.235C34.187 264.692 34.2714 265.346 34.4402 266.195C34.6091 267.045 34.6935 267.567 34.6935 267.763C34.9637 268.221 35.0988 269.103 35.0988 270.41C35.0988 271.717 35.3858 272.632 35.9599 273.154C36.1625 272.828 36.2976 272.632 36.3651 272.566C36.0274 272.37 35.9599 271.994 36.1625 271.439C36.3651 270.851 36.4327 270.361 36.3651 269.969C36.3651 269.021 37.125 268.547 38.6446 268.547C39.2863 268.482 39.6915 268.793 39.8603 269.479C40.0292 270.132 40.2487 270.491 40.5189 270.557C40.6539 270.165 40.789 269.691 40.9241 269.136C41.0592 268.547 41.1267 267.927 41.1267 267.273C41.1267 266.326 40.9241 265.476 40.5189 264.725L38.6446 262.029ZM27.6525 267.763L27.3485 267.959C25.8289 268.155 23.9546 268.874 21.7258 270.116C19.5307 271.357 17.9098 272.141 16.8629 272.468C15.2082 272.468 14.1782 273.236 13.7729 274.772C13.5365 276.863 13.3508 278.3 13.2157 279.084C13.3508 279.084 13.5365 279.003 13.7729 278.839C14.0431 278.676 14.2457 278.692 14.3808 278.888C13.3339 279.705 12.8105 280.751 12.8105 282.025C12.8105 282.613 12.9118 283.299 13.1144 284.083C13.317 284.835 13.4859 285.439 13.621 285.897C13.7898 286.322 14.347 287.971 15.2926 290.847C16.2719 293.722 17.2513 295.405 18.2306 295.895C19.2437 296.352 19.936 296.613 20.3074 296.679C20.7127 296.744 21.1517 296.777 21.6245 296.777C22.3337 296.777 23.4818 296.597 25.069 296.238C23.752 297.185 22.2323 297.659 20.5101 297.659C19.936 297.659 19.5139 297.626 19.2437 297.561L20.1048 297.855C20.5101 297.92 21.0504 297.953 21.7258 297.953C22.7051 297.953 23.6507 297.724 24.5625 297.267C25.1028 297.594 25.5587 297.479 25.9302 296.924C26.3016 296.336 26.538 296.042 26.6393 296.042L26.842 296.238C26.403 298.852 26.0146 301.465 25.6769 304.079C25.6769 304.537 25.7444 305.239 25.8795 306.187L25.5756 306.481C25.1028 305.631 24.8664 304.733 24.8664 303.785C24.8664 303.393 24.934 302.658 25.069 301.58C25.2041 300.502 25.2717 299.897 25.2717 299.766C24.7989 300.779 24.4105 302.054 24.1066 303.589C23.8364 305.125 23.6338 306.154 23.4987 306.677C24.8158 306.807 25.9471 306.758 26.8926 306.53C27.872 306.301 28.8175 306.023 29.7293 305.697C29.5942 304.814 29.7631 303.507 30.2359 301.776C30.7424 300.044 31.0295 298.868 31.097 298.247H30.1346C29.7293 298.247 29.2903 298.198 28.8175 298.1C28.3785 298.002 28.1252 297.724 28.0577 297.267C29.037 297.398 30.0501 297.496 31.097 297.561C30.9619 297.234 30.5736 297.038 29.9319 296.973C29.3241 296.908 28.7331 296.76 28.159 296.532C27.6187 296.27 27.1628 295.601 26.7913 294.522C26.4536 293.412 26.1835 292.578 25.9808 292.023C26.251 292.252 26.5212 292.725 26.7913 293.444C27.0952 294.13 27.3485 294.539 27.5511 294.669C27.3485 293.787 27.1628 292.938 26.9939 292.121C26.8251 291.271 26.7407 290.406 26.7407 289.523C26.7407 288.935 26.7744 288.462 26.842 288.102L25.9808 292.023L25.5756 291.631C25.508 291.369 25.4743 290.977 25.4743 290.455C25.4743 289.246 25.8289 287.922 26.538 286.485C27.281 285.047 27.8551 283.953 28.2603 283.201C29.7124 282.417 30.9619 281.764 32.0088 281.241C33.0557 280.685 34.0857 280.342 35.0988 280.212C35.4027 279.95 35.3689 279.248 34.9975 278.104C34.6598 276.961 34.5584 276.193 34.6935 275.801L33.1739 276.389L29.2228 277.369C27.129 278.643 25.5756 279.705 24.5625 280.555C23.5832 281.372 22.8909 282.45 22.4856 283.789H21.6245C21.8271 283.528 21.8609 283.103 21.7258 282.515C21.5907 281.894 21.5907 281.421 21.7258 281.094L22.4856 282.221C24.0728 280.326 25.8964 278.856 27.9564 277.81C30.0501 276.732 32.3634 275.883 34.8961 275.262L35.352 274.184C34.8455 273.922 34.2883 273.791 33.6804 273.791C32.3634 273.987 31.384 274.086 30.7424 274.086C31.3165 273.889 31.9581 273.71 32.6673 273.546C33.4103 273.35 34.0181 273.252 34.4909 273.252C34.4909 272.926 34.4571 272.305 34.3896 271.39C34.322 270.442 34.2883 269.691 34.2883 269.136C33.2414 268.874 32.6504 268.482 32.5153 267.959L27.6525 267.763ZM37.0743 269.969C36.8717 270.165 36.7704 270.491 36.7704 270.949C36.7704 271.374 36.8379 271.717 36.973 271.978L37.6315 271.586C37.564 272.043 37.2769 272.681 36.7704 273.497C36.2976 274.282 35.9768 274.902 35.8079 275.36C35.6391 275.785 35.5547 276.324 35.5547 276.977C35.5547 277.99 35.7742 278.888 36.2132 279.673C36.6522 280.424 37.3614 281.339 38.3407 282.417C37.8679 282.286 37.4796 282.254 37.1756 282.319C37.2432 282.711 37.3276 283.071 37.4289 283.397H36.5678C36.3651 283.724 36.2638 284.034 36.2638 284.328C36.2638 284.655 36.382 285.113 36.6184 285.701C36.8548 286.256 36.973 286.632 36.973 286.828C36.4327 286.697 36.0612 286.289 35.8586 285.603C35.656 284.884 35.5209 284.361 35.4533 284.034C35.4533 283.61 35.5547 283.022 35.7573 282.27C35.9599 281.486 36.0274 280.93 35.9599 280.604C32.5829 281.257 29.8813 282.662 27.8551 284.819C27.4498 286.223 27.2472 287.824 27.2472 289.621C27.2472 291.288 27.5174 292.856 28.0577 294.326C28.6993 295.143 29.5436 295.666 30.5905 295.895C31.6711 296.123 32.9712 296.238 34.4909 296.238C35.8755 296.042 37.1756 294.996 38.3913 293.101C39.6071 291.206 40.3838 290.112 40.7215 289.818C40.5189 289.425 40.7215 289.082 41.3293 288.788C41.971 288.494 42.3256 288.2 42.3931 287.906L43.8621 281.094C43.6933 281.094 43.3893 281.208 42.9503 281.437C42.5113 281.666 42.2243 281.78 42.0892 281.78C41.8866 281.78 41.7008 281.584 41.532 281.192C43.288 280.734 44.3349 279.705 44.6726 278.104C44.47 277.614 44.1323 277.124 43.6595 276.634C43.2205 276.144 42.7308 275.621 42.1905 275.066C41.819 275.196 41.3293 275.572 40.7215 276.193C40.1136 276.781 39.5564 277.075 39.0499 277.075C38.6446 276.944 38.2056 276.634 37.7328 276.144C37.2938 275.621 37.26 275.033 37.6315 274.38C37.9692 273.857 38.3576 273.383 38.7966 272.958C39.2356 272.501 39.6746 272.338 40.1136 272.468C39.2018 273.056 38.6109 273.481 38.3407 273.742C38.0705 273.971 37.9017 274.38 37.8341 274.968C38.0368 275.785 38.5095 276.258 39.2525 276.389C39.5564 276.258 39.8435 275.915 40.1136 275.36C41.1267 275.36 41.6333 274.968 41.6333 274.184C41.6333 274.053 41.5657 273.661 41.4307 273.007C41.2956 272.321 41.2956 271.88 41.4307 271.684C41.093 271.39 40.6877 271.243 40.2149 271.243C39.8097 271.243 39.3707 271.357 38.8979 271.586C38.4589 271.782 38.1381 271.913 37.9355 271.978C37.7328 271.553 38.003 271.21 38.7459 270.949C39.5226 270.688 39.6915 270.295 39.2525 269.773C39.0499 269.642 38.6615 269.609 38.0874 269.675C37.5471 269.74 37.2094 269.838 37.0743 269.969ZM17.0655 296.434C16.5252 297.12 16.1368 298.296 15.9004 299.962C15.6978 301.629 15.4952 302.674 15.2926 303.099C17.589 304.21 19.9191 305.337 22.283 306.481L23.904 298.443C23.5663 298.443 22.9753 298.492 22.131 298.59C21.3206 298.656 20.7127 298.688 20.3074 298.688C19.7334 298.688 19.2775 298.656 18.9398 298.59C18.6021 298.492 18.3657 298.116 18.2306 297.463C18.0955 296.777 17.7072 296.434 17.0655 296.434ZM31.2996 305.206L31.8062 304.765C31.8062 304.047 32.0763 302.707 32.6167 300.747C33.1908 298.754 33.4778 297.724 33.4778 297.659C32.9712 298.933 32.4816 300.224 32.0088 301.531C31.536 302.838 31.2996 304.063 31.2996 305.206ZM23.7013 303.099C24.2079 301.465 24.6976 299.848 25.1703 298.247C24.8326 298.868 24.5287 299.619 24.2586 300.502C24.0222 301.351 23.8364 302.217 23.7013 303.099ZM30.2359 305.402C30.81 303.736 31.249 302.331 31.5529 301.188C31.8568 300.044 32.0763 299.064 32.2114 298.247C31.1645 300.404 30.5398 301.874 30.3372 302.658C30.1346 303.409 30.1008 304.324 30.2359 305.402ZM20.9153 277.173C22.3674 277.042 24.2079 276.552 26.4367 275.703C28.6993 274.821 30.1346 274.314 30.7424 274.184C30.2021 274.314 28.6993 274.886 26.2341 275.899C23.8027 276.879 21.8271 277.369 20.3074 277.369C19.1255 277.369 18.0786 277.467 17.1668 277.663C16.2888 277.827 15.4277 278.137 14.5834 278.594C15.4277 278.072 16.2888 277.68 17.1668 277.418C18.0786 277.124 18.906 276.977 19.6489 276.977C19.9529 276.977 20.375 277.042 20.9153 277.173ZM35.7573 266.538C36.2301 265.95 36.9899 265.656 38.0368 265.656C38.7797 265.656 39.3369 265.852 39.7084 266.244L35.7573 266.538ZM27.8551 268.743C28.0577 269.364 27.9564 270.165 27.5511 271.145C27.4836 270.949 27.5511 270.573 27.7538 270.018C27.9564 269.43 27.9902 269.005 27.8551 268.743ZM16.8629 267.763C17.0655 267.339 17.3863 267.045 17.8253 266.881C18.2981 266.718 18.9398 266.603 19.7502 266.538C19.2775 266.603 18.754 266.816 18.1799 267.175C17.6396 267.502 17.2006 267.698 16.8629 267.763ZM40.3162 272.37C40.789 272.109 41.093 271.978 41.228 271.978C40.7553 272.305 40.4513 272.436 40.3162 272.37Z" fill="#CD4138"/>
</g>
<g filter="url(#filter2_d_623_117)">
<path d="M134.308 253.561L142.688 256.474C142.406 259.288 142.193 261.682 142.052 263.658C141.911 265.634 141.221 267.275 139.983 268.581L136.748 273.554H135.952C134.149 272.181 132.628 271.042 131.391 270.138C130.153 269.234 128.81 268.581 127.36 268.179L126.087 272.901C125.663 273.336 123.753 275.095 120.358 278.176C116.999 281.257 115.107 284.304 114.683 287.318C114.153 287.988 113.658 289.294 113.198 291.236C112.738 293.145 112.296 294.418 111.872 295.054C111.2 295.456 110.475 295.657 109.697 295.657C108.672 295.657 107.682 295.339 106.727 294.703C105.666 293.631 105.136 292.09 105.136 290.081C105.136 289.411 105.189 288.691 105.295 287.921C105.401 287.117 105.596 286.297 105.878 285.46C104.499 285.594 103.12 285.694 101.741 285.761C101.529 285.828 101.317 285.711 101.105 285.409C100.893 285.108 100.681 284.991 100.468 285.058C99.9379 285.727 99.16 287.871 98.1346 291.488C97.1445 295.071 95.5179 297.281 93.2549 298.119C92.1233 298.119 91.2216 297.784 90.5498 297.114C92.2825 288.808 94.0681 280.503 95.9069 272.198C96.0483 271.494 95.9422 270.607 95.5886 269.535C95.2704 268.43 95.1113 267.71 95.1113 267.375C95.1113 267.007 95.2174 266.555 95.4295 266.019C97.834 263.976 101.176 261.883 105.454 259.74C109.733 257.563 112.951 255.922 115.107 254.817C119.528 253.912 123.983 253.025 128.474 252.154C130.631 252.154 132.575 252.623 134.308 253.561ZM124.124 253.46C123.771 253.527 122.851 253.712 121.366 254.013C119.881 254.281 118.201 254.582 116.327 254.917C114.489 255.252 113.039 256.039 111.978 257.278C111.306 257.613 110.723 257.948 110.228 258.283C109.733 258.584 109.22 258.735 108.69 258.735C107.452 259.271 105.896 260.108 104.022 261.247C102.148 262.385 100.698 263.223 99.6727 263.758C100.097 263.758 100.716 263.574 101.529 263.206C102.342 262.804 102.891 262.603 103.173 262.603C102.714 263.105 101.724 263.658 100.203 264.261C98.6827 264.83 97.781 265.584 97.4981 266.521C97.4981 268.33 97.1622 270.49 96.4903 273.001C95.8538 275.48 95.1466 278.226 94.3687 281.24C94.5809 281.307 94.8461 281.357 95.1643 281.391C95.4826 281.424 95.6417 281.541 95.6417 281.742C95.3588 282.044 95.0759 282.194 94.793 282.194L95.4295 282.797C95.3588 283.065 95.1113 283.166 94.687 283.099C94.2626 283.032 93.8737 283.835 93.5201 285.51C93.2018 287.184 92.7952 289.529 92.3001 292.543C92.3001 293.38 92.4062 294.217 92.6184 295.054C92.1941 295.724 91.8051 296.36 91.4515 296.963C91.7344 297.265 92.1587 297.415 92.7245 297.415C92.9366 297.415 93.1488 297.415 93.3609 297.415C93.6792 297.281 93.9797 297.147 94.2626 297.013C94.5455 296.846 94.8284 296.595 95.1113 296.26C95.3942 295.925 95.7301 295.406 96.119 294.703C96.4726 293.698 96.8262 292.677 97.1798 291.638C97.1798 291.169 96.9323 290.784 96.4373 290.483C97.1445 290.014 97.7102 289.277 98.1346 288.273C98.5943 287.234 99.0009 286.23 99.3545 285.259C99.3545 285.058 99.2307 284.94 98.9832 284.907C98.7357 284.873 98.5059 284.823 98.2937 284.756L98.1876 283.902L99.8849 283.601C100.557 281.558 101.211 279.465 101.847 277.322C101.847 276.518 101.671 275.798 101.317 275.162C101.529 274.961 101.812 275.044 102.166 275.413C102.555 275.748 102.891 275.798 103.173 275.563L102.59 276.518C104.11 276.853 105.348 276.367 106.303 275.061C105.454 274.592 104.871 274.157 104.552 273.755C103.916 273.755 103.598 273.504 103.598 273.001C103.739 272.533 103.845 272.147 103.916 271.846C103.987 271.545 103.987 271.277 103.916 271.042C104.128 271.042 104.34 271.227 104.552 271.595C104.411 272.6 105.047 273.42 106.462 274.056C107.876 274.659 108.69 275.245 108.902 275.815C108.831 275.245 108.495 274.609 107.894 273.906C107.328 273.169 107.01 272.7 106.939 272.499L109.326 274.458C109.326 274.123 109.185 273.655 108.902 273.052C108.619 272.415 108.477 271.93 108.477 271.595C108.972 272.265 109.414 272.784 109.803 273.152C110.228 273.487 110.44 273.889 110.44 274.358C110.44 274.693 110.369 275.095 110.228 275.563C110.086 275.999 109.927 276.568 109.75 277.271C109.574 277.941 108.884 279.733 107.682 282.646C106.48 285.56 105.878 287.804 105.878 289.378C105.878 290.684 106.126 291.923 106.621 293.095C106.975 292.057 107.293 291.203 107.576 290.533C107.894 289.83 108.477 289.478 109.326 289.478C110.776 289.478 111.66 289.93 111.978 290.835C112.544 289.16 113.11 287.502 113.675 285.861C113.322 285.928 112.951 285.962 112.562 285.962C112.173 285.962 111.907 285.962 111.766 285.962C110.74 285.962 109.927 285.761 109.326 285.359C109.503 285.292 109.68 285.259 109.856 285.259C110.033 285.259 110.228 285.259 110.44 285.259L109.591 284.555C109.874 284.254 110.263 284.103 110.758 284.103C111.112 284.103 111.66 284.271 112.402 284.606C113.18 284.907 113.799 284.991 114.259 284.857C114.471 283.752 115.214 282.379 116.487 280.738C117.795 279.097 118.537 278.142 118.714 277.874L117.706 277.02L116.062 275.563C116.593 275.731 117.282 276.032 118.131 276.468C119.015 276.903 119.598 277.121 119.881 277.121C120.447 277.121 120.995 276.752 121.525 276.016C123.399 275.044 124.832 272.951 125.822 269.736C126.847 266.488 127.979 264.395 129.216 263.457C131.338 263.256 133.212 263.658 134.838 264.663C136.465 265.634 137.968 266.505 139.347 267.275C140.125 266.371 140.638 265.349 140.885 264.21C141.168 263.072 141.309 261.716 141.309 260.142V257.58C141.309 257.044 140.726 256.675 139.559 256.474C138.392 256.24 136.5 255.57 133.884 254.465C131.302 253.326 129.252 252.757 127.731 252.757C126.423 252.757 125.221 252.992 124.124 253.46ZM130.967 264.663V265.115L137.597 270.038C137.597 269.971 137.738 269.803 138.021 269.535C138.304 269.234 138.375 268.983 138.233 268.782C137.455 267.777 136.5 267.007 135.369 266.471C134.237 265.902 132.77 265.299 130.967 264.663ZM130.436 265.718C131.143 266.387 131.957 267.074 132.876 267.777C133.831 268.447 134.679 268.966 135.422 269.334C134.998 268.765 134.396 268.179 133.619 267.576C132.876 266.94 131.815 266.32 130.436 265.718ZM96.4373 266.019C96.1544 266.287 96.013 266.588 96.013 266.923C96.013 267.292 96.119 267.576 96.3312 267.777L96.4373 266.019ZM130.967 267.978L129.322 267.174L131.497 268.581L130.967 267.978ZM133.672 269.234L136.483 271.695C136.589 271.628 136.642 271.561 136.642 271.494C136.642 271.427 136.677 271.243 136.748 270.942C136.005 270.674 135.369 270.373 134.838 270.038C134.343 269.703 133.954 269.435 133.672 269.234ZM106.939 275.815V276.216C107.47 276.216 107.735 276.149 107.735 276.016C107.346 275.882 107.081 275.815 106.939 275.815ZM103.067 277.874L100.999 283.902L101.529 284.756C102.095 284.89 102.537 284.957 102.855 284.957C103.421 284.957 104.04 284.823 104.712 284.555C105.419 284.254 105.949 284.036 106.303 283.902C106.975 281.658 107.664 279.398 108.371 277.121C107.735 277.121 107.258 277.121 106.939 277.121C106.798 278.293 106.586 279.197 106.303 279.833C106.02 280.436 105.436 280.972 104.552 281.441C104.941 280.838 105.313 280.218 105.666 279.582C106.02 278.912 106.197 278.226 106.197 277.523C106.197 277.188 106.161 276.92 106.091 276.719C105.737 276.853 105.224 277.054 104.552 277.322C103.916 277.59 103.421 277.774 103.067 277.874ZM110.758 290.382C110.263 290.182 109.892 290.064 109.644 290.031C109.432 289.997 109.22 290.115 109.008 290.382C109.538 290.818 110.192 290.885 110.97 290.583L110.758 290.382ZM107.841 291.437C107.629 292.241 107.523 292.727 107.523 292.894C107.523 293.229 107.7 293.497 108.053 293.698C108.902 293.832 109.556 293.899 110.016 293.899C110.44 293.899 110.794 293.765 111.076 293.497C111.43 292.526 111.43 291.839 111.076 291.437C110.864 291.571 110.511 291.555 110.016 291.387C109.556 291.22 109.079 291.036 108.584 290.835C108.301 290.835 108.053 291.036 107.841 291.437ZM107.311 293.698C108.23 294.736 109.202 295.071 110.228 294.703C109.414 294.569 108.813 294.451 108.424 294.351C108.035 294.251 107.664 294.033 107.311 293.698ZM91.9819 295.356V294.301L91.5576 295.557L91.9819 295.356ZM110.44 283.4C111.748 283.4 112.827 283.819 113.675 284.656L110.44 283.4ZM128.686 253.36C129.181 253.226 129.729 253.293 130.33 253.561C131.037 254.063 131.532 254.415 131.815 254.616L128.686 253.36ZM115.744 276.216L117.494 276.819C117.211 276.886 116.911 276.853 116.593 276.719C116.31 276.585 116.027 276.417 115.744 276.216ZM123.488 268.983C123.912 267.275 124.513 265.718 125.291 264.311C126.105 262.904 127.201 261.799 128.58 260.996C127.413 261.933 126.44 263.373 125.663 265.316C125.592 265.249 125.556 265.148 125.556 265.014C125.097 265.416 124.708 266.019 124.39 266.823C124.071 267.593 123.771 268.313 123.488 268.983ZM103.492 281.139C103.633 281.206 103.757 281.407 103.863 281.742C103.969 282.044 104.163 282.111 104.446 281.943C103.881 282.379 103.527 282.312 103.386 281.742L103.492 281.139Z" fill="#CD4138"/>
</g>
<g filter="url(#filter3_d_623_117)">
<path d="M295.611 242.309C296.179 242.103 296.693 242 297.153 242C298.394 242 299.298 242.532 299.865 243.596C300.149 244.488 300.361 245.655 300.503 247.097C300.645 248.538 300.716 249.791 300.716 250.855V253.275C302.169 255.677 303.605 259.332 305.023 264.24C306.441 269.148 307.433 272.306 308 273.713C308 276.973 307.451 280.2 306.352 283.392C305.289 286.583 304.403 289.226 303.694 291.32C303.02 292.384 302.559 293.654 302.311 295.129C302.063 296.605 301.939 298.253 301.939 300.072V303.058C301.053 304.259 299.918 305.271 298.536 306.095C297.153 306.885 295.062 307.519 292.262 308L284.924 305.992C284.924 305.168 284.747 303.83 284.392 301.977C284.038 300.089 283.861 298.785 283.861 298.064C282.336 296.588 281.308 295.061 280.777 293.482C280.28 291.903 279.678 289.123 278.969 285.142C278.969 282.465 279.164 279.925 279.554 277.523C279.944 275.12 280.582 272.597 281.468 269.955C282.638 269.371 283.79 268.771 284.924 268.153C284.782 267.295 284.711 266.626 284.711 266.145C284.711 265.424 284.906 264.789 285.296 264.24C285.722 263.691 286.253 263.296 286.891 263.056C287.565 262.782 288.398 262.644 289.39 262.644H290.507C290.932 263.09 291.322 263.605 291.677 264.189C292.067 264.772 292.439 265.424 292.793 266.145C293.077 265.424 293.254 264.378 293.325 263.005C293.396 261.597 293.431 260.774 293.431 260.534L293.963 255.488C293.325 253.532 292.705 251.524 292.102 249.465C292.102 248.298 292.616 247.388 293.644 246.736C293.786 245.535 293.945 244.591 294.123 243.905C294.3 243.184 294.796 242.652 295.611 242.309ZM295.931 242.721C294.903 243.647 294.513 244.849 294.761 246.324C295.753 246.324 296.693 246.856 297.579 247.92C298.217 248.881 298.908 249.825 299.653 250.752V248.126C299.653 246.513 299.546 245.312 299.334 244.523C299.121 243.699 298.66 243.184 297.951 242.978C297.278 242.738 296.604 242.652 295.931 242.721ZM294.282 247.045C293.29 247.766 292.793 248.573 292.793 249.465C292.793 250.048 293.112 251.027 293.75 252.399C294.424 253.772 294.761 254.63 294.761 254.973C295.044 255.66 295.47 256.003 296.037 256.003C297.419 255.591 298.802 255.179 300.184 254.768L298.43 250.752C297.862 249.963 297.26 249.156 296.622 248.332C296.019 247.474 295.239 247.045 294.282 247.045ZM300.61 255.488C299.759 255.282 298.944 255.368 298.164 255.746C297.419 256.123 296.71 256.501 296.037 256.878C295.824 257.29 295.718 257.633 295.718 257.908C295.718 258.56 295.895 259.178 296.25 259.761C296.639 260.345 297.012 260.928 297.366 261.512L301.62 260.122L301.939 260.328L299.865 261.203L302.79 260.636C302.577 259.813 302.435 259.195 302.364 258.783L300.61 255.488ZM294.548 257.29L294.761 258.423C294.903 258.285 294.938 258.08 294.867 257.805C294.796 257.53 294.69 257.359 294.548 257.29ZM294.389 259.401C294.247 259.744 294.14 260.328 294.07 261.151C293.999 261.941 293.963 262.507 293.963 262.85V265.63L297.153 265.527C297.012 264.463 296.834 263.657 296.622 263.108C296.445 262.524 295.966 261.289 295.186 259.401H294.389ZM303.002 261.512C302.79 261.443 302.471 261.409 302.045 261.409C301.23 261.409 300.486 261.512 299.812 261.718C299.174 261.924 298.394 262.267 297.473 262.747C297.756 264.223 297.986 265.236 298.164 265.785C298.341 266.3 298.731 266.797 299.334 267.278C299.617 267.209 300.042 267.175 300.61 267.175C301.141 267.175 301.833 267.295 302.683 267.535C303.57 267.741 304.332 267.913 304.97 268.05L304.544 266.145L303.002 261.512ZM287.104 263.622C286.041 264.378 285.58 265.287 285.722 266.351C286.714 265.15 288.008 264.549 289.603 264.549C290.277 264.549 290.755 264.686 291.039 264.961C290.755 263.863 289.993 263.314 288.752 263.314C288.256 263.314 287.707 263.417 287.104 263.622ZM288.965 265.63C288.469 265.768 288.026 266.008 287.636 266.351C287.281 266.694 286.927 267.192 286.572 267.844C286.289 268.324 286.36 268.633 286.785 268.771C287.21 268.908 287.902 269.08 288.859 269.285C288.717 268.874 288.841 268.462 289.231 268.05C289.621 267.638 290.046 267.209 290.507 266.763C289.975 266.42 289.461 266.042 288.965 265.63ZM295.399 266.042C294.973 266.179 294.619 266.282 294.335 266.351C294.087 266.42 293.928 266.557 293.857 266.763C294.211 266.969 294.654 267.003 295.186 266.866C295.753 266.729 296.338 266.557 296.941 266.351C295.984 266.145 295.47 266.042 295.399 266.042ZM291.996 267.278C291.57 268.067 291.216 268.633 290.932 268.977C290.649 269.32 290.241 269.68 289.709 270.058C289.142 270.401 288.433 270.332 287.583 269.852C286.767 269.337 286.218 269.148 285.934 269.285V269.955C287.458 271.911 288.894 273.232 290.241 273.919C291.588 274.571 292.829 274.794 293.963 274.588C293.963 274.863 293.75 275.069 293.325 275.206C293.112 275.755 293.254 276.253 293.75 276.699C294.282 277.111 294.761 277.488 295.186 277.831C295.044 277.969 294.92 278.055 294.814 278.089C294.708 278.123 294.619 278.14 294.548 278.14C294.619 278.792 294.92 279.445 295.452 280.097C295.984 280.714 296.391 281.195 296.675 281.538L296.462 281.744C295.682 281.47 295.009 280.955 294.442 280.2C293.91 279.41 293.538 278.81 293.325 278.398C290.986 281.349 289.816 284.747 289.816 288.591C289.816 290.856 290.223 292.796 291.039 294.409C291.535 294.477 292.403 294.649 293.644 294.924C294.885 295.198 295.789 295.335 296.356 295.335C297.029 295.335 297.685 295.232 298.323 295.026C300.592 293.757 301.939 292.126 302.364 290.136C302.79 288.111 303.002 285.314 303.002 281.744C302.931 281.881 302.807 281.984 302.63 282.053C302.453 282.122 302.258 282.19 302.045 282.259C302.4 281.778 302.701 281.264 302.949 280.714C303.197 280.131 303.321 279.599 303.321 279.119C303.321 278.844 303.286 278.604 303.215 278.398L297.473 271.293L295.931 273.095C295.08 273.438 294.53 273.473 294.282 273.198L296.834 269.955C296.445 269.509 295.647 269.011 294.442 268.462C293.272 267.913 292.457 267.518 291.996 267.278ZM295.399 267.535C295.399 267.81 295.665 268.016 296.196 268.153C296.764 268.29 296.976 268.084 296.834 267.535H295.399ZM289.709 268.874C290.525 268.462 290.826 268.05 290.613 267.638C290.401 267.707 290.153 267.895 289.869 268.204C289.621 268.513 289.568 268.736 289.709 268.874ZM301.62 267.947L300.184 267.638L299.972 267.844L301.62 267.947ZM297.579 267.844C297.437 267.981 297.331 268.187 297.26 268.462C297.189 268.736 297.26 268.942 297.473 269.08C297.756 269.08 298.217 268.771 298.855 268.153C298.571 267.878 298.146 267.775 297.579 267.844ZM305.395 269.491C305.182 269.423 304.491 269.234 303.321 268.925C302.187 268.616 301.319 268.462 300.716 268.462C299.865 268.462 299.174 268.736 298.642 269.285C298.5 269.869 298.66 270.487 299.121 271.139C299.617 271.757 300.007 272.306 300.291 272.786C300.574 273.267 301.124 273.507 301.939 273.507C302.435 273.507 303.18 273.335 304.172 272.992C305.2 272.649 305.98 272.477 306.512 272.477L306.193 270.675L305.395 269.491ZM284.286 269.285C283.471 269.663 282.762 270.041 282.159 270.418C281.556 270.796 281.255 271.448 281.255 272.374C281.042 272.718 280.936 273.095 280.936 273.507C280.936 274.022 281.078 274.485 281.361 274.897C281.645 275.309 282.035 275.515 282.531 275.515C281.893 274.828 281.521 274.365 281.415 274.125C281.308 273.85 281.326 273.541 281.468 273.198L281.893 273.301C281.893 273.164 281.893 272.889 281.893 272.477C281.893 272.066 282.035 271.808 282.319 271.705C282.744 273.902 283.364 275.738 284.18 277.214C284.995 278.69 285.633 279.822 286.094 280.612C286.555 281.367 287.122 281.813 287.795 281.95C287.476 281.744 287.317 281.332 287.317 280.714V279.53C287.458 278.604 288.008 278.295 288.965 278.604C288.823 277.54 288.735 276.682 288.699 276.03C288.664 275.343 288.504 274.64 288.221 273.919C287.689 273.576 287.157 273.095 286.625 272.477C286.094 271.825 285.314 270.761 284.286 269.285ZM296.143 272.168L296.834 270.984L295.824 272.271L296.143 272.168ZM306.512 273.301C304.987 273.301 303.392 273.661 301.726 274.382L303.002 276.03C303.747 276.03 304.509 275.807 305.289 275.36C306.104 274.914 306.689 274.622 307.043 274.485L306.512 273.301ZM289.975 278.037C290.117 276.562 290.401 275.618 290.826 275.206C290.401 275 290.046 274.931 289.763 275C289.514 275.069 289.39 275.24 289.39 275.515C289.532 276.373 289.727 277.214 289.975 278.037ZM305.874 275.824H306.299C306.441 276.201 306.139 276.527 305.395 276.802C304.686 277.076 304.296 277.385 304.225 277.729C304.509 278.381 304.651 279.256 304.651 280.354C304.58 282.207 304.509 284.009 304.438 285.76C305.076 283.426 305.608 281.435 306.033 279.788C306.494 278.14 306.831 276.716 307.043 275.515C306.689 275.446 306.423 275.463 306.246 275.566C306.069 275.669 305.945 275.755 305.874 275.824ZM282.744 276.699C282.602 276.63 282.319 276.424 281.893 276.081C281.468 275.704 281.096 275.686 280.777 276.03C280.706 276.476 280.511 277.523 280.192 279.17C279.873 280.817 279.713 282.105 279.713 283.031V284.164C280.422 287.253 281.042 289.895 281.574 292.092C282.141 294.254 283.222 296.039 284.818 297.446H286.147C287.246 297.446 288.203 297.326 289.018 297.086C289.869 296.846 290.578 296.365 291.145 295.644C289.692 293.002 288.965 290.239 288.965 287.356C288.965 285.88 289.142 284.644 289.497 283.649C289.213 284.198 288.947 284.782 288.699 285.399C288.451 285.983 288.362 286.515 288.433 286.995C288.504 287.579 288.54 288.008 288.54 288.282C288.54 288.626 288.433 288.866 288.221 289.003C287.689 288.454 287.423 287.785 287.423 286.995C287.423 286.309 287.547 285.622 287.795 284.936C288.079 284.215 288.362 283.512 288.646 282.825L287.795 283.031C287.264 282.516 286.785 282.259 286.36 282.259C285.863 282.259 285.332 282.654 284.764 283.443C284.233 284.198 283.861 284.644 283.648 284.782L283.435 284.473L285.403 281.641C284.871 280.955 284.392 280.165 283.967 279.273C283.542 278.381 283.134 277.523 282.744 276.699ZM291.145 276.905C290.791 277.248 290.826 278.02 291.251 279.222C291.535 279.153 291.783 278.998 291.996 278.758C292.244 278.518 292.545 278.003 292.9 277.214C292.758 276.939 292.474 276.819 292.049 276.853C291.659 276.888 291.358 276.905 291.145 276.905ZM288.54 279.633C288.114 279.771 287.937 280.045 288.008 280.457C288.15 280.835 288.327 281.195 288.54 281.538C289.107 281.332 289.426 280.972 289.497 280.457C289.426 280.251 289.337 280.011 289.231 279.736C289.125 279.462 288.894 279.427 288.54 279.633ZM299.014 296.005H299.865C299.865 295.833 299.865 295.644 299.865 295.438C299.369 295.301 299.085 295.49 299.014 296.005ZM299.334 303.47C299.546 302.268 299.653 301.204 299.653 300.278C299.582 298.733 299.546 297.515 299.546 296.622C299.192 297.892 299.014 299.197 299.014 300.535C299.014 301.633 299.121 302.612 299.334 303.47ZM293.75 297.446C293.68 297.172 293.556 297.069 293.378 297.137C293.201 297.206 293.042 297.275 292.9 297.343V306.507C293.042 306.507 293.325 306.473 293.75 306.404V297.446ZM294.389 297.446C294.389 298.167 294.371 298.905 294.335 299.66C294.3 300.381 294.282 301.119 294.282 301.874C294.282 303.555 294.442 304.997 294.761 306.198L296.143 305.992C297.1 305.786 297.774 305.409 298.164 304.86C298.554 304.276 298.749 303.573 298.749 302.749C298.749 302.165 298.642 301.204 298.43 299.866C298.217 298.527 298.181 297.583 298.323 297.034L294.389 297.446ZM291.889 297.343C291.889 298.407 291.854 299.454 291.783 300.484C291.712 301.479 291.641 302.474 291.57 303.47C291.57 304.534 291.677 305.58 291.889 306.61C292.35 304.585 292.581 302.663 292.581 300.844L292.368 297.343H291.889ZM288.433 299.042C288.008 299.248 287.423 299.351 286.679 299.351C286.041 299.351 285.615 299.111 285.403 298.63C285.403 299.591 285.473 300.741 285.615 302.08C285.757 303.418 285.899 304.585 286.041 305.58L290.826 306.507C290.897 306.095 290.968 305.203 291.039 303.83C291.11 302.457 291.145 301.736 291.145 301.668V297.755L288.433 299.042ZM288.433 289.363L289.975 293.534C289.656 293.328 289.373 292.881 289.125 292.195C288.876 291.474 288.646 290.805 288.433 290.187V289.363ZM293.431 273.301C293.644 272.683 294.034 272.066 294.601 271.448C295.204 270.796 295.86 270.298 296.569 269.955C295.931 270.367 295.328 270.933 294.761 271.654C294.229 272.34 293.786 272.889 293.431 273.301ZM295.824 273.713C295.966 273.164 296.48 272.683 297.366 272.271C297.224 272.683 296.71 273.164 295.824 273.713Z" fill="#CD4138"/>
</g>
<defs>
<filter id="filter0_d_623_117" x="171.984" y="247.42" width="66.3472" height="55.4326" filterUnits="userSpaceOnUse" color-interpolation-filters="sRGB">
<feFlood flood-opacity="0" result="BackgroundImageFix"/>
<feColorMatrix in="SourceAlpha" type="matrix" values="0 0 0 0 0 0 0 0 0 0 0 0 0 0 0 0 0 0 127 0" result="hardAlpha"/>
<feOffset/>
<feGaussianBlur stdDeviation="2.36719"/>
<feColorMatrix type="matrix" values="0 0 0 0 0.803922 0 0 0 0 0.254902 0 0 0 0 0.219608 0 0 0 0.9 0"/>
<feBlend mode="normal" in2="BackgroundImageFix" result="effect1_dropShadow_623_117"/>
<feBlend mode="normal" in="SourceGraphic" in2="effect1_dropShadow_623_117" result="shape"/>
</filter>
<filter id="filter1_d_623_117" x="7.26563" y="237.266" width="42.6479" height="75.4687" filterUnits="userSpaceOnUse" color-interpolation-filters="sRGB">
<feFlood flood-opacity="0" result="BackgroundImageFix"/>
<feColorMatrix in="SourceAlpha" type="matrix" values="0 0 0 0 0 0 0 0 0 0 0 0 0 0 0 0 0 0 127 0" result="hardAlpha"/>
<feOffset/>
<feGaussianBlur stdDeviation="2.36719"/>
<feColorMatrix type="matrix" values="0 0 0 0 0.803922 0 0 0 0 0.254902 0 0 0 0 0.219608 0 0 0 0.9 0"/>
<feBlend mode="normal" in2="BackgroundImageFix" result="effect1_dropShadow_623_117"/>
<feBlend mode="normal" in="SourceGraphic" in2="effect1_dropShadow_623_117" result="shape"/>
</filter>
<filter id="filter2_d_623_117" x="85.8154" y="247.42" width="61.6074" height="55.4326" filterUnits="userSpaceOnUse" color-interpolation-filters="sRGB">
<feFlood flood-opacity="0" result="BackgroundImageFix"/>
<feColorMatrix in="SourceAlpha" type="matrix" values="0 0 0 0 0 0 0 0 0 0 0 0 0 0 0 0 0 0 127 0" result="hardAlpha"/>
<feOffset/>
<feGaussianBlur stdDeviation="2.36719"/>
<feColorMatrix type="matrix" values="0 0 0 0 0.803922 0 0 0 0 0.254902 0 0 0 0 0.219608 0 0 0 0.9 0"/>
<feBlend mode="normal" in2="BackgroundImageFix" result="effect1_dropShadow_623_117"/>
<feBlend mode="normal" in="SourceGraphic" in2="effect1_dropShadow_623_117" result="shape"/>
</filter>
<filter id="filter3_d_623_117" x="274.234" y="237.266" width="38.5005" height="75.4687" filterUnits="userSpaceOnUse" color-interpolation-filters="sRGB">
<feFlood flood-opacity="0" result="BackgroundImageFix"/>
<feColorMatrix in="SourceAlpha" type="matrix" values="0 0 0 0 0 0 0 0 0 0 0 0 0 0 0 0 0 0 127 0" result="hardAlpha"/>
<feOffset/>
<feGaussianBlur stdDeviation="2.36719"/>
<feColorMatrix type="matrix" values="0 0 0 0 0.803922 0 0 0 0 0.254902 0 0 0 0 0.219608 0 0 0 0.9 0"/>
<feBlend mode="normal" in2="BackgroundImageFix" result="effect1_dropShadow_623_117"/>
<feBlend mode="normal" in="SourceGraphic" in2="effect1_dropShadow_623_117" result="shape"/>
</filter>
</defs>
</svg>
